<svg width="1363" height="167" viewBox="0 0 1363 167" fill="none" xmlns="http://www.w3.org/2000/svg">
<rect width="1363" height="167" rx="15" fill="#F0F0F0"/>
<path d="M0 15C0 6.71573 6.71573 0 15 0H37V167H15C6.71573 167 0 160.284 0 152V15Z" fill="#424241"/>
<path d="M100.906 50.9219L93.3945 48.2383V45.0859L103.602 49.375V51.6367L100.906 50.9219ZM93.3945 53.1719L100.918 50.4297L103.602 49.7852V52.0352L93.3945 56.3242V53.1719ZM113.504 40.9375H116.48L120.863 53.4648L125.246 40.9375H128.223L122.059 58H119.668L113.504 40.9375ZM111.898 40.9375H114.863L115.402 53.1484V58H111.898V40.9375ZM126.863 40.9375H129.84V58H126.324V53.1484L126.863 40.9375ZM138.547 58.2344C137.562 58.2344 136.68 58.0781 135.898 57.7656C135.117 57.4453 134.453 57.0039 133.906 56.4414C133.367 55.8789 132.953 55.2266 132.664 54.4844C132.375 53.7344 132.23 52.9375 132.23 52.0938V51.625C132.23 50.6641 132.367 49.7852 132.641 48.9883C132.914 48.1914 133.305 47.5 133.812 46.9141C134.328 46.3281 134.953 45.8789 135.688 45.5664C136.422 45.2461 137.25 45.0859 138.172 45.0859C139.07 45.0859 139.867 45.2344 140.562 45.5312C141.258 45.8281 141.84 46.25 142.309 46.7969C142.785 47.3438 143.145 48 143.387 48.7656C143.629 49.5234 143.75 50.3672 143.75 51.2969V52.7031H133.672V50.4531H140.434V50.1953C140.434 49.7266 140.348 49.3086 140.176 48.9414C140.012 48.5664 139.762 48.2695 139.426 48.0508C139.09 47.832 138.66 47.7227 138.137 47.7227C137.691 47.7227 137.309 47.8203 136.988 48.0156C136.668 48.2109 136.406 48.4844 136.203 48.8359C136.008 49.1875 135.859 49.6016 135.758 50.0781C135.664 50.5469 135.617 51.0625 135.617 51.625V52.0938C135.617 52.6016 135.688 53.0703 135.828 53.5C135.977 53.9297 136.184 54.3008 136.449 54.6133C136.723 54.9258 137.051 55.168 137.434 55.3398C137.824 55.5117 138.266 55.5977 138.758 55.5977C139.367 55.5977 139.934 55.4805 140.457 55.2461C140.988 55.0039 141.445 54.6406 141.828 54.1562L143.469 55.9375C143.203 56.3203 142.84 56.6875 142.379 57.0391C141.926 57.3906 141.379 57.6797 140.738 57.9062C140.098 58.125 139.367 58.2344 138.547 58.2344ZM151.508 58.2344C150.523 58.2344 149.641 58.0781 148.859 57.7656C148.078 57.4453 147.414 57.0039 146.867 56.4414C146.328 55.8789 145.914 55.2266 145.625 54.4844C145.336 53.7344 145.191 52.9375 145.191 52.0938V51.625C145.191 50.6641 145.328 49.7852 145.602 48.9883C145.875 48.1914 146.266 47.5 146.773 46.9141C147.289 46.3281 147.914 45.8789 148.648 45.5664C149.383 45.2461 150.211 45.0859 151.133 45.0859C152.031 45.0859 152.828 45.2344 153.523 45.5312C154.219 45.8281 154.801 46.25 155.27 46.7969C155.746 47.3438 156.105 48 156.348 48.7656C156.59 49.5234 156.711 50.3672 156.711 51.2969V52.7031H146.633V50.4531H153.395V50.1953C153.395 49.7266 153.309 49.3086 153.137 48.9414C152.973 48.5664 152.723 48.2695 152.387 48.0508C152.051 47.832 151.621 47.7227 151.098 47.7227C150.652 47.7227 150.27 47.8203 149.949 48.0156C149.629 48.2109 149.367 48.4844 149.164 48.8359C148.969 49.1875 148.82 49.6016 148.719 50.0781C148.625 50.5469 148.578 51.0625 148.578 51.625V52.0938C148.578 52.6016 148.648 53.0703 148.789 53.5C148.938 53.9297 149.145 54.3008 149.41 54.6133C149.684 54.9258 150.012 55.168 150.395 55.3398C150.785 55.5117 151.227 55.5977 151.719 55.5977C152.328 55.5977 152.895 55.4805 153.418 55.2461C153.949 55.0039 154.406 54.6406 154.789 54.1562L156.43 55.9375C156.164 56.3203 155.801 56.6875 155.34 57.0391C154.887 57.3906 154.34 57.6797 153.699 57.9062C153.059 58.125 152.328 58.2344 151.508 58.2344ZM164.844 45.3203V47.7109H157.461V45.3203H164.844ZM159.289 42.1914H162.664V54.1797C162.664 54.5469 162.711 54.8281 162.805 55.0234C162.906 55.2188 163.055 55.3555 163.25 55.4336C163.445 55.5039 163.691 55.5391 163.988 55.5391C164.199 55.5391 164.387 55.5312 164.551 55.5156C164.723 55.4922 164.867 55.4688 164.984 55.4453L164.996 57.9297C164.707 58.0234 164.395 58.0977 164.059 58.1523C163.723 58.207 163.352 58.2344 162.945 58.2344C162.203 58.2344 161.555 58.1133 161 57.8711C160.453 57.6211 160.031 57.2227 159.734 56.6758C159.438 56.1289 159.289 55.4102 159.289 54.5195V42.1914ZM179.891 43.8555L175.25 58H171.512L177.852 40.9375H180.23L179.891 43.8555ZM183.746 58L179.094 43.8555L178.719 40.9375H181.121L187.496 58H183.746ZM183.535 51.6484V54.4023H174.523V51.6484H183.535ZM206.023 55.2578V58H197.434V55.2578H206.023ZM198.57 40.9375V58H195.055V40.9375H198.57ZM207.289 51.7891V51.543C207.289 50.6133 207.422 49.7578 207.688 48.9766C207.953 48.1875 208.34 47.5039 208.848 46.9258C209.355 46.3477 209.98 45.8984 210.723 45.5781C211.465 45.25 212.316 45.0859 213.277 45.0859C214.238 45.0859 215.094 45.25 215.844 45.5781C216.594 45.8984 217.223 46.3477 217.73 46.9258C218.246 47.5039 218.637 48.1875 218.902 48.9766C219.168 49.7578 219.301 50.6133 219.301 51.543V51.7891C219.301 52.7109 219.168 53.5664 218.902 54.3555C218.637 55.1367 218.246 55.8203 217.73 56.4062C217.223 56.9844 216.598 57.4336 215.855 57.7539C215.113 58.0742 214.262 58.2344 213.301 58.2344C212.34 58.2344 211.484 58.0742 210.734 57.7539C209.992 57.4336 209.363 56.9844 208.848 56.4062C208.34 55.8203 207.953 55.1367 207.688 54.3555C207.422 53.5664 207.289 52.7109 207.289 51.7891ZM210.664 51.543V51.7891C210.664 52.3203 210.711 52.8164 210.805 53.2773C210.898 53.7383 211.047 54.1445 211.25 54.4961C211.461 54.8398 211.734 55.1094 212.07 55.3047C212.406 55.5 212.816 55.5977 213.301 55.5977C213.77 55.5977 214.172 55.5 214.508 55.3047C214.844 55.1094 215.113 54.8398 215.316 54.4961C215.52 54.1445 215.668 53.7383 215.762 53.2773C215.863 52.8164 215.914 52.3203 215.914 51.7891V51.543C215.914 51.0273 215.863 50.543 215.762 50.0898C215.668 49.6289 215.516 49.2227 215.305 48.8711C215.102 48.5117 214.832 48.2305 214.496 48.0273C214.16 47.8242 213.754 47.7227 213.277 47.7227C212.801 47.7227 212.395 47.8242 212.059 48.0273C211.73 48.2305 211.461 48.5117 211.25 48.8711C211.047 49.2227 210.898 49.6289 210.805 50.0898C210.711 50.543 210.664 51.0273 210.664 51.543ZM226.613 55.5977C227.027 55.5977 227.395 55.5195 227.715 55.3633C228.035 55.1992 228.285 54.9727 228.465 54.6836C228.652 54.3867 228.75 54.0391 228.758 53.6406H231.934C231.926 54.5312 231.688 55.3242 231.219 56.0195C230.75 56.707 230.121 57.25 229.332 57.6484C228.543 58.0391 227.66 58.2344 226.684 58.2344C225.699 58.2344 224.84 58.0703 224.105 57.7422C223.379 57.4141 222.773 56.9609 222.289 56.3828C221.805 55.7969 221.441 55.1172 221.199 54.3438C220.957 53.5625 220.836 52.7266 220.836 51.8359V51.4961C220.836 50.5977 220.957 49.7617 221.199 48.9883C221.441 48.207 221.805 47.5273 222.289 46.9492C222.773 46.3633 223.379 45.9062 224.105 45.5781C224.832 45.25 225.684 45.0859 226.66 45.0859C227.699 45.0859 228.609 45.2852 229.391 45.6836C230.18 46.082 230.797 46.6523 231.242 47.3945C231.695 48.1289 231.926 49 231.934 50.0078H228.758C228.75 49.5859 228.66 49.2031 228.488 48.8594C228.324 48.5156 228.082 48.2422 227.762 48.0391C227.449 47.8281 227.062 47.7227 226.602 47.7227C226.109 47.7227 225.707 47.8281 225.395 48.0391C225.082 48.2422 224.84 48.5234 224.668 48.8828C224.496 49.2344 224.375 49.6367 224.305 50.0898C224.242 50.5352 224.211 51.0039 224.211 51.4961V51.8359C224.211 52.3281 224.242 52.8008 224.305 53.2539C224.367 53.707 224.484 54.1094 224.656 54.4609C224.836 54.8125 225.082 55.0898 225.395 55.293C225.707 55.4961 226.113 55.5977 226.613 55.5977ZM240.734 55.1406V49.4922C240.734 49.0859 240.668 48.7383 240.535 48.4492C240.402 48.1523 240.195 47.9219 239.914 47.7578C239.641 47.5938 239.285 47.5117 238.848 47.5117C238.473 47.5117 238.148 47.5781 237.875 47.7109C237.602 47.8359 237.391 48.0195 237.242 48.2617C237.094 48.4961 237.02 48.7734 237.02 49.0938H233.645C233.645 48.5547 233.77 48.043 234.02 47.5586C234.27 47.0742 234.633 46.6484 235.109 46.2812C235.586 45.9062 236.152 45.6133 236.809 45.4023C237.473 45.1914 238.215 45.0859 239.035 45.0859C240.02 45.0859 240.895 45.25 241.66 45.5781C242.426 45.9062 243.027 46.3984 243.465 47.0547C243.91 47.7109 244.133 48.5312 244.133 49.5156V54.9414C244.133 55.6367 244.176 56.207 244.262 56.6523C244.348 57.0898 244.473 57.4727 244.637 57.8008V58H241.227C241.062 57.6562 240.938 57.2266 240.852 56.7109C240.773 56.1875 240.734 55.6641 240.734 55.1406ZM241.18 50.2773L241.203 52.1875H239.316C238.871 52.1875 238.484 52.2383 238.156 52.3398C237.828 52.4414 237.559 52.5859 237.348 52.7734C237.137 52.9531 236.98 53.1641 236.879 53.4062C236.785 53.6484 236.738 53.9141 236.738 54.2031C236.738 54.4922 236.805 54.7539 236.938 54.9883C237.07 55.2148 237.262 55.3945 237.512 55.5273C237.762 55.6523 238.055 55.7148 238.391 55.7148C238.898 55.7148 239.34 55.6133 239.715 55.4102C240.09 55.207 240.379 54.957 240.582 54.6602C240.793 54.3633 240.902 54.082 240.91 53.8164L241.801 55.2461C241.676 55.5664 241.504 55.8984 241.285 56.2422C241.074 56.5859 240.805 56.9102 240.477 57.2148C240.148 57.5117 239.754 57.7578 239.293 57.9531C238.832 58.1406 238.285 58.2344 237.652 58.2344C236.848 58.2344 236.117 58.0742 235.461 57.7539C234.812 57.4258 234.297 56.9766 233.914 56.4062C233.539 55.8281 233.352 55.1719 233.352 54.4375C233.352 53.7734 233.477 53.1836 233.727 52.668C233.977 52.1523 234.344 51.7188 234.828 51.3672C235.32 51.0078 235.934 50.7383 236.668 50.5586C237.402 50.3711 238.254 50.2773 239.223 50.2773H241.18ZM250.297 40V58H246.91V40H250.297Z" fill="#888888"/>
<path d="M102.635 86.0078V118H94.9443V86.0078H102.635ZM115.181 99.2573V118H107.776V94.2256H114.72L115.181 99.2573ZM114.28 105.3L112.588 105.344C112.588 103.674 112.786 102.136 113.182 100.729C113.577 99.3232 114.163 98.1001 114.939 97.0601C115.716 96.02 116.668 95.2144 117.796 94.6431C118.938 94.0718 120.257 93.7861 121.751 93.7861C122.791 93.7861 123.736 93.9473 124.585 94.2695C125.435 94.5771 126.167 95.0679 126.783 95.7417C127.398 96.4009 127.867 97.2651 128.189 98.3345C128.526 99.3892 128.694 100.656 128.694 102.136V118H121.29V103.081C121.29 102.07 121.172 101.308 120.938 100.795C120.718 100.283 120.396 99.9385 119.971 99.7627C119.546 99.5869 119.026 99.499 118.411 99.499C117.767 99.499 117.188 99.6455 116.675 99.9385C116.163 100.231 115.723 100.642 115.357 101.169C115.005 101.682 114.734 102.29 114.544 102.993C114.368 103.696 114.28 104.465 114.28 105.3ZM127.859 105.3L125.794 105.344C125.794 103.674 125.977 102.136 126.343 100.729C126.724 99.3232 127.288 98.1001 128.035 97.0601C128.797 96.02 129.742 95.2144 130.87 94.6431C131.998 94.0718 133.309 93.7861 134.803 93.7861C135.887 93.7861 136.883 93.9473 137.791 94.2695C138.699 94.5918 139.483 95.1118 140.142 95.8296C140.801 96.5474 141.314 97.4995 141.68 98.686C142.046 99.8579 142.229 101.308 142.229 103.037V118H134.803V103.037C134.803 102.055 134.686 101.315 134.451 100.817C134.231 100.305 133.909 99.9604 133.484 99.7847C133.06 99.5942 132.554 99.499 131.968 99.499C131.265 99.499 130.657 99.6455 130.145 99.9385C129.632 100.231 129.2 100.642 128.848 101.169C128.511 101.682 128.262 102.29 128.101 102.993C127.94 103.696 127.859 104.465 127.859 105.3ZM153.941 98.7959V127.141H146.536V94.2256H153.436L153.941 98.7959ZM168.531 105.827V106.289C168.531 108.017 168.333 109.621 167.938 111.101C167.542 112.58 166.956 113.869 166.18 114.968C165.403 116.066 164.437 116.923 163.279 117.539C162.137 118.139 160.811 118.439 159.302 118.439C157.881 118.439 156.658 118.125 155.633 117.495C154.607 116.865 153.75 115.993 153.062 114.88C152.374 113.767 151.817 112.492 151.392 111.057C150.967 109.621 150.63 108.105 150.381 106.508V105.915C150.63 104.201 150.967 102.612 151.392 101.147C151.817 99.6675 152.374 98.3784 153.062 97.2798C153.75 96.1812 154.6 95.3242 155.611 94.709C156.636 94.0938 157.859 93.7861 159.28 93.7861C160.789 93.7861 162.115 94.0718 163.257 94.6431C164.415 95.2144 165.381 96.0347 166.158 97.104C166.949 98.1587 167.542 99.4258 167.938 100.905C168.333 102.385 168.531 104.025 168.531 105.827ZM161.126 106.289V105.827C161.126 104.904 161.06 104.062 160.928 103.3C160.796 102.524 160.584 101.85 160.291 101.279C160.013 100.708 159.639 100.268 159.17 99.9604C158.702 99.6528 158.123 99.499 157.435 99.499C156.644 99.499 155.977 99.6235 155.435 99.8726C154.908 100.107 154.483 100.473 154.161 100.971C153.853 101.455 153.633 102.062 153.501 102.795C153.384 103.513 153.333 104.355 153.348 105.322V107.124C153.318 108.237 153.428 109.218 153.677 110.068C153.926 110.903 154.358 111.555 154.974 112.023C155.589 112.492 156.424 112.727 157.479 112.727C158.182 112.727 158.768 112.565 159.236 112.243C159.705 111.906 160.079 111.445 160.357 110.859C160.635 110.258 160.833 109.57 160.95 108.793C161.067 108.017 161.126 107.182 161.126 106.289ZM179.649 84.25V118H172.222V84.25H179.649ZM195.733 118.439C193.799 118.439 192.071 118.139 190.547 117.539C189.024 116.923 187.735 116.081 186.68 115.012C185.64 113.942 184.842 112.712 184.285 111.32C183.743 109.929 183.472 108.457 183.472 106.904V106.069C183.472 104.326 183.714 102.714 184.197 101.235C184.681 99.7407 185.398 98.437 186.351 97.3237C187.303 96.2104 188.497 95.3462 189.932 94.731C191.368 94.1011 193.038 93.7861 194.942 93.7861C196.626 93.7861 198.135 94.0571 199.468 94.5991C200.801 95.1411 201.929 95.9175 202.852 96.9282C203.79 97.939 204.5 99.1621 204.983 100.598C205.481 102.033 205.73 103.645 205.73 105.432V108.442H186.307V103.806H198.501V103.234C198.516 102.443 198.377 101.77 198.084 101.213C197.806 100.656 197.396 100.231 196.854 99.9385C196.312 99.6455 195.652 99.499 194.876 99.499C194.07 99.499 193.404 99.6748 192.876 100.026C192.364 100.378 191.961 100.861 191.668 101.477C191.39 102.077 191.192 102.773 191.075 103.564C190.958 104.355 190.899 105.19 190.899 106.069V106.904C190.899 107.783 191.016 108.581 191.25 109.299C191.5 110.017 191.851 110.632 192.305 111.145C192.774 111.643 193.331 112.031 193.975 112.309C194.634 112.587 195.381 112.727 196.216 112.727C197.227 112.727 198.223 112.536 199.205 112.155C200.186 111.774 201.028 111.145 201.731 110.266L205.093 114.265C204.61 114.953 203.921 115.62 203.028 116.264C202.149 116.909 201.094 117.436 199.864 117.846C198.633 118.242 197.256 118.439 195.733 118.439ZM216.211 99.2573V118H208.807V94.2256H215.75L216.211 99.2573ZM215.311 105.3L213.619 105.344C213.619 103.674 213.816 102.136 214.212 100.729C214.607 99.3232 215.193 98.1001 215.97 97.0601C216.746 96.02 217.698 95.2144 218.826 94.6431C219.969 94.0718 221.287 93.7861 222.781 93.7861C223.821 93.7861 224.766 93.9473 225.616 94.2695C226.465 94.5771 227.198 95.0679 227.813 95.7417C228.428 96.4009 228.897 97.2651 229.219 98.3345C229.556 99.3892 229.725 100.656 229.725 102.136V118H222.32V103.081C222.32 102.07 222.203 101.308 221.968 100.795C221.749 100.283 221.426 99.9385 221.001 99.7627C220.577 99.5869 220.057 99.499 219.441 99.499C218.797 99.499 218.218 99.6455 217.706 99.9385C217.193 100.231 216.753 100.642 216.387 101.169C216.036 101.682 215.765 102.29 215.574 102.993C215.398 103.696 215.311 104.465 215.311 105.3ZM228.89 105.3L226.824 105.344C226.824 103.674 227.007 102.136 227.374 100.729C227.754 99.3232 228.318 98.1001 229.065 97.0601C229.827 96.02 230.772 95.2144 231.9 94.6431C233.028 94.0718 234.339 93.7861 235.833 93.7861C236.917 93.7861 237.913 93.9473 238.821 94.2695C239.729 94.5918 240.513 95.1118 241.172 95.8296C241.832 96.5474 242.344 97.4995 242.71 98.686C243.077 99.8579 243.26 101.308 243.26 103.037V118H235.833V103.037C235.833 102.055 235.716 101.315 235.481 100.817C235.262 100.305 234.939 99.9604 234.515 99.7847C234.09 99.5942 233.584 99.499 232.999 99.499C232.295 99.499 231.688 99.6455 231.175 99.9385C230.662 100.231 230.23 100.642 229.878 101.169C229.542 101.682 229.292 102.29 229.131 102.993C228.97 103.696 228.89 104.465 228.89 105.3ZM259.014 118.439C257.081 118.439 255.352 118.139 253.829 117.539C252.305 116.923 251.016 116.081 249.961 115.012C248.921 113.942 248.123 112.712 247.566 111.32C247.024 109.929 246.753 108.457 246.753 106.904V106.069C246.753 104.326 246.995 102.714 247.479 101.235C247.962 99.7407 248.68 98.437 249.632 97.3237C250.584 96.2104 251.778 95.3462 253.213 94.731C254.649 94.1011 256.319 93.7861 258.223 93.7861C259.908 93.7861 261.417 94.0571 262.75 94.5991C264.083 95.1411 265.21 95.9175 266.133 96.9282C267.071 97.939 267.781 99.1621 268.265 100.598C268.763 102.033 269.012 103.645 269.012 105.432V108.442H249.588V103.806H261.783V103.234C261.797 102.443 261.658 101.77 261.365 101.213C261.087 100.656 260.677 100.231 260.135 99.9385C259.593 99.6455 258.934 99.499 258.157 99.499C257.352 99.499 256.685 99.6748 256.158 100.026C255.645 100.378 255.242 100.861 254.949 101.477C254.671 102.077 254.473 102.773 254.356 103.564C254.239 104.355 254.18 105.19 254.18 106.069V106.904C254.18 107.783 254.297 108.581 254.532 109.299C254.781 110.017 255.132 110.632 255.586 111.145C256.055 111.643 256.612 112.031 257.256 112.309C257.916 112.587 258.663 112.727 259.498 112.727C260.508 112.727 261.504 112.536 262.486 112.155C263.467 111.774 264.31 111.145 265.013 110.266L268.375 114.265C267.891 114.953 267.203 115.62 266.309 116.264C265.43 116.909 264.375 117.436 263.145 117.846C261.915 118.242 260.538 118.439 259.014 118.439ZM279.295 99.3013V118H271.89V94.2256H278.833L279.295 99.3013ZM278.416 105.3L276.68 105.344C276.68 103.527 276.9 101.909 277.339 100.488C277.779 99.0522 278.401 97.8364 279.207 96.8403C280.013 95.8442 280.972 95.0898 282.085 94.5771C283.213 94.0498 284.466 93.7861 285.843 93.7861C286.941 93.7861 287.945 93.9473 288.853 94.2695C289.776 94.5918 290.567 95.1118 291.226 95.8296C291.9 96.5474 292.413 97.4995 292.764 98.686C293.13 99.8579 293.313 101.308 293.313 103.037V118H285.865V103.015C285.865 102.062 285.733 101.337 285.469 100.839C285.206 100.327 284.825 99.9751 284.327 99.7847C283.829 99.5942 283.221 99.499 282.503 99.499C281.741 99.499 281.097 99.6455 280.569 99.9385C280.042 100.231 279.617 100.642 279.295 101.169C278.987 101.682 278.76 102.29 278.614 102.993C278.482 103.696 278.416 104.465 278.416 105.3ZM309.947 94.2256V99.3672H295.621V94.2256H309.947ZM298.631 88.3149H306.036V110.244C306.036 110.874 306.109 111.364 306.255 111.716C306.402 112.053 306.651 112.294 307.002 112.441C307.369 112.573 307.852 112.639 308.453 112.639C308.877 112.639 309.229 112.631 309.507 112.617C309.786 112.587 310.049 112.551 310.298 112.507V117.802C309.668 118.007 309.009 118.161 308.321 118.264C307.632 118.381 306.9 118.439 306.124 118.439C304.542 118.439 303.187 118.19 302.059 117.692C300.945 117.194 300.096 116.411 299.51 115.341C298.924 114.272 298.631 112.88 298.631 111.167V88.3149ZM325.24 112.023V102.224C325.24 101.55 325.145 100.971 324.954 100.488C324.764 100.004 324.463 99.6309 324.053 99.3672C323.643 99.0889 323.094 98.9497 322.405 98.9497C321.849 98.9497 321.373 99.0449 320.977 99.2354C320.582 99.4258 320.281 99.7114 320.076 100.092C319.871 100.473 319.769 100.957 319.769 101.542H312.364C312.364 100.444 312.605 99.4258 313.089 98.4883C313.587 97.5361 314.29 96.7085 315.198 96.0054C316.121 95.3022 317.22 94.7603 318.494 94.3794C319.783 93.9839 321.219 93.7861 322.801 93.7861C324.69 93.7861 326.375 94.1011 327.854 94.731C329.349 95.3608 330.528 96.3057 331.392 97.5654C332.256 98.8105 332.688 100.378 332.688 102.268V112.001C332.688 113.554 332.776 114.733 332.952 115.539C333.128 116.33 333.377 117.026 333.699 117.626V118H326.272C325.921 117.268 325.657 116.374 325.481 115.319C325.32 114.25 325.24 113.151 325.24 112.023ZM326.141 103.476L326.185 107.431H322.911C322.222 107.431 321.636 107.526 321.153 107.717C320.684 107.907 320.303 108.171 320.01 108.508C319.732 108.83 319.527 109.196 319.395 109.606C319.278 110.017 319.219 110.449 319.219 110.903C319.219 111.342 319.322 111.738 319.527 112.089C319.747 112.426 320.04 112.69 320.406 112.88C320.772 113.071 321.182 113.166 321.636 113.166C322.457 113.166 323.152 113.012 323.724 112.705C324.31 112.382 324.756 111.994 325.064 111.54C325.372 111.086 325.525 110.661 325.525 110.266L327.151 113.298C326.858 113.884 326.521 114.477 326.141 115.078C325.774 115.678 325.313 116.235 324.756 116.748C324.214 117.246 323.548 117.656 322.757 117.978C321.966 118.286 321.006 118.439 319.878 118.439C318.414 118.439 317.066 118.139 315.835 117.539C314.62 116.938 313.646 116.103 312.913 115.034C312.181 113.95 311.814 112.705 311.814 111.298C311.814 110.068 312.034 108.969 312.474 108.002C312.928 107.036 313.609 106.215 314.517 105.542C315.425 104.868 316.583 104.355 317.989 104.003C319.395 103.652 321.05 103.476 322.955 103.476H326.141ZM349.322 94.2256V99.3672H334.996V94.2256H349.322ZM338.006 88.3149H345.411V110.244C345.411 110.874 345.484 111.364 345.63 111.716C345.777 112.053 346.026 112.294 346.377 112.441C346.744 112.573 347.227 112.639 347.828 112.639C348.252 112.639 348.604 112.631 348.882 112.617C349.161 112.587 349.424 112.551 349.673 112.507V117.802C349.043 118.007 348.384 118.161 347.696 118.264C347.007 118.381 346.275 118.439 345.499 118.439C343.917 118.439 342.562 118.19 341.434 117.692C340.32 117.194 339.471 116.411 338.885 115.341C338.299 114.272 338.006 112.88 338.006 111.167V88.3149ZM360.088 94.2256V118H352.662V94.2256H360.088ZM352.222 88.0952C352.222 87.0405 352.603 86.1763 353.365 85.5024C354.126 84.8286 355.115 84.4917 356.331 84.4917C357.547 84.4917 358.536 84.8286 359.297 85.5024C360.059 86.1763 360.44 87.0405 360.44 88.0952C360.44 89.1499 360.059 90.0142 359.297 90.688C358.536 91.3618 357.547 91.6987 356.331 91.6987C355.115 91.6987 354.126 91.3618 353.365 90.688C352.603 90.0142 352.222 89.1499 352.222 88.0952ZM363.736 106.354V105.893C363.736 104.15 363.985 102.546 364.483 101.081C364.981 99.6016 365.713 98.3198 366.68 97.2358C367.647 96.1519 368.841 95.3096 370.262 94.709C371.683 94.0938 373.323 93.7861 375.184 93.7861C377.059 93.7861 378.707 94.0938 380.127 94.709C381.563 95.3096 382.764 96.1519 383.731 97.2358C384.698 98.3198 385.43 99.6016 385.928 101.081C386.426 102.546 386.675 104.15 386.675 105.893V106.354C386.675 108.083 386.426 109.687 385.928 111.167C385.43 112.631 384.698 113.913 383.731 115.012C382.764 116.096 381.57 116.938 380.149 117.539C378.729 118.139 377.088 118.439 375.228 118.439C373.367 118.439 371.719 118.139 370.284 117.539C368.848 116.938 367.647 116.096 366.68 115.012C365.713 113.913 364.981 112.631 364.483 111.167C363.985 109.687 363.736 108.083 363.736 106.354ZM371.141 105.893V106.354C371.141 107.248 371.207 108.083 371.338 108.859C371.47 109.636 371.69 110.317 371.998 110.903C372.305 111.474 372.723 111.921 373.25 112.243C373.777 112.565 374.437 112.727 375.228 112.727C376.004 112.727 376.648 112.565 377.161 112.243C377.688 111.921 378.106 111.474 378.414 110.903C378.721 110.317 378.941 109.636 379.073 108.859C379.205 108.083 379.271 107.248 379.271 106.354V105.893C379.271 105.029 379.205 104.216 379.073 103.454C378.941 102.678 378.721 101.997 378.414 101.411C378.106 100.81 377.688 100.341 377.161 100.004C376.634 99.6675 375.975 99.499 375.184 99.499C374.407 99.499 373.755 99.6675 373.228 100.004C372.715 100.341 372.305 100.81 371.998 101.411C371.69 101.997 371.47 102.678 371.338 103.454C371.207 104.216 371.141 105.029 371.141 105.893ZM397.244 99.3013V118H389.839V94.2256H396.783L397.244 99.3013ZM396.365 105.3L394.629 105.344C394.629 103.527 394.849 101.909 395.289 100.488C395.728 99.0522 396.351 97.8364 397.156 96.8403C397.962 95.8442 398.921 95.0898 400.035 94.5771C401.163 94.0498 402.415 93.7861 403.792 93.7861C404.891 93.7861 405.894 93.9473 406.802 94.2695C407.725 94.5918 408.516 95.1118 409.175 95.8296C409.849 96.5474 410.362 97.4995 410.713 98.686C411.08 99.8579 411.263 101.308 411.263 103.037V118H403.814V103.015C403.814 102.062 403.682 101.337 403.418 100.839C403.155 100.327 402.774 99.9751 402.276 99.7847C401.778 99.5942 401.17 99.499 400.452 99.499C399.69 99.499 399.046 99.6455 398.519 99.9385C397.991 100.231 397.566 100.642 397.244 101.169C396.937 101.682 396.709 102.29 396.563 102.993C396.431 103.696 396.365 104.465 396.365 105.3Z" fill="#424241"/>
<path d="M1363 15C1363 6.71573 1356.28 0 1348 0H1134V167H1348C1356.28 167 1363 160.284 1363 152V15Z" fill="#8C57BA" fill-opacity="0.54"/>
<path d="M1281.5 49H1216.5L1214 51.5V116.5L1216.5 119H1281.5L1284 116.5V51.5L1281.5 49ZM1279 114H1234V104H1245.5C1247 107 1250.5 109 1254 109C1259.5 109 1264 104.5 1264 99C1264 93.5 1259.5 89 1254 89C1248.5 89 1244 93.5 1244 99H1229V114H1219V54H1229V65.5C1226 67 1224 70.5 1224 74C1224 79.5 1228.5 84 1234 84C1239.5 84 1244 79.5 1244 74H1254C1254 79.5 1258.5 84 1264 84C1269.5 84 1274 79.5 1274 74C1274 68.5 1269.5 64 1264 64C1260.5 64 1257 66 1255.5 69H1242.5C1241 66 1237.5 64 1234 64V54H1279V114ZM1249 99C1249 96 1251 94 1254 94C1257 94 1259 96 1259 99C1259 102 1257 104 1254 104C1251 104 1249 102 1249 99ZM1234 69C1237 69 1239 71 1239 74C1239 77 1237 79 1234 79C1231 79 1229 77 1229 74C1229 71 1231 69 1234 69ZM1264 69C1267 69 1269 71 1269 74C1269 77 1267 79 1264 79C1261 79 1259 77 1259 74C1259 71 1261 69 1264 69Z" fill="white"/>
</svg>
