<svg width="1363" height="167" viewBox="0 0 1363 167" fill="none" xmlns="http://www.w3.org/2000/svg">
<rect width="1363" height="167" rx="15" fill="#F0F0F0"/>
<path d="M0 15C0 6.71573 6.71573 0 15 0H37V167H15C6.71573 167 0 160.284 0 152V15Z" fill="#424241"/>
<path d="M100.906 50.9219L93.3945 48.2383V45.0859L103.602 49.375V51.6367L100.906 50.9219ZM93.3945 53.1719L100.918 50.4297L103.602 49.7852V52.0352L93.3945 56.3242V53.1719ZM113.504 40.9375H116.48L120.863 53.4648L125.246 40.9375H128.223L122.059 58H119.668L113.504 40.9375ZM111.898 40.9375H114.863L115.402 53.1484V58H111.898V40.9375ZM126.863 40.9375H129.84V58H126.324V53.1484L126.863 40.9375ZM138.547 58.2344C137.562 58.2344 136.68 58.0781 135.898 57.7656C135.117 57.4453 134.453 57.0039 133.906 56.4414C133.367 55.8789 132.953 55.2266 132.664 54.4844C132.375 53.7344 132.23 52.9375 132.23 52.0938V51.625C132.23 50.6641 132.367 49.7852 132.641 48.9883C132.914 48.1914 133.305 47.5 133.812 46.9141C134.328 46.3281 134.953 45.8789 135.688 45.5664C136.422 45.2461 137.25 45.0859 138.172 45.0859C139.07 45.0859 139.867 45.2344 140.562 45.5312C141.258 45.8281 141.84 46.25 142.309 46.7969C142.785 47.3438 143.145 48 143.387 48.7656C143.629 49.5234 143.75 50.3672 143.75 51.2969V52.7031H133.672V50.4531H140.434V50.1953C140.434 49.7266 140.348 49.3086 140.176 48.9414C140.012 48.5664 139.762 48.2695 139.426 48.0508C139.09 47.832 138.66 47.7227 138.137 47.7227C137.691 47.7227 137.309 47.8203 136.988 48.0156C136.668 48.2109 136.406 48.4844 136.203 48.8359C136.008 49.1875 135.859 49.6016 135.758 50.0781C135.664 50.5469 135.617 51.0625 135.617 51.625V52.0938C135.617 52.6016 135.688 53.0703 135.828 53.5C135.977 53.9297 136.184 54.3008 136.449 54.6133C136.723 54.9258 137.051 55.168 137.434 55.3398C137.824 55.5117 138.266 55.5977 138.758 55.5977C139.367 55.5977 139.934 55.4805 140.457 55.2461C140.988 55.0039 141.445 54.6406 141.828 54.1562L143.469 55.9375C143.203 56.3203 142.84 56.6875 142.379 57.0391C141.926 57.3906 141.379 57.6797 140.738 57.9062C140.098 58.125 139.367 58.2344 138.547 58.2344ZM151.508 58.2344C150.523 58.2344 149.641 58.0781 148.859 57.7656C148.078 57.4453 147.414 57.0039 146.867 56.4414C146.328 55.8789 145.914 55.2266 145.625 54.4844C145.336 53.7344 145.191 52.9375 145.191 52.0938V51.625C145.191 50.6641 145.328 49.7852 145.602 48.9883C145.875 48.1914 146.266 47.5 146.773 46.9141C147.289 46.3281 147.914 45.8789 148.648 45.5664C149.383 45.2461 150.211 45.0859 151.133 45.0859C152.031 45.0859 152.828 45.2344 153.523 45.5312C154.219 45.8281 154.801 46.25 155.27 46.7969C155.746 47.3438 156.105 48 156.348 48.7656C156.59 49.5234 156.711 50.3672 156.711 51.2969V52.7031H146.633V50.4531H153.395V50.1953C153.395 49.7266 153.309 49.3086 153.137 48.9414C152.973 48.5664 152.723 48.2695 152.387 48.0508C152.051 47.832 151.621 47.7227 151.098 47.7227C150.652 47.7227 150.27 47.8203 149.949 48.0156C149.629 48.2109 149.367 48.4844 149.164 48.8359C148.969 49.1875 148.82 49.6016 148.719 50.0781C148.625 50.5469 148.578 51.0625 148.578 51.625V52.0938C148.578 52.6016 148.648 53.0703 148.789 53.5C148.938 53.9297 149.145 54.3008 149.41 54.6133C149.684 54.9258 150.012 55.168 150.395 55.3398C150.785 55.5117 151.227 55.5977 151.719 55.5977C152.328 55.5977 152.895 55.4805 153.418 55.2461C153.949 55.0039 154.406 54.6406 154.789 54.1562L156.43 55.9375C156.164 56.3203 155.801 56.6875 155.34 57.0391C154.887 57.3906 154.34 57.6797 153.699 57.9062C153.059 58.125 152.328 58.2344 151.508 58.2344ZM164.844 45.3203V47.7109H157.461V45.3203H164.844ZM159.289 42.1914H162.664V54.1797C162.664 54.5469 162.711 54.8281 162.805 55.0234C162.906 55.2188 163.055 55.3555 163.25 55.4336C163.445 55.5039 163.691 55.5391 163.988 55.5391C164.199 55.5391 164.387 55.5312 164.551 55.5156C164.723 55.4922 164.867 55.4688 164.984 55.4453L164.996 57.9297C164.707 58.0234 164.395 58.0977 164.059 58.1523C163.723 58.207 163.352 58.2344 162.945 58.2344C162.203 58.2344 161.555 58.1133 161 57.8711C160.453 57.6211 160.031 57.2227 159.734 56.6758C159.438 56.1289 159.289 55.4102 159.289 54.5195V42.1914ZM179.891 43.8555L175.25 58H171.512L177.852 40.9375H180.23L179.891 43.8555ZM183.746 58L179.094 43.8555L178.719 40.9375H181.121L187.496 58H183.746ZM183.535 51.6484V54.4023H174.523V51.6484H183.535ZM206.023 55.2578V58H197.434V55.2578H206.023ZM198.57 40.9375V58H195.055V40.9375H198.57ZM207.289 51.7891V51.543C207.289 50.6133 207.422 49.7578 207.688 48.9766C207.953 48.1875 208.34 47.5039 208.848 46.9258C209.355 46.3477 209.98 45.8984 210.723 45.5781C211.465 45.25 212.316 45.0859 213.277 45.0859C214.238 45.0859 215.094 45.25 215.844 45.5781C216.594 45.8984 217.223 46.3477 217.73 46.9258C218.246 47.5039 218.637 48.1875 218.902 48.9766C219.168 49.7578 219.301 50.6133 219.301 51.543V51.7891C219.301 52.7109 219.168 53.5664 218.902 54.3555C218.637 55.1367 218.246 55.8203 217.73 56.4062C217.223 56.9844 216.598 57.4336 215.855 57.7539C215.113 58.0742 214.262 58.2344 213.301 58.2344C212.34 58.2344 211.484 58.0742 210.734 57.7539C209.992 57.4336 209.363 56.9844 208.848 56.4062C208.34 55.8203 207.953 55.1367 207.688 54.3555C207.422 53.5664 207.289 52.7109 207.289 51.7891ZM210.664 51.543V51.7891C210.664 52.3203 210.711 52.8164 210.805 53.2773C210.898 53.7383 211.047 54.1445 211.25 54.4961C211.461 54.8398 211.734 55.1094 212.07 55.3047C212.406 55.5 212.816 55.5977 213.301 55.5977C213.77 55.5977 214.172 55.5 214.508 55.3047C214.844 55.1094 215.113 54.8398 215.316 54.4961C215.52 54.1445 215.668 53.7383 215.762 53.2773C215.863 52.8164 215.914 52.3203 215.914 51.7891V51.543C215.914 51.0273 215.863 50.543 215.762 50.0898C215.668 49.6289 215.516 49.2227 215.305 48.8711C215.102 48.5117 214.832 48.2305 214.496 48.0273C214.16 47.8242 213.754 47.7227 213.277 47.7227C212.801 47.7227 212.395 47.8242 212.059 48.0273C211.73 48.2305 211.461 48.5117 211.25 48.8711C211.047 49.2227 210.898 49.6289 210.805 50.0898C210.711 50.543 210.664 51.0273 210.664 51.543ZM226.613 55.5977C227.027 55.5977 227.395 55.5195 227.715 55.3633C228.035 55.1992 228.285 54.9727 228.465 54.6836C228.652 54.3867 228.75 54.0391 228.758 53.6406H231.934C231.926 54.5312 231.688 55.3242 231.219 56.0195C230.75 56.707 230.121 57.25 229.332 57.6484C228.543 58.0391 227.66 58.2344 226.684 58.2344C225.699 58.2344 224.84 58.0703 224.105 57.7422C223.379 57.4141 222.773 56.9609 222.289 56.3828C221.805 55.7969 221.441 55.1172 221.199 54.3438C220.957 53.5625 220.836 52.7266 220.836 51.8359V51.4961C220.836 50.5977 220.957 49.7617 221.199 48.9883C221.441 48.207 221.805 47.5273 222.289 46.9492C222.773 46.3633 223.379 45.9062 224.105 45.5781C224.832 45.25 225.684 45.0859 226.66 45.0859C227.699 45.0859 228.609 45.2852 229.391 45.6836C230.18 46.082 230.797 46.6523 231.242 47.3945C231.695 48.1289 231.926 49 231.934 50.0078H228.758C228.75 49.5859 228.66 49.2031 228.488 48.8594C228.324 48.5156 228.082 48.2422 227.762 48.0391C227.449 47.8281 227.062 47.7227 226.602 47.7227C226.109 47.7227 225.707 47.8281 225.395 48.0391C225.082 48.2422 224.84 48.5234 224.668 48.8828C224.496 49.2344 224.375 49.6367 224.305 50.0898C224.242 50.5352 224.211 51.0039 224.211 51.4961V51.8359C224.211 52.3281 224.242 52.8008 224.305 53.2539C224.367 53.707 224.484 54.1094 224.656 54.4609C224.836 54.8125 225.082 55.0898 225.395 55.293C225.707 55.4961 226.113 55.5977 226.613 55.5977ZM240.734 55.1406V49.4922C240.734 49.0859 240.668 48.7383 240.535 48.4492C240.402 48.1523 240.195 47.9219 239.914 47.7578C239.641 47.5938 239.285 47.5117 238.848 47.5117C238.473 47.5117 238.148 47.5781 237.875 47.7109C237.602 47.8359 237.391 48.0195 237.242 48.2617C237.094 48.4961 237.02 48.7734 237.02 49.0938H233.645C233.645 48.5547 233.77 48.043 234.02 47.5586C234.27 47.0742 234.633 46.6484 235.109 46.2812C235.586 45.9062 236.152 45.6133 236.809 45.4023C237.473 45.1914 238.215 45.0859 239.035 45.0859C240.02 45.0859 240.895 45.25 241.66 45.5781C242.426 45.9062 243.027 46.3984 243.465 47.0547C243.91 47.7109 244.133 48.5312 244.133 49.5156V54.9414C244.133 55.6367 244.176 56.207 244.262 56.6523C244.348 57.0898 244.473 57.4727 244.637 57.8008V58H241.227C241.062 57.6562 240.938 57.2266 240.852 56.7109C240.773 56.1875 240.734 55.6641 240.734 55.1406ZM241.18 50.2773L241.203 52.1875H239.316C238.871 52.1875 238.484 52.2383 238.156 52.3398C237.828 52.4414 237.559 52.5859 237.348 52.7734C237.137 52.9531 236.98 53.1641 236.879 53.4062C236.785 53.6484 236.738 53.9141 236.738 54.2031C236.738 54.4922 236.805 54.7539 236.938 54.9883C237.07 55.2148 237.262 55.3945 237.512 55.5273C237.762 55.6523 238.055 55.7148 238.391 55.7148C238.898 55.7148 239.34 55.6133 239.715 55.4102C240.09 55.207 240.379 54.957 240.582 54.6602C240.793 54.3633 240.902 54.082 240.91 53.8164L241.801 55.2461C241.676 55.5664 241.504 55.8984 241.285 56.2422C241.074 56.5859 240.805 56.9102 240.477 57.2148C240.148 57.5117 239.754 57.7578 239.293 57.9531C238.832 58.1406 238.285 58.2344 237.652 58.2344C236.848 58.2344 236.117 58.0742 235.461 57.7539C234.812 57.4258 234.297 56.9766 233.914 56.4062C233.539 55.8281 233.352 55.1719 233.352 54.4375C233.352 53.7734 233.477 53.1836 233.727 52.668C233.977 52.1523 234.344 51.7188 234.828 51.3672C235.32 51.0078 235.934 50.7383 236.668 50.5586C237.402 50.3711 238.254 50.2773 239.223 50.2773H241.18ZM250.297 40V58H246.91V40H250.297Z" fill="#888888"/>
<path d="M115.994 98.708V104.641H99.5806V98.708H115.994ZM102.151 86.0078V118H94.439V86.0078H102.151ZM121.18 86.0078V118H113.489V86.0078H121.18ZM124.805 106.354V105.893C124.805 104.15 125.054 102.546 125.552 101.081C126.05 99.6016 126.783 98.3198 127.75 97.2358C128.716 96.1519 129.91 95.3096 131.331 94.709C132.752 94.0938 134.393 93.7861 136.253 93.7861C138.128 93.7861 139.776 94.0938 141.197 94.709C142.632 95.3096 143.833 96.1519 144.8 97.2358C145.767 98.3198 146.5 99.6016 146.998 101.081C147.496 102.546 147.745 104.15 147.745 105.893V106.354C147.745 108.083 147.496 109.687 146.998 111.167C146.5 112.631 145.767 113.913 144.8 115.012C143.833 116.096 142.64 116.938 141.219 117.539C139.798 118.139 138.157 118.439 136.297 118.439C134.437 118.439 132.789 118.139 131.353 117.539C129.917 116.938 128.716 116.096 127.75 115.012C126.783 113.913 126.05 112.631 125.552 111.167C125.054 109.687 124.805 108.083 124.805 106.354ZM132.21 105.893V106.354C132.21 107.248 132.276 108.083 132.408 108.859C132.54 109.636 132.759 110.317 133.067 110.903C133.375 111.474 133.792 111.921 134.319 112.243C134.847 112.565 135.506 112.727 136.297 112.727C137.073 112.727 137.718 112.565 138.23 112.243C138.758 111.921 139.175 111.474 139.483 110.903C139.791 110.317 140.01 109.636 140.142 108.859C140.274 108.083 140.34 107.248 140.34 106.354V105.893C140.34 105.029 140.274 104.216 140.142 103.454C140.01 102.678 139.791 101.997 139.483 101.411C139.175 100.81 138.758 100.341 138.23 100.004C137.703 99.6675 137.044 99.499 136.253 99.499C135.477 99.499 134.825 99.6675 134.297 100.004C133.785 100.341 133.375 100.81 133.067 101.411C132.759 101.997 132.54 102.678 132.408 103.454C132.276 104.216 132.21 105.029 132.21 105.893ZM158.27 110.925L162.664 94.2256H167.3L165.652 102.597L161.302 118H157.588L158.27 110.925ZM156.534 94.2256L159.258 110.793L159.566 118H155.062L149.437 94.2256H156.534ZM171.211 110.441L173.958 94.2256H181.055L175.474 118H170.97L171.211 110.441ZM167.828 94.2256L172.266 110.881L172.947 118H169.19L164.927 102.641L163.345 94.2256H167.828ZM209.466 86.0078V118H201.753V86.0078H209.466ZM219.09 86.0078V91.9624H192.349V86.0078H219.09ZM216.475 106.354V105.893C216.475 104.15 216.724 102.546 217.222 101.081C217.72 99.6016 218.453 98.3198 219.419 97.2358C220.386 96.1519 221.58 95.3096 223.001 94.709C224.422 94.0938 226.062 93.7861 227.923 93.7861C229.798 93.7861 231.446 94.0938 232.867 94.709C234.302 95.3096 235.503 96.1519 236.47 97.2358C237.437 98.3198 238.169 99.6016 238.667 101.081C239.166 102.546 239.415 104.15 239.415 105.893V106.354C239.415 108.083 239.166 109.687 238.667 111.167C238.169 112.631 237.437 113.913 236.47 115.012C235.503 116.096 234.31 116.938 232.889 117.539C231.468 118.139 229.827 118.439 227.967 118.439C226.106 118.439 224.458 118.139 223.023 117.539C221.587 116.938 220.386 116.096 219.419 115.012C218.453 113.913 217.72 112.631 217.222 111.167C216.724 109.687 216.475 108.083 216.475 106.354ZM223.88 105.893V106.354C223.88 107.248 223.946 108.083 224.078 108.859C224.209 109.636 224.429 110.317 224.737 110.903C225.044 111.474 225.462 111.921 225.989 112.243C226.517 112.565 227.176 112.727 227.967 112.727C228.743 112.727 229.388 112.565 229.9 112.243C230.428 111.921 230.845 111.474 231.153 110.903C231.46 110.317 231.68 109.636 231.812 108.859C231.944 108.083 232.01 107.248 232.01 106.354V105.893C232.01 105.029 231.944 104.216 231.812 103.454C231.68 102.678 231.46 101.997 231.153 101.411C230.845 100.81 230.428 100.341 229.9 100.004C229.373 99.6675 228.714 99.499 227.923 99.499C227.146 99.499 226.495 99.6675 225.967 100.004C225.455 100.341 225.044 100.81 224.737 101.411C224.429 101.997 224.209 102.678 224.078 103.454C223.946 104.216 223.88 105.029 223.88 105.893ZM254.268 86.0078H266.858C269.319 86.0078 271.458 86.374 273.274 87.1064C275.091 87.8389 276.49 88.9229 277.471 90.3584C278.467 91.7939 278.965 93.5664 278.965 95.6758C278.965 97.5068 278.68 99.0376 278.108 100.268C277.537 101.499 276.739 102.517 275.713 103.322C274.703 104.113 273.523 104.765 272.176 105.278L269.649 106.706H259.08L259.036 100.751H266.858C267.84 100.751 268.653 100.576 269.297 100.224C269.942 99.8726 270.425 99.3745 270.748 98.73C271.084 98.0708 271.253 97.2871 271.253 96.3789C271.253 95.4561 271.084 94.665 270.748 94.0059C270.411 93.3467 269.913 92.8413 269.253 92.4897C268.609 92.1382 267.811 91.9624 266.858 91.9624H261.98V118H254.268V86.0078ZM271.78 118L264.705 103.85L272.879 103.806L280.042 117.67V118H271.78ZM297.159 112.221V94.2256H304.585V118H297.642L297.159 112.221ZM297.862 107.387L299.795 107.343C299.795 108.94 299.605 110.419 299.224 111.782C298.843 113.129 298.279 114.301 297.532 115.297C296.8 116.293 295.892 117.07 294.808 117.626C293.738 118.168 292.5 118.439 291.094 118.439C289.922 118.439 288.846 118.278 287.864 117.956C286.897 117.619 286.062 117.099 285.359 116.396C284.656 115.678 284.107 114.763 283.711 113.649C283.331 112.521 283.14 111.174 283.14 109.606V94.2256H290.545V109.65C290.545 110.178 290.611 110.632 290.743 111.013C290.875 111.394 291.065 111.716 291.314 111.979C291.563 112.229 291.871 112.419 292.237 112.551C292.618 112.668 293.05 112.727 293.533 112.727C294.646 112.727 295.518 112.492 296.148 112.023C296.778 111.555 297.217 110.917 297.466 110.112C297.73 109.306 297.862 108.398 297.862 107.387ZM315.945 99.3013V118H308.541V94.2256H315.484L315.945 99.3013ZM315.066 105.3L313.331 105.344C313.331 103.527 313.55 101.909 313.99 100.488C314.429 99.0522 315.052 97.8364 315.857 96.8403C316.663 95.8442 317.623 95.0898 318.736 94.5771C319.864 94.0498 321.116 93.7861 322.493 93.7861C323.592 93.7861 324.595 93.9473 325.503 94.2695C326.426 94.5918 327.217 95.1118 327.876 95.8296C328.55 96.5474 329.063 97.4995 329.415 98.686C329.781 99.8579 329.964 101.308 329.964 103.037V118H322.515V103.015C322.515 102.062 322.383 101.337 322.12 100.839C321.856 100.327 321.475 99.9751 320.977 99.7847C320.479 99.5942 319.871 99.499 319.153 99.499C318.392 99.499 317.747 99.6455 317.22 99.9385C316.692 100.231 316.268 100.642 315.945 101.169C315.638 101.682 315.411 102.29 315.264 102.993C315.132 103.696 315.066 104.465 315.066 105.3ZM345.85 107.871H339.544C339.544 106.582 339.632 105.446 339.808 104.465C339.998 103.469 340.32 102.575 340.774 101.784C341.229 100.993 341.844 100.261 342.62 99.5869C343.309 99.0156 343.902 98.4663 344.4 97.939C344.898 97.4116 345.279 96.877 345.542 96.335C345.806 95.793 345.938 95.2144 345.938 94.5991C345.938 93.8374 345.828 93.2148 345.608 92.7314C345.403 92.248 345.088 91.8892 344.664 91.6548C344.253 91.4058 343.733 91.2812 343.104 91.2812C342.591 91.2812 342.107 91.4058 341.653 91.6548C341.214 91.9038 340.855 92.292 340.577 92.8193C340.298 93.332 340.145 94.0132 340.115 94.8628H332.667C332.71 92.6802 333.194 90.9077 334.117 89.5454C335.054 88.1685 336.299 87.165 337.852 86.5352C339.419 85.8906 341.17 85.5684 343.104 85.5684C345.242 85.5684 347.081 85.8979 348.619 86.5571C350.157 87.2163 351.336 88.1978 352.156 89.5015C352.977 90.7905 353.387 92.3799 353.387 94.2695C353.387 95.5293 353.145 96.6279 352.662 97.5654C352.193 98.4883 351.556 99.3525 350.75 100.158C349.959 100.949 349.073 101.799 348.091 102.707C347.242 103.454 346.663 104.216 346.355 104.992C346.048 105.754 345.879 106.713 345.85 107.871ZM338.643 114.55C338.643 113.496 339.024 112.617 339.786 111.914C340.547 111.196 341.536 110.837 342.752 110.837C343.968 110.837 344.957 111.196 345.718 111.914C346.48 112.617 346.861 113.496 346.861 114.55C346.861 115.605 346.48 116.491 345.718 117.209C344.957 117.912 343.968 118.264 342.752 118.264C341.536 118.264 340.547 117.912 339.786 117.209C339.024 116.491 338.643 115.605 338.643 114.55Z" fill="#424241"/>
<path d="M1363 15C1363 6.71573 1356.28 0 1348 0H1134V167H1348C1356.28 167 1363 160.284 1363 152V15Z" fill="#8C57BA" fill-opacity="0.54"/>
<path d="M1260.77 81.3079C1263.96 81.3079 1267.09 82.2553 1269.74 84.0303C1272.4 85.8053 1274.47 88.3282 1275.69 91.2799C1276.92 94.2316 1277.24 97.4796 1276.61 100.613C1275.99 103.747 1274.45 106.625 1272.19 108.884C1269.93 111.143 1267.05 112.682 1263.92 113.305C1260.79 113.928 1257.54 113.608 1254.59 112.386C1251.64 111.163 1249.11 109.093 1247.34 106.436C1245.56 103.78 1244.62 100.657 1244.62 97.4617C1244.62 93.1774 1246.32 89.0686 1249.35 86.0392C1252.38 83.0098 1256.48 81.3079 1260.77 81.3079ZM1260.77 75.9233C1256.51 75.9233 1252.35 77.1865 1248.8 79.5532C1245.26 81.9198 1242.5 85.2837 1240.87 89.2193C1239.24 93.1549 1238.81 97.4856 1239.64 101.664C1240.48 105.842 1242.53 109.679 1245.54 112.692C1248.55 115.704 1252.39 117.755 1256.57 118.586C1260.75 119.417 1265.08 118.991 1269.01 117.361C1272.95 115.73 1276.31 112.97 1278.68 109.428C1281.04 105.886 1282.31 101.722 1282.31 97.4617C1282.31 91.7493 1280.04 86.271 1276 82.2317C1271.96 78.1925 1266.48 75.9233 1260.77 75.9233Z" fill="white"/>
<path d="M1274.23 49H1220.38C1218.96 49 1217.59 49.5673 1216.58 50.5771C1215.57 51.5869 1215 52.9565 1215 54.3846V108.231C1215 109.659 1215.57 111.028 1216.58 112.038C1217.59 113.048 1218.96 113.615 1220.38 113.615H1231.15V108.231H1220.38V70.5384H1279.62V54.3846C1279.62 52.9565 1279.05 51.5869 1278.04 50.5771C1277.03 49.5673 1275.66 49 1274.23 49ZM1220.38 65.1538V54.3846H1274.23V65.1538H1220.38Z" fill="white"/>
<path d="M1255.38 89.3849V105.539L1268.85 97.4618L1255.38 89.3849Z" fill="white"/>
</svg>
