<svg width="1363" height="167" viewBox="0 0 1363 167" fill="none" xmlns="http://www.w3.org/2000/svg">
<rect width="1363" height="167" rx="15" fill="#F0F0F0"/>
<path d="M0 15C0 6.71573 6.71573 0 15 0H37V167H15C6.71573 167 0 160.284 0 152V15Z" fill="#424241"/>
<path d="M100.906 54.9219L93.3945 52.2383V49.0859L103.602 53.375V55.6367L100.906 54.9219ZM93.3945 57.1719L100.918 54.4297L103.602 53.7852V56.0352L93.3945 60.3242V57.1719ZM113.504 44.9375H116.48L120.863 57.4648L125.246 44.9375H128.223L122.059 62H119.668L113.504 44.9375ZM111.898 44.9375H114.863L115.402 57.1484V62H111.898V44.9375ZM126.863 44.9375H129.84V62H126.324V57.1484L126.863 44.9375ZM138.547 62.2344C137.562 62.2344 136.68 62.0781 135.898 61.7656C135.117 61.4453 134.453 61.0039 133.906 60.4414C133.367 59.8789 132.953 59.2266 132.664 58.4844C132.375 57.7344 132.23 56.9375 132.23 56.0938V55.625C132.23 54.6641 132.367 53.7852 132.641 52.9883C132.914 52.1914 133.305 51.5 133.812 50.9141C134.328 50.3281 134.953 49.8789 135.688 49.5664C136.422 49.2461 137.25 49.0859 138.172 49.0859C139.07 49.0859 139.867 49.2344 140.562 49.5312C141.258 49.8281 141.84 50.25 142.309 50.7969C142.785 51.3438 143.145 52 143.387 52.7656C143.629 53.5234 143.75 54.3672 143.75 55.2969V56.7031H133.672V54.4531H140.434V54.1953C140.434 53.7266 140.348 53.3086 140.176 52.9414C140.012 52.5664 139.762 52.2695 139.426 52.0508C139.09 51.832 138.66 51.7227 138.137 51.7227C137.691 51.7227 137.309 51.8203 136.988 52.0156C136.668 52.2109 136.406 52.4844 136.203 52.8359C136.008 53.1875 135.859 53.6016 135.758 54.0781C135.664 54.5469 135.617 55.0625 135.617 55.625V56.0938C135.617 56.6016 135.688 57.0703 135.828 57.5C135.977 57.9297 136.184 58.3008 136.449 58.6133C136.723 58.9258 137.051 59.168 137.434 59.3398C137.824 59.5117 138.266 59.5977 138.758 59.5977C139.367 59.5977 139.934 59.4805 140.457 59.2461C140.988 59.0039 141.445 58.6406 141.828 58.1562L143.469 59.9375C143.203 60.3203 142.84 60.6875 142.379 61.0391C141.926 61.3906 141.379 61.6797 140.738 61.9062C140.098 62.125 139.367 62.2344 138.547 62.2344ZM151.508 62.2344C150.523 62.2344 149.641 62.0781 148.859 61.7656C148.078 61.4453 147.414 61.0039 146.867 60.4414C146.328 59.8789 145.914 59.2266 145.625 58.4844C145.336 57.7344 145.191 56.9375 145.191 56.0938V55.625C145.191 54.6641 145.328 53.7852 145.602 52.9883C145.875 52.1914 146.266 51.5 146.773 50.9141C147.289 50.3281 147.914 49.8789 148.648 49.5664C149.383 49.2461 150.211 49.0859 151.133 49.0859C152.031 49.0859 152.828 49.2344 153.523 49.5312C154.219 49.8281 154.801 50.25 155.27 50.7969C155.746 51.3438 156.105 52 156.348 52.7656C156.59 53.5234 156.711 54.3672 156.711 55.2969V56.7031H146.633V54.4531H153.395V54.1953C153.395 53.7266 153.309 53.3086 153.137 52.9414C152.973 52.5664 152.723 52.2695 152.387 52.0508C152.051 51.832 151.621 51.7227 151.098 51.7227C150.652 51.7227 150.27 51.8203 149.949 52.0156C149.629 52.2109 149.367 52.4844 149.164 52.8359C148.969 53.1875 148.82 53.6016 148.719 54.0781C148.625 54.5469 148.578 55.0625 148.578 55.625V56.0938C148.578 56.6016 148.648 57.0703 148.789 57.5C148.938 57.9297 149.145 58.3008 149.41 58.6133C149.684 58.9258 150.012 59.168 150.395 59.3398C150.785 59.5117 151.227 59.5977 151.719 59.5977C152.328 59.5977 152.895 59.4805 153.418 59.2461C153.949 59.0039 154.406 58.6406 154.789 58.1562L156.43 59.9375C156.164 60.3203 155.801 60.6875 155.34 61.0391C154.887 61.3906 154.34 61.6797 153.699 61.9062C153.059 62.125 152.328 62.2344 151.508 62.2344ZM164.844 49.3203V51.7109H157.461V49.3203H164.844ZM159.289 46.1914H162.664V58.1797C162.664 58.5469 162.711 58.8281 162.805 59.0234C162.906 59.2188 163.055 59.3555 163.25 59.4336C163.445 59.5039 163.691 59.5391 163.988 59.5391C164.199 59.5391 164.387 59.5312 164.551 59.5156C164.723 59.4922 164.867 59.4688 164.984 59.4453L164.996 61.9297C164.707 62.0234 164.395 62.0977 164.059 62.1523C163.723 62.207 163.352 62.2344 162.945 62.2344C162.203 62.2344 161.555 62.1133 161 61.8711C160.453 61.6211 160.031 61.2227 159.734 60.6758C159.438 60.1289 159.289 59.4102 159.289 58.5195V46.1914ZM179.891 47.8555L175.25 62H171.512L177.852 44.9375H180.23L179.891 47.8555ZM183.746 62L179.094 47.8555L178.719 44.9375H181.121L187.496 62H183.746ZM183.535 55.6484V58.4023H174.523V55.6484H183.535ZM206.023 59.2578V62H197.434V59.2578H206.023ZM198.57 44.9375V62H195.055V44.9375H198.57ZM207.289 55.7891V55.543C207.289 54.6133 207.422 53.7578 207.688 52.9766C207.953 52.1875 208.34 51.5039 208.848 50.9258C209.355 50.3477 209.98 49.8984 210.723 49.5781C211.465 49.25 212.316 49.0859 213.277 49.0859C214.238 49.0859 215.094 49.25 215.844 49.5781C216.594 49.8984 217.223 50.3477 217.73 50.9258C218.246 51.5039 218.637 52.1875 218.902 52.9766C219.168 53.7578 219.301 54.6133 219.301 55.543V55.7891C219.301 56.7109 219.168 57.5664 218.902 58.3555C218.637 59.1367 218.246 59.8203 217.73 60.4062C217.223 60.9844 216.598 61.4336 215.855 61.7539C215.113 62.0742 214.262 62.2344 213.301 62.2344C212.34 62.2344 211.484 62.0742 210.734 61.7539C209.992 61.4336 209.363 60.9844 208.848 60.4062C208.34 59.8203 207.953 59.1367 207.688 58.3555C207.422 57.5664 207.289 56.7109 207.289 55.7891ZM210.664 55.543V55.7891C210.664 56.3203 210.711 56.8164 210.805 57.2773C210.898 57.7383 211.047 58.1445 211.25 58.4961C211.461 58.8398 211.734 59.1094 212.07 59.3047C212.406 59.5 212.816 59.5977 213.301 59.5977C213.77 59.5977 214.172 59.5 214.508 59.3047C214.844 59.1094 215.113 58.8398 215.316 58.4961C215.52 58.1445 215.668 57.7383 215.762 57.2773C215.863 56.8164 215.914 56.3203 215.914 55.7891V55.543C215.914 55.0273 215.863 54.543 215.762 54.0898C215.668 53.6289 215.516 53.2227 215.305 52.8711C215.102 52.5117 214.832 52.2305 214.496 52.0273C214.16 51.8242 213.754 51.7227 213.277 51.7227C212.801 51.7227 212.395 51.8242 212.059 52.0273C211.73 52.2305 211.461 52.5117 211.25 52.8711C211.047 53.2227 210.898 53.6289 210.805 54.0898C210.711 54.543 210.664 55.0273 210.664 55.543ZM226.613 59.5977C227.027 59.5977 227.395 59.5195 227.715 59.3633C228.035 59.1992 228.285 58.9727 228.465 58.6836C228.652 58.3867 228.75 58.0391 228.758 57.6406H231.934C231.926 58.5312 231.688 59.3242 231.219 60.0195C230.75 60.707 230.121 61.25 229.332 61.6484C228.543 62.0391 227.66 62.2344 226.684 62.2344C225.699 62.2344 224.84 62.0703 224.105 61.7422C223.379 61.4141 222.773 60.9609 222.289 60.3828C221.805 59.7969 221.441 59.1172 221.199 58.3438C220.957 57.5625 220.836 56.7266 220.836 55.8359V55.4961C220.836 54.5977 220.957 53.7617 221.199 52.9883C221.441 52.207 221.805 51.5273 222.289 50.9492C222.773 50.3633 223.379 49.9062 224.105 49.5781C224.832 49.25 225.684 49.0859 226.66 49.0859C227.699 49.0859 228.609 49.2852 229.391 49.6836C230.18 50.082 230.797 50.6523 231.242 51.3945C231.695 52.1289 231.926 53 231.934 54.0078H228.758C228.75 53.5859 228.66 53.2031 228.488 52.8594C228.324 52.5156 228.082 52.2422 227.762 52.0391C227.449 51.8281 227.062 51.7227 226.602 51.7227C226.109 51.7227 225.707 51.8281 225.395 52.0391C225.082 52.2422 224.84 52.5234 224.668 52.8828C224.496 53.2344 224.375 53.6367 224.305 54.0898C224.242 54.5352 224.211 55.0039 224.211 55.4961V55.8359C224.211 56.3281 224.242 56.8008 224.305 57.2539C224.367 57.707 224.484 58.1094 224.656 58.4609C224.836 58.8125 225.082 59.0898 225.395 59.293C225.707 59.4961 226.113 59.5977 226.613 59.5977ZM240.734 59.1406V53.4922C240.734 53.0859 240.668 52.7383 240.535 52.4492C240.402 52.1523 240.195 51.9219 239.914 51.7578C239.641 51.5938 239.285 51.5117 238.848 51.5117C238.473 51.5117 238.148 51.5781 237.875 51.7109C237.602 51.8359 237.391 52.0195 237.242 52.2617C237.094 52.4961 237.02 52.7734 237.02 53.0938H233.645C233.645 52.5547 233.77 52.043 234.02 51.5586C234.27 51.0742 234.633 50.6484 235.109 50.2812C235.586 49.9062 236.152 49.6133 236.809 49.4023C237.473 49.1914 238.215 49.0859 239.035 49.0859C240.02 49.0859 240.895 49.25 241.66 49.5781C242.426 49.9062 243.027 50.3984 243.465 51.0547C243.91 51.7109 244.133 52.5312 244.133 53.5156V58.9414C244.133 59.6367 244.176 60.207 244.262 60.6523C244.348 61.0898 244.473 61.4727 244.637 61.8008V62H241.227C241.062 61.6562 240.938 61.2266 240.852 60.7109C240.773 60.1875 240.734 59.6641 240.734 59.1406ZM241.18 54.2773L241.203 56.1875H239.316C238.871 56.1875 238.484 56.2383 238.156 56.3398C237.828 56.4414 237.559 56.5859 237.348 56.7734C237.137 56.9531 236.98 57.1641 236.879 57.4062C236.785 57.6484 236.738 57.9141 236.738 58.2031C236.738 58.4922 236.805 58.7539 236.938 58.9883C237.07 59.2148 237.262 59.3945 237.512 59.5273C237.762 59.6523 238.055 59.7148 238.391 59.7148C238.898 59.7148 239.34 59.6133 239.715 59.4102C240.09 59.207 240.379 58.957 240.582 58.6602C240.793 58.3633 240.902 58.082 240.91 57.8164L241.801 59.2461C241.676 59.5664 241.504 59.8984 241.285 60.2422C241.074 60.5859 240.805 60.9102 240.477 61.2148C240.148 61.5117 239.754 61.7578 239.293 61.9531C238.832 62.1406 238.285 62.2344 237.652 62.2344C236.848 62.2344 236.117 62.0742 235.461 61.7539C234.812 61.4258 234.297 60.9766 233.914 60.4062C233.539 59.8281 233.352 59.1719 233.352 58.4375C233.352 57.7734 233.477 57.1836 233.727 56.668C233.977 56.1523 234.344 55.7188 234.828 55.3672C235.32 55.0078 235.934 54.7383 236.668 54.5586C237.402 54.3711 238.254 54.2773 239.223 54.2773H241.18ZM250.297 44V62H246.91V44H250.297Z" fill="#888888"/>
<path d="M107.205 107.146H99.251V101.191H107.205C108.289 101.191 109.168 101.008 109.842 100.642C110.516 100.275 111.006 99.77 111.314 99.1255C111.636 98.4663 111.797 97.7266 111.797 96.9062C111.797 96.0273 111.636 95.2144 111.314 94.4673C111.006 93.7202 110.516 93.1196 109.842 92.6655C109.168 92.1968 108.289 91.9624 107.205 91.9624H102.151V118H94.439V86.0078H107.205C109.769 86.0078 111.973 86.4766 113.819 87.4141C115.679 88.3516 117.107 89.6406 118.104 91.2812C119.1 92.9072 119.598 94.7676 119.598 96.8623C119.598 98.9277 119.1 100.729 118.104 102.268C117.107 103.806 115.679 105.007 113.819 105.871C111.973 106.721 109.769 107.146 107.205 107.146ZM130.87 100.114V118H123.465V94.2256H130.386L130.87 100.114ZM137.901 94.0498L137.769 100.927C137.476 100.898 137.081 100.861 136.583 100.817C136.084 100.773 135.667 100.751 135.33 100.751C134.466 100.751 133.719 100.854 133.089 101.059C132.474 101.25 131.961 101.542 131.551 101.938C131.155 102.319 130.862 102.802 130.672 103.388C130.496 103.974 130.416 104.655 130.43 105.432L129.09 104.553C129.09 102.956 129.244 101.506 129.551 100.202C129.874 98.8838 130.328 97.7485 130.914 96.7964C131.5 95.8296 132.21 95.0898 133.045 94.5771C133.88 94.0498 134.817 93.7861 135.857 93.7861C136.224 93.7861 136.583 93.8081 136.934 93.8521C137.3 93.896 137.623 93.9619 137.901 94.0498ZM138.736 106.354V105.893C138.736 104.15 138.985 102.546 139.483 101.081C139.981 99.6016 140.713 98.3198 141.68 97.2358C142.647 96.1519 143.841 95.3096 145.262 94.709C146.683 94.0938 148.323 93.7861 150.184 93.7861C152.059 93.7861 153.707 94.0938 155.127 94.709C156.563 95.3096 157.764 96.1519 158.731 97.2358C159.698 98.3198 160.43 99.6016 160.928 101.081C161.426 102.546 161.675 104.15 161.675 105.893V106.354C161.675 108.083 161.426 109.687 160.928 111.167C160.43 112.631 159.698 113.913 158.731 115.012C157.764 116.096 156.57 116.938 155.149 117.539C153.729 118.139 152.088 118.439 150.228 118.439C148.367 118.439 146.719 118.139 145.284 117.539C143.848 116.938 142.647 116.096 141.68 115.012C140.713 113.913 139.981 112.631 139.483 111.167C138.985 109.687 138.736 108.083 138.736 106.354ZM146.141 105.893V106.354C146.141 107.248 146.207 108.083 146.338 108.859C146.47 109.636 146.69 110.317 146.998 110.903C147.305 111.474 147.723 111.921 148.25 112.243C148.777 112.565 149.437 112.727 150.228 112.727C151.004 112.727 151.648 112.565 152.161 112.243C152.688 111.921 153.106 111.474 153.414 110.903C153.721 110.317 153.941 109.636 154.073 108.859C154.205 108.083 154.271 107.248 154.271 106.354V105.893C154.271 105.029 154.205 104.216 154.073 103.454C153.941 102.678 153.721 101.997 153.414 101.411C153.106 100.81 152.688 100.341 152.161 100.004C151.634 99.6675 150.975 99.499 150.184 99.499C149.407 99.499 148.755 99.6675 148.228 100.004C147.715 100.341 147.305 100.81 146.998 101.411C146.69 101.997 146.47 102.678 146.338 103.454C146.207 104.216 146.141 105.029 146.141 105.893ZM177.496 94.2256V99.3672H163.169V94.2256H177.496ZM166.18 88.3149H173.584V110.244C173.584 110.874 173.658 111.364 173.804 111.716C173.951 112.053 174.2 112.294 174.551 112.441C174.917 112.573 175.401 112.639 176.001 112.639C176.426 112.639 176.778 112.631 177.056 112.617C177.334 112.587 177.598 112.551 177.847 112.507V117.802C177.217 118.007 176.558 118.161 175.87 118.264C175.181 118.381 174.449 118.439 173.672 118.439C172.09 118.439 170.735 118.19 169.607 117.692C168.494 117.194 167.645 116.411 167.059 115.341C166.473 114.272 166.18 112.88 166.18 111.167V88.3149ZM178.858 106.354V105.893C178.858 104.15 179.107 102.546 179.605 101.081C180.103 99.6016 180.835 98.3198 181.802 97.2358C182.769 96.1519 183.963 95.3096 185.384 94.709C186.805 94.0938 188.445 93.7861 190.306 93.7861C192.181 93.7861 193.829 94.0938 195.25 94.709C196.685 95.3096 197.886 96.1519 198.853 97.2358C199.82 98.3198 200.552 99.6016 201.05 101.081C201.548 102.546 201.797 104.15 201.797 105.893V106.354C201.797 108.083 201.548 109.687 201.05 111.167C200.552 112.631 199.82 113.913 198.853 115.012C197.886 116.096 196.692 116.938 195.271 117.539C193.851 118.139 192.21 118.439 190.35 118.439C188.489 118.439 186.841 118.139 185.406 117.539C183.97 116.938 182.769 116.096 181.802 115.012C180.835 113.913 180.103 112.631 179.605 111.167C179.107 109.687 178.858 108.083 178.858 106.354ZM186.263 105.893V106.354C186.263 107.248 186.329 108.083 186.46 108.859C186.592 109.636 186.812 110.317 187.12 110.903C187.427 111.474 187.845 111.921 188.372 112.243C188.899 112.565 189.559 112.727 190.35 112.727C191.126 112.727 191.771 112.565 192.283 112.243C192.811 111.921 193.228 111.474 193.536 110.903C193.843 110.317 194.063 109.636 194.195 108.859C194.327 108.083 194.393 107.248 194.393 106.354V105.893C194.393 105.029 194.327 104.216 194.195 103.454C194.063 102.678 193.843 101.997 193.536 101.411C193.228 100.81 192.811 100.341 192.283 100.004C191.756 99.6675 191.097 99.499 190.306 99.499C189.529 99.499 188.877 99.6675 188.35 100.004C187.837 100.341 187.427 100.81 187.12 101.411C186.812 101.997 186.592 102.678 186.46 103.454C186.329 104.216 186.263 105.029 186.263 105.893ZM217.618 94.2256V99.3672H203.292V94.2256H217.618ZM206.302 88.3149H213.707V110.244C213.707 110.874 213.78 111.364 213.926 111.716C214.073 112.053 214.322 112.294 214.673 112.441C215.04 112.573 215.523 112.639 216.124 112.639C216.548 112.639 216.9 112.631 217.178 112.617C217.457 112.587 217.72 112.551 217.969 112.507V117.802C217.339 118.007 216.68 118.161 215.992 118.264C215.303 118.381 214.571 118.439 213.794 118.439C212.212 118.439 210.857 118.19 209.729 117.692C208.616 117.194 207.767 116.411 207.181 115.341C206.595 114.272 206.302 112.88 206.302 111.167V88.3149ZM227.857 115.209L234.009 94.2256H241.963L232.405 121.538C232.2 122.138 231.929 122.783 231.592 123.471C231.255 124.174 230.794 124.841 230.208 125.471C229.622 126.101 228.868 126.613 227.945 127.009C227.037 127.404 225.909 127.602 224.561 127.602C223.843 127.602 223.316 127.565 222.979 127.492C222.657 127.434 222.159 127.324 221.485 127.163V121.867C221.675 121.867 221.836 121.867 221.968 121.867C222.115 121.867 222.276 121.867 222.452 121.867C223.243 121.867 223.873 121.787 224.341 121.625C224.825 121.464 225.191 121.23 225.44 120.922C225.704 120.615 225.909 120.241 226.055 119.802L227.857 115.209ZM226.297 94.2256L230.977 110.859L231.79 118.703H226.824L218.365 94.2256H226.297ZM251.368 98.7959V127.141H243.963V94.2256H250.862L251.368 98.7959ZM265.958 105.827V106.289C265.958 108.017 265.76 109.621 265.364 111.101C264.969 112.58 264.383 113.869 263.606 114.968C262.83 116.066 261.863 116.923 260.706 117.539C259.563 118.139 258.238 118.439 256.729 118.439C255.308 118.439 254.085 118.125 253.06 117.495C252.034 116.865 251.177 115.993 250.489 114.88C249.8 113.767 249.244 112.492 248.819 111.057C248.394 109.621 248.057 108.105 247.808 106.508V105.915C248.057 104.201 248.394 102.612 248.819 101.147C249.244 99.6675 249.8 98.3784 250.489 97.2798C251.177 96.1812 252.027 95.3242 253.038 94.709C254.063 94.0938 255.286 93.7861 256.707 93.7861C258.216 93.7861 259.542 94.0718 260.684 94.6431C261.841 95.2144 262.808 96.0347 263.584 97.104C264.375 98.1587 264.969 99.4258 265.364 100.905C265.76 102.385 265.958 104.025 265.958 105.827ZM258.553 106.289V105.827C258.553 104.904 258.487 104.062 258.355 103.3C258.223 102.524 258.011 101.85 257.718 101.279C257.439 100.708 257.066 100.268 256.597 99.9604C256.128 99.6528 255.55 99.499 254.861 99.499C254.07 99.499 253.404 99.6235 252.862 99.8726C252.334 100.107 251.91 100.473 251.587 100.971C251.28 101.455 251.06 102.062 250.928 102.795C250.811 103.513 250.76 104.355 250.774 105.322V107.124C250.745 108.237 250.855 109.218 251.104 110.068C251.353 110.903 251.785 111.555 252.4 112.023C253.016 112.492 253.851 112.727 254.905 112.727C255.608 112.727 256.194 112.565 256.663 112.243C257.132 111.906 257.505 111.445 257.784 110.859C258.062 110.258 258.26 109.57 258.377 108.793C258.494 108.017 258.553 107.182 258.553 106.289ZM277.076 94.2256V118H269.649V94.2256H277.076ZM269.209 88.0952C269.209 87.0405 269.59 86.1763 270.352 85.5024C271.114 84.8286 272.103 84.4917 273.318 84.4917C274.534 84.4917 275.523 84.8286 276.285 85.5024C277.046 86.1763 277.427 87.0405 277.427 88.0952C277.427 89.1499 277.046 90.0142 276.285 90.688C275.523 91.3618 274.534 91.6987 273.318 91.6987C272.103 91.6987 271.114 91.3618 270.352 90.688C269.59 90.0142 269.209 89.1499 269.209 88.0952ZM288.919 99.3013V118H281.514V94.2256H288.458L288.919 99.3013ZM288.04 105.3L286.304 105.344C286.304 103.527 286.524 101.909 286.963 100.488C287.403 99.0522 288.025 97.8364 288.831 96.8403C289.637 95.8442 290.596 95.0898 291.709 94.5771C292.837 94.0498 294.09 93.7861 295.467 93.7861C296.565 93.7861 297.569 93.9473 298.477 94.2695C299.4 94.5918 300.191 95.1118 300.85 95.8296C301.524 96.5474 302.037 97.4995 302.388 98.686C302.754 99.8579 302.938 101.308 302.938 103.037V118H295.489V103.015C295.489 102.062 295.357 101.337 295.093 100.839C294.83 100.327 294.449 99.9751 293.951 99.7847C293.453 99.5942 292.845 99.499 292.127 99.499C291.365 99.499 290.721 99.6455 290.193 99.9385C289.666 100.231 289.241 100.642 288.919 101.169C288.611 101.682 288.384 102.29 288.238 102.993C288.106 103.696 288.04 104.465 288.04 105.3ZM321.988 94.2256H328.711V117.077C328.711 119.274 328.206 121.135 327.195 122.658C326.185 124.196 324.771 125.361 322.955 126.152C321.153 126.958 319.043 127.36 316.626 127.36C315.557 127.36 314.466 127.221 313.353 126.943C312.239 126.679 311.199 126.284 310.232 125.756C309.266 125.229 308.453 124.577 307.793 123.801L310.892 119.45C311.492 120.124 312.247 120.695 313.155 121.164C314.063 121.647 315.132 121.889 316.363 121.889C317.432 121.889 318.326 121.699 319.043 121.318C319.776 120.937 320.333 120.38 320.713 119.648C321.094 118.93 321.285 118.059 321.285 117.033V99.8506L321.988 94.2256ZM306.189 106.398V105.937C306.189 104.135 306.409 102.495 306.849 101.015C307.303 99.521 307.947 98.2393 308.782 97.1699C309.632 96.0859 310.657 95.251 311.858 94.665C313.06 94.0791 314.415 93.7861 315.923 93.7861C317.549 93.7861 318.882 94.1011 319.922 94.731C320.977 95.3462 321.819 96.2104 322.449 97.3237C323.094 98.437 323.592 99.7407 323.943 101.235C324.31 102.714 324.617 104.311 324.866 106.025V106.574C324.617 108.186 324.273 109.709 323.833 111.145C323.409 112.565 322.852 113.825 322.164 114.924C321.475 116.022 320.611 116.887 319.571 117.517C318.545 118.132 317.315 118.439 315.879 118.439C314.385 118.439 313.038 118.139 311.836 117.539C310.65 116.938 309.632 116.096 308.782 115.012C307.947 113.928 307.303 112.653 306.849 111.188C306.409 109.724 306.189 108.127 306.189 106.398ZM313.594 105.937V106.398C313.594 107.292 313.675 108.12 313.836 108.881C314.012 109.643 314.275 110.317 314.627 110.903C314.979 111.474 315.411 111.921 315.923 112.243C316.451 112.565 317.066 112.727 317.769 112.727C318.838 112.727 319.703 112.5 320.362 112.045C321.021 111.591 321.497 110.947 321.79 110.112C322.083 109.277 322.208 108.295 322.164 107.167V105.432C322.193 104.465 322.127 103.615 321.966 102.883C321.805 102.136 321.548 101.513 321.197 101.015C320.86 100.517 320.406 100.144 319.834 99.8945C319.278 99.6309 318.604 99.499 317.813 99.499C317.125 99.499 316.517 99.6602 315.989 99.9824C315.462 100.305 315.022 100.759 314.671 101.345C314.319 101.916 314.048 102.597 313.858 103.388C313.682 104.165 313.594 105.014 313.594 105.937Z" fill="#424241"/>
<path d="M1363 15C1363 6.71573 1356.28 0 1348 0H1134V167H1348C1356.28 167 1363 160.284 1363 152V15Z" fill="#8C57BA" fill-opacity="0.54"/>
<path fill-rule="evenodd" clip-rule="evenodd" d="M1203 49C1203 47.8954 1203.9 47 1205 47H1292.5C1293.6 47 1294.5 47.8954 1294.5 49V118.996C1294.5 120.101 1293.6 120.996 1292.5 120.996H1205C1203.9 120.996 1203 120.101 1203 118.996V49ZM1207 51V55.4945H1290.5V51H1207ZM1290.5 59.4945H1235.44V116.996H1290.5V59.4945ZM1231.44 116.996V59.4945H1207V116.996H1231.44Z" fill="white"/>
<path fill-rule="evenodd" clip-rule="evenodd" d="M1209.97 64.8004C1209.97 63.6958 1210.87 62.8004 1211.97 62.8004H1225.97C1227.08 62.8004 1227.97 63.6958 1227.97 64.8004V84.1956C1227.97 85.3001 1227.08 86.1956 1225.97 86.1956H1211.97C1210.87 86.1956 1209.97 85.3001 1209.97 84.1956V64.8004ZM1213.97 66.8004V82.1956H1223.97V66.8004H1213.97ZM1239.58 65.6964C1239.58 64.5918 1240.47 63.6964 1241.58 63.6964H1284.5C1285.61 63.6964 1286.5 64.5918 1286.5 65.6964V111.905C1286.5 113.01 1285.61 113.905 1284.5 113.905H1241.58C1240.47 113.905 1239.58 113.01 1239.58 111.905V65.6964ZM1243.58 67.6964V109.905H1282.5V67.6964H1243.58ZM1209.81 95.9363C1209.81 94.8317 1210.71 93.9363 1211.81 93.9363H1220.73C1221.84 93.9363 1222.73 94.8317 1222.73 95.9363C1222.73 97.0409 1221.84 97.9363 1220.73 97.9363H1211.81C1210.71 97.9363 1209.81 97.0409 1209.81 95.9363ZM1209.81 102.936C1209.81 101.832 1210.71 100.936 1211.81 100.936H1226.35C1227.46 100.936 1228.35 101.832 1228.35 102.936C1228.35 104.041 1227.46 104.936 1226.35 104.936H1211.81C1210.71 104.936 1209.81 104.041 1209.81 102.936ZM1209.81 109.936C1209.81 108.832 1210.71 107.936 1211.81 107.936H1220.73C1221.84 107.936 1222.73 108.832 1222.73 109.936C1222.73 111.041 1221.84 111.936 1220.73 111.936H1211.81C1210.71 111.936 1209.81 111.041 1209.81 109.936Z" fill="white"/>
</svg>
