<svg width="1363" height="167" viewBox="0 0 1363 167" fill="none" xmlns="http://www.w3.org/2000/svg">
<rect width="1363" height="167" rx="15" fill="#F0F0F0"/>
<path d="M0 15C0 6.71573 6.71573 0 15 0H37V167H15C6.71573 167 0 160.284 0 152V15Z" fill="#424241"/>
<path d="M100.906 54.9219L93.3945 52.2383V49.0859L103.602 53.375V55.6367L100.906 54.9219ZM93.3945 57.1719L100.918 54.4297L103.602 53.7852V56.0352L93.3945 60.3242V57.1719ZM113.504 44.9375H116.48L120.863 57.4648L125.246 44.9375H128.223L122.059 62H119.668L113.504 44.9375ZM111.898 44.9375H114.863L115.402 57.1484V62H111.898V44.9375ZM126.863 44.9375H129.84V62H126.324V57.1484L126.863 44.9375ZM138.547 62.2344C137.562 62.2344 136.68 62.0781 135.898 61.7656C135.117 61.4453 134.453 61.0039 133.906 60.4414C133.367 59.8789 132.953 59.2266 132.664 58.4844C132.375 57.7344 132.23 56.9375 132.23 56.0938V55.625C132.23 54.6641 132.367 53.7852 132.641 52.9883C132.914 52.1914 133.305 51.5 133.812 50.9141C134.328 50.3281 134.953 49.8789 135.688 49.5664C136.422 49.2461 137.25 49.0859 138.172 49.0859C139.07 49.0859 139.867 49.2344 140.562 49.5312C141.258 49.8281 141.84 50.25 142.309 50.7969C142.785 51.3438 143.145 52 143.387 52.7656C143.629 53.5234 143.75 54.3672 143.75 55.2969V56.7031H133.672V54.4531H140.434V54.1953C140.434 53.7266 140.348 53.3086 140.176 52.9414C140.012 52.5664 139.762 52.2695 139.426 52.0508C139.09 51.832 138.66 51.7227 138.137 51.7227C137.691 51.7227 137.309 51.8203 136.988 52.0156C136.668 52.2109 136.406 52.4844 136.203 52.8359C136.008 53.1875 135.859 53.6016 135.758 54.0781C135.664 54.5469 135.617 55.0625 135.617 55.625V56.0938C135.617 56.6016 135.688 57.0703 135.828 57.5C135.977 57.9297 136.184 58.3008 136.449 58.6133C136.723 58.9258 137.051 59.168 137.434 59.3398C137.824 59.5117 138.266 59.5977 138.758 59.5977C139.367 59.5977 139.934 59.4805 140.457 59.2461C140.988 59.0039 141.445 58.6406 141.828 58.1562L143.469 59.9375C143.203 60.3203 142.84 60.6875 142.379 61.0391C141.926 61.3906 141.379 61.6797 140.738 61.9062C140.098 62.125 139.367 62.2344 138.547 62.2344ZM151.508 62.2344C150.523 62.2344 149.641 62.0781 148.859 61.7656C148.078 61.4453 147.414 61.0039 146.867 60.4414C146.328 59.8789 145.914 59.2266 145.625 58.4844C145.336 57.7344 145.191 56.9375 145.191 56.0938V55.625C145.191 54.6641 145.328 53.7852 145.602 52.9883C145.875 52.1914 146.266 51.5 146.773 50.9141C147.289 50.3281 147.914 49.8789 148.648 49.5664C149.383 49.2461 150.211 49.0859 151.133 49.0859C152.031 49.0859 152.828 49.2344 153.523 49.5312C154.219 49.8281 154.801 50.25 155.27 50.7969C155.746 51.3438 156.105 52 156.348 52.7656C156.59 53.5234 156.711 54.3672 156.711 55.2969V56.7031H146.633V54.4531H153.395V54.1953C153.395 53.7266 153.309 53.3086 153.137 52.9414C152.973 52.5664 152.723 52.2695 152.387 52.0508C152.051 51.832 151.621 51.7227 151.098 51.7227C150.652 51.7227 150.27 51.8203 149.949 52.0156C149.629 52.2109 149.367 52.4844 149.164 52.8359C148.969 53.1875 148.82 53.6016 148.719 54.0781C148.625 54.5469 148.578 55.0625 148.578 55.625V56.0938C148.578 56.6016 148.648 57.0703 148.789 57.5C148.938 57.9297 149.145 58.3008 149.41 58.6133C149.684 58.9258 150.012 59.168 150.395 59.3398C150.785 59.5117 151.227 59.5977 151.719 59.5977C152.328 59.5977 152.895 59.4805 153.418 59.2461C153.949 59.0039 154.406 58.6406 154.789 58.1562L156.43 59.9375C156.164 60.3203 155.801 60.6875 155.34 61.0391C154.887 61.3906 154.34 61.6797 153.699 61.9062C153.059 62.125 152.328 62.2344 151.508 62.2344ZM164.844 49.3203V51.7109H157.461V49.3203H164.844ZM159.289 46.1914H162.664V58.1797C162.664 58.5469 162.711 58.8281 162.805 59.0234C162.906 59.2188 163.055 59.3555 163.25 59.4336C163.445 59.5039 163.691 59.5391 163.988 59.5391C164.199 59.5391 164.387 59.5312 164.551 59.5156C164.723 59.4922 164.867 59.4688 164.984 59.4453L164.996 61.9297C164.707 62.0234 164.395 62.0977 164.059 62.1523C163.723 62.207 163.352 62.2344 162.945 62.2344C162.203 62.2344 161.555 62.1133 161 61.8711C160.453 61.6211 160.031 61.2227 159.734 60.6758C159.438 60.1289 159.289 59.4102 159.289 58.5195V46.1914ZM179.891 47.8555L175.25 62H171.512L177.852 44.9375H180.23L179.891 47.8555ZM183.746 62L179.094 47.8555L178.719 44.9375H181.121L187.496 62H183.746ZM183.535 55.6484V58.4023H174.523V55.6484H183.535ZM206.023 59.2578V62H197.434V59.2578H206.023ZM198.57 44.9375V62H195.055V44.9375H198.57ZM207.289 55.7891V55.543C207.289 54.6133 207.422 53.7578 207.688 52.9766C207.953 52.1875 208.34 51.5039 208.848 50.9258C209.355 50.3477 209.98 49.8984 210.723 49.5781C211.465 49.25 212.316 49.0859 213.277 49.0859C214.238 49.0859 215.094 49.25 215.844 49.5781C216.594 49.8984 217.223 50.3477 217.73 50.9258C218.246 51.5039 218.637 52.1875 218.902 52.9766C219.168 53.7578 219.301 54.6133 219.301 55.543V55.7891C219.301 56.7109 219.168 57.5664 218.902 58.3555C218.637 59.1367 218.246 59.8203 217.73 60.4062C217.223 60.9844 216.598 61.4336 215.855 61.7539C215.113 62.0742 214.262 62.2344 213.301 62.2344C212.34 62.2344 211.484 62.0742 210.734 61.7539C209.992 61.4336 209.363 60.9844 208.848 60.4062C208.34 59.8203 207.953 59.1367 207.688 58.3555C207.422 57.5664 207.289 56.7109 207.289 55.7891ZM210.664 55.543V55.7891C210.664 56.3203 210.711 56.8164 210.805 57.2773C210.898 57.7383 211.047 58.1445 211.25 58.4961C211.461 58.8398 211.734 59.1094 212.07 59.3047C212.406 59.5 212.816 59.5977 213.301 59.5977C213.77 59.5977 214.172 59.5 214.508 59.3047C214.844 59.1094 215.113 58.8398 215.316 58.4961C215.52 58.1445 215.668 57.7383 215.762 57.2773C215.863 56.8164 215.914 56.3203 215.914 55.7891V55.543C215.914 55.0273 215.863 54.543 215.762 54.0898C215.668 53.6289 215.516 53.2227 215.305 52.8711C215.102 52.5117 214.832 52.2305 214.496 52.0273C214.16 51.8242 213.754 51.7227 213.277 51.7227C212.801 51.7227 212.395 51.8242 212.059 52.0273C211.73 52.2305 211.461 52.5117 211.25 52.8711C211.047 53.2227 210.898 53.6289 210.805 54.0898C210.711 54.543 210.664 55.0273 210.664 55.543ZM226.613 59.5977C227.027 59.5977 227.395 59.5195 227.715 59.3633C228.035 59.1992 228.285 58.9727 228.465 58.6836C228.652 58.3867 228.75 58.0391 228.758 57.6406H231.934C231.926 58.5312 231.688 59.3242 231.219 60.0195C230.75 60.707 230.121 61.25 229.332 61.6484C228.543 62.0391 227.66 62.2344 226.684 62.2344C225.699 62.2344 224.84 62.0703 224.105 61.7422C223.379 61.4141 222.773 60.9609 222.289 60.3828C221.805 59.7969 221.441 59.1172 221.199 58.3438C220.957 57.5625 220.836 56.7266 220.836 55.8359V55.4961C220.836 54.5977 220.957 53.7617 221.199 52.9883C221.441 52.207 221.805 51.5273 222.289 50.9492C222.773 50.3633 223.379 49.9062 224.105 49.5781C224.832 49.25 225.684 49.0859 226.66 49.0859C227.699 49.0859 228.609 49.2852 229.391 49.6836C230.18 50.082 230.797 50.6523 231.242 51.3945C231.695 52.1289 231.926 53 231.934 54.0078H228.758C228.75 53.5859 228.66 53.2031 228.488 52.8594C228.324 52.5156 228.082 52.2422 227.762 52.0391C227.449 51.8281 227.062 51.7227 226.602 51.7227C226.109 51.7227 225.707 51.8281 225.395 52.0391C225.082 52.2422 224.84 52.5234 224.668 52.8828C224.496 53.2344 224.375 53.6367 224.305 54.0898C224.242 54.5352 224.211 55.0039 224.211 55.4961V55.8359C224.211 56.3281 224.242 56.8008 224.305 57.2539C224.367 57.707 224.484 58.1094 224.656 58.4609C224.836 58.8125 225.082 59.0898 225.395 59.293C225.707 59.4961 226.113 59.5977 226.613 59.5977ZM240.734 59.1406V53.4922C240.734 53.0859 240.668 52.7383 240.535 52.4492C240.402 52.1523 240.195 51.9219 239.914 51.7578C239.641 51.5938 239.285 51.5117 238.848 51.5117C238.473 51.5117 238.148 51.5781 237.875 51.7109C237.602 51.8359 237.391 52.0195 237.242 52.2617C237.094 52.4961 237.02 52.7734 237.02 53.0938H233.645C233.645 52.5547 233.77 52.043 234.02 51.5586C234.27 51.0742 234.633 50.6484 235.109 50.2812C235.586 49.9062 236.152 49.6133 236.809 49.4023C237.473 49.1914 238.215 49.0859 239.035 49.0859C240.02 49.0859 240.895 49.25 241.66 49.5781C242.426 49.9062 243.027 50.3984 243.465 51.0547C243.91 51.7109 244.133 52.5312 244.133 53.5156V58.9414C244.133 59.6367 244.176 60.207 244.262 60.6523C244.348 61.0898 244.473 61.4727 244.637 61.8008V62H241.227C241.062 61.6562 240.938 61.2266 240.852 60.7109C240.773 60.1875 240.734 59.6641 240.734 59.1406ZM241.18 54.2773L241.203 56.1875H239.316C238.871 56.1875 238.484 56.2383 238.156 56.3398C237.828 56.4414 237.559 56.5859 237.348 56.7734C237.137 56.9531 236.98 57.1641 236.879 57.4062C236.785 57.6484 236.738 57.9141 236.738 58.2031C236.738 58.4922 236.805 58.7539 236.938 58.9883C237.07 59.2148 237.262 59.3945 237.512 59.5273C237.762 59.6523 238.055 59.7148 238.391 59.7148C238.898 59.7148 239.34 59.6133 239.715 59.4102C240.09 59.207 240.379 58.957 240.582 58.6602C240.793 58.3633 240.902 58.082 240.91 57.8164L241.801 59.2461C241.676 59.5664 241.504 59.8984 241.285 60.2422C241.074 60.5859 240.805 60.9102 240.477 61.2148C240.148 61.5117 239.754 61.7578 239.293 61.9531C238.832 62.1406 238.285 62.2344 237.652 62.2344C236.848 62.2344 236.117 62.0742 235.461 61.7539C234.812 61.4258 234.297 60.9766 233.914 60.4062C233.539 59.8281 233.352 59.1719 233.352 58.4375C233.352 57.7734 233.477 57.1836 233.727 56.668C233.977 56.1523 234.344 55.7188 234.828 55.3672C235.32 55.0078 235.934 54.7383 236.668 54.5586C237.402 54.3711 238.254 54.2773 239.223 54.2773H241.18ZM250.297 44V62H246.91V44H250.297Z" fill="#888888"/>
<path d="M107.205 107.146H99.251V101.191H107.205C108.289 101.191 109.168 101.008 109.842 100.642C110.516 100.275 111.006 99.77 111.314 99.1255C111.636 98.4663 111.797 97.7266 111.797 96.9062C111.797 96.0273 111.636 95.2144 111.314 94.4673C111.006 93.7202 110.516 93.1196 109.842 92.6655C109.168 92.1968 108.289 91.9624 107.205 91.9624H102.151V118H94.439V86.0078H107.205C109.769 86.0078 111.973 86.4766 113.819 87.4141C115.679 88.3516 117.107 89.6406 118.104 91.2812C119.1 92.9072 119.598 94.7676 119.598 96.8623C119.598 98.9277 119.1 100.729 118.104 102.268C117.107 103.806 115.679 105.007 113.819 105.871C111.973 106.721 109.769 107.146 107.205 107.146ZM130.87 100.114V118H123.465V94.2256H130.386L130.87 100.114ZM137.901 94.0498L137.769 100.927C137.476 100.898 137.081 100.861 136.583 100.817C136.084 100.773 135.667 100.751 135.33 100.751C134.466 100.751 133.719 100.854 133.089 101.059C132.474 101.25 131.961 101.542 131.551 101.938C131.155 102.319 130.862 102.802 130.672 103.388C130.496 103.974 130.416 104.655 130.43 105.432L129.09 104.553C129.09 102.956 129.244 101.506 129.551 100.202C129.874 98.8838 130.328 97.7485 130.914 96.7964C131.5 95.8296 132.21 95.0898 133.045 94.5771C133.88 94.0498 134.817 93.7861 135.857 93.7861C136.224 93.7861 136.583 93.8081 136.934 93.8521C137.3 93.896 137.623 93.9619 137.901 94.0498ZM138.736 106.354V105.893C138.736 104.15 138.985 102.546 139.483 101.081C139.981 99.6016 140.713 98.3198 141.68 97.2358C142.647 96.1519 143.841 95.3096 145.262 94.709C146.683 94.0938 148.323 93.7861 150.184 93.7861C152.059 93.7861 153.707 94.0938 155.127 94.709C156.563 95.3096 157.764 96.1519 158.731 97.2358C159.698 98.3198 160.43 99.6016 160.928 101.081C161.426 102.546 161.675 104.15 161.675 105.893V106.354C161.675 108.083 161.426 109.687 160.928 111.167C160.43 112.631 159.698 113.913 158.731 115.012C157.764 116.096 156.57 116.938 155.149 117.539C153.729 118.139 152.088 118.439 150.228 118.439C148.367 118.439 146.719 118.139 145.284 117.539C143.848 116.938 142.647 116.096 141.68 115.012C140.713 113.913 139.981 112.631 139.483 111.167C138.985 109.687 138.736 108.083 138.736 106.354ZM146.141 105.893V106.354C146.141 107.248 146.207 108.083 146.338 108.859C146.47 109.636 146.69 110.317 146.998 110.903C147.305 111.474 147.723 111.921 148.25 112.243C148.777 112.565 149.437 112.727 150.228 112.727C151.004 112.727 151.648 112.565 152.161 112.243C152.688 111.921 153.106 111.474 153.414 110.903C153.721 110.317 153.941 109.636 154.073 108.859C154.205 108.083 154.271 107.248 154.271 106.354V105.893C154.271 105.029 154.205 104.216 154.073 103.454C153.941 102.678 153.721 101.997 153.414 101.411C153.106 100.81 152.688 100.341 152.161 100.004C151.634 99.6675 150.975 99.499 150.184 99.499C149.407 99.499 148.755 99.6675 148.228 100.004C147.715 100.341 147.305 100.81 146.998 101.411C146.69 101.997 146.47 102.678 146.338 103.454C146.207 104.216 146.141 105.029 146.141 105.893ZM165.521 94.2256H172.947V118.769C172.947 120.673 172.581 122.277 171.849 123.581C171.116 124.899 170.069 125.896 168.707 126.569C167.344 127.258 165.718 127.602 163.829 127.602C163.199 127.602 162.62 127.573 162.093 127.514C161.551 127.47 160.958 127.375 160.313 127.229V121.625C160.694 121.684 161.045 121.728 161.368 121.757C161.69 121.801 162.042 121.823 162.422 121.823C163.096 121.823 163.66 121.713 164.114 121.494C164.568 121.274 164.913 120.937 165.147 120.483C165.396 120.029 165.521 119.458 165.521 118.769V94.2256ZM164.971 88.0952C164.971 87.0405 165.352 86.1763 166.114 85.5024C166.875 84.8286 167.864 84.4917 169.08 84.4917C170.296 84.4917 171.285 84.8286 172.046 85.5024C172.808 86.1763 173.189 87.0405 173.189 88.0952C173.189 89.1499 172.808 90.0142 172.046 90.688C171.285 91.3618 170.296 91.6987 169.08 91.6987C167.864 91.6987 166.875 91.3618 166.114 90.688C165.352 90.0142 164.971 89.1499 164.971 88.0952ZM188.658 118.439C186.724 118.439 184.996 118.139 183.472 117.539C181.949 116.923 180.66 116.081 179.605 115.012C178.565 113.942 177.767 112.712 177.21 111.32C176.668 109.929 176.397 108.457 176.397 106.904V106.069C176.397 104.326 176.639 102.714 177.122 101.235C177.605 99.7407 178.323 98.437 179.275 97.3237C180.228 96.2104 181.421 95.3462 182.857 94.731C184.292 94.1011 185.962 93.7861 187.867 93.7861C189.551 93.7861 191.06 94.0571 192.393 94.5991C193.726 95.1411 194.854 95.9175 195.777 96.9282C196.714 97.939 197.425 99.1621 197.908 100.598C198.406 102.033 198.655 103.645 198.655 105.432V108.442H179.231V103.806H191.426V103.234C191.441 102.443 191.302 101.77 191.009 101.213C190.73 100.656 190.32 100.231 189.778 99.9385C189.236 99.6455 188.577 99.499 187.801 99.499C186.995 99.499 186.329 99.6748 185.801 100.026C185.289 100.378 184.886 100.861 184.593 101.477C184.314 102.077 184.117 102.773 184 103.564C183.882 104.355 183.824 105.19 183.824 106.069V106.904C183.824 107.783 183.941 108.581 184.175 109.299C184.424 110.017 184.776 110.632 185.23 111.145C185.699 111.643 186.255 112.031 186.9 112.309C187.559 112.587 188.306 112.727 189.141 112.727C190.152 112.727 191.148 112.536 192.129 112.155C193.111 111.774 193.953 111.145 194.656 110.266L198.018 114.265C197.535 114.953 196.846 115.62 195.953 116.264C195.074 116.909 194.019 117.436 192.789 117.846C191.558 118.242 190.181 118.439 188.658 118.439ZM211.707 112.727C212.396 112.727 212.981 112.602 213.465 112.353C213.963 112.089 214.336 111.723 214.585 111.254C214.849 110.771 214.974 110.192 214.959 109.519H221.924C221.939 111.306 221.5 112.873 220.606 114.221C219.727 115.554 218.526 116.594 217.002 117.341C215.494 118.073 213.787 118.439 211.883 118.439C210.022 118.439 208.396 118.139 207.005 117.539C205.613 116.923 204.449 116.074 203.511 114.99C202.588 113.891 201.893 112.609 201.424 111.145C200.97 109.68 200.743 108.09 200.743 106.376V105.871C200.743 104.157 200.97 102.568 201.424 101.103C201.893 99.6235 202.588 98.3418 203.511 97.2578C204.449 96.1592 205.606 95.3096 206.983 94.709C208.375 94.0938 209.993 93.7861 211.839 93.7861C213.816 93.7861 215.56 94.1597 217.068 94.9067C218.592 95.6538 219.786 96.7378 220.65 98.1587C221.514 99.5796 221.939 101.301 221.924 103.322H214.959C214.974 102.604 214.864 101.96 214.629 101.389C214.395 100.817 214.029 100.363 213.531 100.026C213.047 99.6748 212.425 99.499 211.663 99.499C210.901 99.499 210.286 99.6675 209.817 100.004C209.349 100.341 208.99 100.81 208.741 101.411C208.506 101.997 208.345 102.67 208.257 103.432C208.184 104.194 208.147 105.007 208.147 105.871V106.376C208.147 107.255 208.184 108.083 208.257 108.859C208.345 109.621 208.514 110.295 208.763 110.881C209.012 111.452 209.371 111.906 209.839 112.243C210.308 112.565 210.931 112.727 211.707 112.727ZM237.613 94.2256V99.3672H223.287V94.2256H237.613ZM226.297 88.3149H233.702V110.244C233.702 110.874 233.775 111.364 233.921 111.716C234.068 112.053 234.317 112.294 234.668 112.441C235.035 112.573 235.518 112.639 236.119 112.639C236.543 112.639 236.895 112.631 237.173 112.617C237.452 112.587 237.715 112.551 237.964 112.507V117.802C237.334 118.007 236.675 118.161 235.987 118.264C235.298 118.381 234.566 118.439 233.79 118.439C232.208 118.439 230.853 118.19 229.725 117.692C228.611 117.194 227.762 116.411 227.176 115.341C226.59 114.272 226.297 112.88 226.297 111.167V88.3149ZM264.881 107.146H256.927V101.191H264.881C265.965 101.191 266.844 101.008 267.518 100.642C268.191 100.275 268.682 99.77 268.99 99.1255C269.312 98.4663 269.473 97.7266 269.473 96.9062C269.473 96.0273 269.312 95.2144 268.99 94.4673C268.682 93.7202 268.191 93.1196 267.518 92.6655C266.844 92.1968 265.965 91.9624 264.881 91.9624H259.827V118H252.115V86.0078H264.881C267.444 86.0078 269.649 86.4766 271.495 87.4141C273.355 88.3516 274.783 89.6406 275.779 91.2812C276.775 92.9072 277.273 94.7676 277.273 96.8623C277.273 98.9277 276.775 100.729 275.779 102.268C274.783 103.806 273.355 105.007 271.495 105.871C269.649 106.721 267.444 107.146 264.881 107.146ZM288.326 84.25V118H280.921V84.25H288.326ZM287.447 105.3L285.711 105.344C285.711 103.674 285.916 102.136 286.326 100.729C286.736 99.3232 287.322 98.1001 288.084 97.0601C288.846 96.02 289.761 95.2144 290.831 94.6431C291.9 94.0718 293.086 93.7861 294.39 93.7861C295.562 93.7861 296.631 93.9546 297.598 94.2915C298.58 94.6284 299.422 95.1704 300.125 95.9175C300.843 96.6646 301.392 97.6387 301.773 98.8398C302.168 100.041 302.366 101.506 302.366 103.234V118H294.917V103.19C294.917 102.224 294.778 101.477 294.5 100.949C294.236 100.407 293.855 100.034 293.357 99.8286C292.859 99.6089 292.251 99.499 291.534 99.499C290.669 99.499 289.966 99.6455 289.424 99.9385C288.882 100.231 288.465 100.642 288.172 101.169C287.894 101.682 287.703 102.29 287.601 102.993C287.498 103.696 287.447 104.465 287.447 105.3ZM314.297 94.2256V118H306.871V94.2256H314.297ZM306.431 88.0952C306.431 87.0405 306.812 86.1763 307.574 85.5024C308.335 84.8286 309.324 84.4917 310.54 84.4917C311.756 84.4917 312.745 84.8286 313.506 85.5024C314.268 86.1763 314.649 87.0405 314.649 88.0952C314.649 89.1499 314.268 90.0142 313.506 90.688C312.745 91.3618 311.756 91.6987 310.54 91.6987C309.324 91.6987 308.335 91.3618 307.574 90.688C306.812 90.0142 306.431 89.1499 306.431 88.0952ZM326.69 84.25V118H319.263V84.25H326.69ZM330.337 106.354V105.893C330.337 104.15 330.586 102.546 331.084 101.081C331.583 99.6016 332.315 98.3198 333.282 97.2358C334.249 96.1519 335.442 95.3096 336.863 94.709C338.284 94.0938 339.925 93.7861 341.785 93.7861C343.66 93.7861 345.308 94.0938 346.729 94.709C348.165 95.3096 349.366 96.1519 350.333 97.2358C351.299 98.3198 352.032 99.6016 352.53 101.081C353.028 102.546 353.277 104.15 353.277 105.893V106.354C353.277 108.083 353.028 109.687 352.53 111.167C352.032 112.631 351.299 113.913 350.333 115.012C349.366 116.096 348.172 116.938 346.751 117.539C345.33 118.139 343.689 118.439 341.829 118.439C339.969 118.439 338.321 118.139 336.885 117.539C335.45 116.938 334.249 116.096 333.282 115.012C332.315 113.913 331.583 112.631 331.084 111.167C330.586 109.687 330.337 108.083 330.337 106.354ZM337.742 105.893V106.354C337.742 107.248 337.808 108.083 337.94 108.859C338.072 109.636 338.292 110.317 338.599 110.903C338.907 111.474 339.324 111.921 339.852 112.243C340.379 112.565 341.038 112.727 341.829 112.727C342.605 112.727 343.25 112.565 343.763 112.243C344.29 111.921 344.708 111.474 345.015 110.903C345.323 110.317 345.542 109.636 345.674 108.859C345.806 108.083 345.872 107.248 345.872 106.354V105.893C345.872 105.029 345.806 104.216 345.674 103.454C345.542 102.678 345.323 101.997 345.015 101.411C344.708 100.81 344.29 100.341 343.763 100.004C343.235 99.6675 342.576 99.499 341.785 99.499C341.009 99.499 340.357 99.6675 339.83 100.004C339.317 100.341 338.907 100.81 338.599 101.411C338.292 101.997 338.072 102.678 337.94 103.454C337.808 104.216 337.742 105.029 337.742 105.893ZM369.031 111.32C369.031 110.91 368.892 110.559 368.614 110.266C368.35 109.958 367.881 109.68 367.208 109.431C366.534 109.167 365.589 108.903 364.373 108.64C363.216 108.391 362.125 108.061 361.099 107.651C360.088 107.241 359.202 106.743 358.44 106.157C357.679 105.571 357.078 104.875 356.639 104.069C356.214 103.264 356.001 102.341 356.001 101.301C356.001 100.29 356.214 99.3379 356.639 98.4443C357.078 97.5361 357.715 96.7378 358.55 96.0493C359.4 95.3462 360.433 94.7969 361.648 94.4014C362.864 93.9912 364.249 93.7861 365.801 93.7861C367.94 93.7861 369.786 94.1157 371.338 94.7749C372.891 95.4194 374.085 96.3276 374.92 97.4995C375.77 98.6567 376.194 99.9971 376.194 101.521H368.79C368.79 100.92 368.687 100.407 368.482 99.9824C368.292 99.5576 367.977 99.2354 367.537 99.0156C367.098 98.7812 366.512 98.6641 365.779 98.6641C365.267 98.6641 364.798 98.7593 364.373 98.9497C363.963 99.1401 363.633 99.4038 363.384 99.7407C363.135 100.078 363.011 100.473 363.011 100.927C363.011 101.25 363.084 101.542 363.23 101.806C363.392 102.055 363.633 102.29 363.956 102.509C364.278 102.714 364.688 102.905 365.186 103.081C365.684 103.242 366.285 103.388 366.988 103.52C368.584 103.813 370.079 104.23 371.47 104.772C372.862 105.314 373.99 106.083 374.854 107.08C375.733 108.076 376.172 109.416 376.172 111.101C376.172 112.155 375.931 113.129 375.447 114.023C374.964 114.902 374.268 115.678 373.36 116.352C372.452 117.011 371.36 117.524 370.086 117.89C368.812 118.256 367.376 118.439 365.779 118.439C363.509 118.439 361.59 118.037 360.022 117.231C358.455 116.411 357.269 115.385 356.463 114.155C355.672 112.91 355.276 111.65 355.276 110.375H362.176C362.205 111.108 362.381 111.708 362.703 112.177C363.04 112.646 363.487 112.99 364.043 113.21C364.6 113.43 365.245 113.54 365.977 113.54C366.651 113.54 367.208 113.444 367.647 113.254C368.101 113.063 368.445 112.807 368.68 112.485C368.914 112.148 369.031 111.76 369.031 111.32ZM378.721 106.354V105.893C378.721 104.15 378.97 102.546 379.468 101.081C379.966 99.6016 380.699 98.3198 381.666 97.2358C382.632 96.1519 383.826 95.3096 385.247 94.709C386.668 94.0938 388.309 93.7861 390.169 93.7861C392.044 93.7861 393.692 94.0938 395.113 94.709C396.548 95.3096 397.75 96.1519 398.716 97.2358C399.683 98.3198 400.416 99.6016 400.914 101.081C401.412 102.546 401.661 104.15 401.661 105.893V106.354C401.661 108.083 401.412 109.687 400.914 111.167C400.416 112.631 399.683 113.913 398.716 115.012C397.75 116.096 396.556 116.938 395.135 117.539C393.714 118.139 392.073 118.439 390.213 118.439C388.353 118.439 386.705 118.139 385.269 117.539C383.833 116.938 382.632 116.096 381.666 115.012C380.699 113.913 379.966 112.631 379.468 111.167C378.97 109.687 378.721 108.083 378.721 106.354ZM386.126 105.893V106.354C386.126 107.248 386.192 108.083 386.324 108.859C386.456 109.636 386.675 110.317 386.983 110.903C387.291 111.474 387.708 111.921 388.235 112.243C388.763 112.565 389.422 112.727 390.213 112.727C390.989 112.727 391.634 112.565 392.146 112.243C392.674 111.921 393.091 111.474 393.399 110.903C393.707 110.317 393.926 109.636 394.058 108.859C394.19 108.083 394.256 107.248 394.256 106.354V105.893C394.256 105.029 394.19 104.216 394.058 103.454C393.926 102.678 393.707 101.997 393.399 101.411C393.091 100.81 392.674 100.341 392.146 100.004C391.619 99.6675 390.96 99.499 390.169 99.499C389.393 99.499 388.741 99.6675 388.213 100.004C387.701 100.341 387.291 100.81 386.983 101.411C386.675 101.997 386.456 102.678 386.324 103.454C386.192 104.216 386.126 105.029 386.126 105.893ZM412.427 98.7959V127.141H405.022V94.2256H411.922L412.427 98.7959ZM427.017 105.827V106.289C427.017 108.017 426.819 109.621 426.424 111.101C426.028 112.58 425.442 113.869 424.666 114.968C423.89 116.066 422.923 116.923 421.766 117.539C420.623 118.139 419.297 118.439 417.789 118.439C416.368 118.439 415.145 118.125 414.119 117.495C413.094 116.865 412.237 115.993 411.548 114.88C410.86 113.767 410.303 112.492 409.878 111.057C409.454 109.621 409.117 108.105 408.868 106.508V105.915C409.117 104.201 409.454 102.612 409.878 101.147C410.303 99.6675 410.86 98.3784 411.548 97.2798C412.237 96.1812 413.086 95.3242 414.097 94.709C415.123 94.0938 416.346 93.7861 417.767 93.7861C419.275 93.7861 420.601 94.0718 421.744 94.6431C422.901 95.2144 423.868 96.0347 424.644 97.104C425.435 98.1587 426.028 99.4258 426.424 100.905C426.819 102.385 427.017 104.025 427.017 105.827ZM419.612 106.289V105.827C419.612 104.904 419.546 104.062 419.415 103.3C419.283 102.524 419.07 101.85 418.777 101.279C418.499 100.708 418.125 100.268 417.657 99.9604C417.188 99.6528 416.609 99.499 415.921 99.499C415.13 99.499 414.463 99.6235 413.921 99.8726C413.394 100.107 412.969 100.473 412.647 100.971C412.339 101.455 412.12 102.062 411.988 102.795C411.871 103.513 411.819 104.355 411.834 105.322V107.124C411.805 108.237 411.915 109.218 412.164 110.068C412.413 110.903 412.845 111.555 413.46 112.023C414.075 112.492 414.91 112.727 415.965 112.727C416.668 112.727 417.254 112.565 417.723 112.243C418.191 111.906 418.565 111.445 418.843 110.859C419.122 110.258 419.319 109.57 419.437 108.793C419.554 108.017 419.612 107.182 419.612 106.289ZM437.564 84.25V118H430.159V84.25H437.564ZM436.685 105.3L434.949 105.344C434.949 103.674 435.154 102.136 435.564 100.729C435.975 99.3232 436.561 98.1001 437.322 97.0601C438.084 96.02 439 95.2144 440.069 94.6431C441.138 94.0718 442.325 93.7861 443.628 93.7861C444.8 93.7861 445.87 93.9546 446.836 94.2915C447.818 94.6284 448.66 95.1704 449.363 95.9175C450.081 96.6646 450.63 97.6387 451.011 98.8398C451.407 100.041 451.604 101.506 451.604 103.234V118H444.156V103.19C444.156 102.224 444.017 101.477 443.738 100.949C443.475 100.407 443.094 100.034 442.596 99.8286C442.098 99.6089 441.49 99.499 440.772 99.499C439.908 99.499 439.205 99.6455 438.663 99.9385C438.121 100.231 437.703 100.642 437.41 101.169C437.132 101.682 436.941 102.29 436.839 102.993C436.736 103.696 436.685 104.465 436.685 105.3ZM463.008 115.209L469.161 94.2256H477.115L467.557 121.538C467.352 122.138 467.081 122.783 466.744 123.471C466.407 124.174 465.945 124.841 465.359 125.471C464.773 126.101 464.019 126.613 463.096 127.009C462.188 127.404 461.06 127.602 459.712 127.602C458.995 127.602 458.467 127.565 458.13 127.492C457.808 127.434 457.31 127.324 456.636 127.163V121.867C456.827 121.867 456.988 121.867 457.12 121.867C457.266 121.867 457.427 121.867 457.603 121.867C458.394 121.867 459.024 121.787 459.493 121.625C459.976 121.464 460.342 121.23 460.591 120.922C460.855 120.615 461.06 120.241 461.207 119.802L463.008 115.209ZM461.448 94.2256L466.128 110.859L466.941 118.703H461.976L453.516 94.2256H461.448Z" fill="#424241"/>
<path d="M1363 15C1363 6.71573 1356.28 0 1348 0H1134V167H1348C1356.28 167 1363 160.284 1363 152V15Z" fill="#8C57BA" fill-opacity="0.54"/>
<path d="M1234.26 106.286H1262.74V111.857H1234.26V106.286ZM1239.96 117.429H1257.04V123H1239.96V117.429ZM1248.5 45C1240.95 45 1233.71 47.9349 1228.37 53.1592C1223.03 58.3834 1220.03 65.469 1220.03 72.8571C1219.84 76.9057 1220.63 80.9412 1222.34 84.6315C1224.05 88.3219 1226.64 91.5616 1229.88 94.0843C1232.73 96.675 1234.26 98.1514 1234.26 100.714H1239.96C1239.96 95.5886 1236.8 92.7193 1233.72 89.9614C1231.06 87.9676 1228.94 85.3658 1227.55 82.3838C1226.15 79.4019 1225.53 76.1308 1225.72 72.8571C1225.72 66.9466 1228.12 61.2781 1232.39 57.0988C1236.67 52.9194 1242.46 50.5714 1248.5 50.5714C1254.54 50.5714 1260.33 52.9194 1264.61 57.0988C1268.88 61.2781 1271.28 66.9466 1271.28 72.8571C1271.47 76.1333 1270.84 79.4059 1269.44 82.388C1268.04 85.3701 1265.92 87.9706 1263.25 89.9614C1260.2 92.7471 1257.04 95.5329 1257.04 100.714H1262.74C1262.74 98.1514 1264.25 96.675 1267.12 94.0564C1270.36 91.5381 1272.94 88.3031 1274.66 84.6176C1276.37 80.9321 1277.16 76.9014 1276.97 72.8571C1276.97 69.1989 1276.24 65.5765 1274.81 62.1967C1273.37 58.8169 1271.28 55.7459 1268.63 53.1592C1265.99 50.5724 1262.85 48.5205 1259.4 47.1205C1255.94 45.7205 1252.24 45 1248.5 45Z" fill="white"/>
</svg>
