<svg width="1363" height="301" viewBox="0 0 1363 301" fill="none" xmlns="http://www.w3.org/2000/svg">
<rect width="1363" height="301" rx="15" fill="#F0F0F0"/>
<path d="M0 15C0 6.71573 6.71573 0 15 0H37V301H15C6.71573 301 0 294.284 0 286V15Z" fill="#8C57BA" fill-opacity="0.54"/>
<path d="M99.6538 104.898H107.334L116.062 132.103L124.791 104.898H132.471L119.178 144H112.947L99.6538 104.898ZM94.981 104.898H102.93L104.407 134.869V144H94.981V104.898ZM129.195 104.898H137.171V144H127.718V134.869L129.195 104.898ZM156.856 144.537C154.493 144.537 152.38 144.17 150.518 143.436C148.656 142.684 147.081 141.655 145.792 140.348C144.52 139.041 143.545 137.537 142.864 135.836C142.202 134.135 141.871 132.336 141.871 130.438V129.417C141.871 127.287 142.166 125.318 142.757 123.509C143.348 121.683 144.225 120.09 145.389 118.729C146.552 117.368 148.012 116.312 149.766 115.56C151.521 114.79 153.562 114.405 155.889 114.405C157.948 114.405 159.792 114.736 161.421 115.399C163.051 116.061 164.429 117.01 165.557 118.246C166.703 119.481 167.571 120.976 168.162 122.73C168.771 124.485 169.075 126.454 169.075 128.639V132.318H145.335V126.651H160.24V125.953C160.258 124.986 160.088 124.163 159.729 123.482C159.389 122.802 158.888 122.283 158.226 121.925C157.563 121.567 156.757 121.388 155.809 121.388C154.824 121.388 154.009 121.603 153.365 122.032C152.738 122.462 152.246 123.053 151.888 123.805C151.548 124.539 151.306 125.389 151.163 126.356C151.019 127.323 150.948 128.343 150.948 129.417V130.438C150.948 131.512 151.091 132.488 151.377 133.365C151.682 134.243 152.111 134.994 152.667 135.621C153.239 136.23 153.92 136.704 154.708 137.044C155.513 137.385 156.426 137.555 157.447 137.555C158.682 137.555 159.9 137.322 161.099 136.856C162.299 136.391 163.328 135.621 164.188 134.547L168.296 139.435C167.706 140.276 166.864 141.091 165.772 141.878C164.698 142.666 163.409 143.311 161.905 143.812C160.401 144.295 158.718 144.537 156.856 144.537ZM186.827 144.537C184.463 144.537 182.351 144.17 180.489 143.436C178.627 142.684 177.051 141.655 175.762 140.348C174.491 139.041 173.515 137.537 172.835 135.836C172.173 134.135 171.841 132.336 171.841 130.438V129.417C171.841 127.287 172.137 125.318 172.728 123.509C173.318 121.683 174.196 120.09 175.359 118.729C176.523 117.368 177.982 116.312 179.737 115.56C181.491 114.79 183.532 114.405 185.86 114.405C187.919 114.405 189.763 114.736 191.392 115.399C193.021 116.061 194.4 117.01 195.528 118.246C196.674 119.481 197.542 120.976 198.133 122.73C198.742 124.485 199.046 126.454 199.046 128.639V132.318H175.306V126.651H190.21V125.953C190.228 124.986 190.058 124.163 189.7 123.482C189.36 122.802 188.859 122.283 188.196 121.925C187.534 121.567 186.728 121.388 185.779 121.388C184.795 121.388 183.98 121.603 183.335 122.032C182.709 122.462 182.216 123.053 181.858 123.805C181.518 124.539 181.277 125.389 181.133 126.356C180.99 127.323 180.918 128.343 180.918 129.417V130.438C180.918 131.512 181.062 132.488 181.348 133.365C181.653 134.243 182.082 134.994 182.637 135.621C183.21 136.23 183.89 136.704 184.678 137.044C185.484 137.385 186.397 137.555 187.417 137.555C188.653 137.555 189.87 137.322 191.07 136.856C192.269 136.391 193.299 135.621 194.158 134.547L198.267 139.435C197.676 140.276 196.835 141.091 195.743 141.878C194.668 142.666 193.379 143.311 191.875 143.812C190.372 144.295 188.689 144.537 186.827 144.537ZM218.033 114.942V121.227H200.523V114.942H218.033ZM204.202 107.718H213.252V134.52C213.252 135.29 213.342 135.89 213.521 136.319C213.7 136.731 214.004 137.027 214.434 137.206C214.882 137.367 215.472 137.447 216.207 137.447C216.726 137.447 217.155 137.438 217.496 137.42C217.836 137.385 218.158 137.34 218.462 137.286V143.758C217.693 144.009 216.887 144.197 216.045 144.322C215.204 144.465 214.309 144.537 213.36 144.537C211.426 144.537 209.77 144.233 208.392 143.624C207.031 143.015 205.993 142.057 205.276 140.75C204.56 139.444 204.202 137.743 204.202 135.648V107.718ZM252.327 113.116L242.793 144H232.669L247.037 104.898H253.455L252.327 113.116ZM260.223 144L250.662 113.116L249.427 104.898H255.926L270.374 144H260.223ZM259.847 129.417V136.695H239.786V129.417H259.847ZM312.779 136.749V144H293.013V136.749H312.779ZM296.37 104.898V144H286.944V104.898H296.37ZM315.196 129.767V129.203C315.196 127.072 315.5 125.112 316.109 123.321C316.718 121.513 317.613 119.946 318.794 118.622C319.976 117.297 321.435 116.267 323.172 115.533C324.909 114.781 326.914 114.405 329.188 114.405C331.479 114.405 333.493 114.781 335.23 115.533C336.985 116.267 338.453 117.297 339.634 118.622C340.816 119.946 341.711 121.513 342.32 123.321C342.929 125.112 343.233 127.072 343.233 129.203V129.767C343.233 131.879 342.929 133.84 342.32 135.648C341.711 137.438 340.816 139.005 339.634 140.348C338.453 141.673 336.993 142.702 335.257 143.436C333.52 144.17 331.515 144.537 329.241 144.537C326.967 144.537 324.953 144.17 323.199 143.436C321.444 142.702 319.976 141.673 318.794 140.348C317.613 139.005 316.718 137.438 316.109 135.648C315.5 133.84 315.196 131.879 315.196 129.767ZM324.246 129.203V129.767C324.246 130.859 324.327 131.879 324.488 132.828C324.649 133.777 324.917 134.61 325.293 135.326C325.669 136.024 326.18 136.57 326.824 136.964C327.469 137.358 328.274 137.555 329.241 137.555C330.19 137.555 330.978 137.358 331.604 136.964C332.249 136.57 332.759 136.024 333.135 135.326C333.511 134.61 333.78 133.777 333.941 132.828C334.102 131.879 334.183 130.859 334.183 129.767V129.203C334.183 128.146 334.102 127.153 333.941 126.222C333.78 125.273 333.511 124.44 333.135 123.724C332.759 122.99 332.249 122.417 331.604 122.005C330.96 121.594 330.154 121.388 329.188 121.388C328.239 121.388 327.442 121.594 326.797 122.005C326.171 122.417 325.669 122.99 325.293 123.724C324.917 124.44 324.649 125.273 324.488 126.222C324.327 127.153 324.246 128.146 324.246 129.203ZM359.534 137.555C360.376 137.555 361.092 137.403 361.683 137.098C362.291 136.776 362.748 136.328 363.052 135.755C363.375 135.165 363.527 134.457 363.509 133.634H372.022C372.04 135.818 371.503 137.734 370.411 139.381C369.336 141.01 367.868 142.281 366.006 143.194C364.162 144.09 362.076 144.537 359.749 144.537C357.475 144.537 355.488 144.17 353.787 143.436C352.086 142.684 350.663 141.646 349.517 140.321C348.389 138.978 347.539 137.411 346.966 135.621C346.411 133.831 346.133 131.888 346.133 129.793V129.176C346.133 127.081 346.411 125.139 346.966 123.348C347.539 121.54 348.389 119.973 349.517 118.648C350.663 117.306 352.077 116.267 353.76 115.533C355.461 114.781 357.439 114.405 359.695 114.405C362.112 114.405 364.243 114.862 366.087 115.775C367.949 116.688 369.408 118.013 370.464 119.75C371.521 121.486 372.04 123.59 372.022 126.061H363.509C363.527 125.183 363.392 124.396 363.106 123.697C362.819 122.999 362.372 122.444 361.763 122.032C361.172 121.603 360.411 121.388 359.48 121.388C358.549 121.388 357.798 121.594 357.225 122.005C356.652 122.417 356.213 122.99 355.909 123.724C355.622 124.44 355.425 125.264 355.318 126.195C355.228 127.126 355.184 128.119 355.184 129.176V129.793C355.184 130.868 355.228 131.879 355.318 132.828C355.425 133.759 355.631 134.583 355.936 135.299C356.24 135.997 356.679 136.552 357.251 136.964C357.824 137.358 358.585 137.555 359.534 137.555ZM390.982 136.695V124.718C390.982 123.894 390.866 123.187 390.633 122.596C390.4 122.005 390.033 121.549 389.532 121.227C389.03 120.886 388.359 120.716 387.518 120.716C386.837 120.716 386.255 120.833 385.772 121.065C385.289 121.298 384.922 121.647 384.671 122.113C384.42 122.578 384.295 123.169 384.295 123.885H375.245C375.245 122.542 375.54 121.298 376.131 120.152C376.74 118.989 377.599 117.977 378.709 117.118C379.837 116.258 381.18 115.596 382.737 115.13C384.313 114.647 386.067 114.405 388.001 114.405C390.311 114.405 392.369 114.79 394.178 115.56C396.004 116.33 397.445 117.485 398.501 119.024C399.558 120.546 400.086 122.462 400.086 124.771V136.668C400.086 138.566 400.193 140.007 400.408 140.992C400.623 141.959 400.927 142.809 401.321 143.543V144H392.244C391.814 143.105 391.492 142.013 391.277 140.724C391.08 139.417 390.982 138.074 390.982 136.695ZM392.083 126.249L392.137 131.083H388.135C387.294 131.083 386.578 131.199 385.987 131.432C385.414 131.664 384.948 131.987 384.59 132.398C384.25 132.792 384 133.24 383.838 133.741C383.695 134.243 383.624 134.771 383.624 135.326C383.624 135.863 383.749 136.346 384 136.776C384.268 137.188 384.626 137.51 385.074 137.743C385.521 137.975 386.023 138.092 386.578 138.092C387.58 138.092 388.431 137.904 389.129 137.528C389.845 137.134 390.391 136.66 390.767 136.104C391.143 135.549 391.331 135.03 391.331 134.547L393.318 138.253C392.96 138.969 392.549 139.694 392.083 140.428C391.635 141.162 391.071 141.843 390.391 142.469C389.729 143.078 388.914 143.579 387.947 143.973C386.98 144.349 385.808 144.537 384.429 144.537C382.639 144.537 380.992 144.17 379.488 143.436C378.002 142.702 376.811 141.681 375.916 140.375C375.021 139.05 374.573 137.528 374.573 135.809C374.573 134.305 374.842 132.962 375.379 131.781C375.934 130.599 376.766 129.597 377.876 128.773C378.986 127.949 380.401 127.323 382.12 126.893C383.838 126.463 385.861 126.249 388.189 126.249H392.083ZM414.668 102.75V144H405.591V102.75H414.668Z" fill="black"/>
<path d="M114.473 55.1172V80H109.346L99.3486 63.3203V80H94.2217V55.1172H99.3486L109.363 71.814V55.1172H114.473ZM117.84 70.9424V70.5835C117.84 69.2277 118.034 67.9801 118.421 66.8408C118.808 65.6901 119.372 64.6932 120.113 63.8501C120.853 63.007 121.765 62.3519 122.847 61.8848C123.93 61.4062 125.171 61.167 126.573 61.167C127.974 61.167 129.222 61.4062 130.315 61.8848C131.409 62.3519 132.326 63.007 133.067 63.8501C133.819 64.6932 134.389 65.6901 134.776 66.8408C135.163 67.9801 135.357 69.2277 135.357 70.5835V70.9424C135.357 72.2868 135.163 73.5343 134.776 74.6851C134.389 75.8244 133.819 76.8213 133.067 77.6758C132.326 78.5189 131.415 79.174 130.333 79.6411C129.25 80.1082 128.008 80.3418 126.607 80.3418C125.206 80.3418 123.958 80.1082 122.864 79.6411C121.782 79.174 120.865 78.5189 120.113 77.6758C119.372 76.8213 118.808 75.8244 118.421 74.6851C118.034 73.5343 117.84 72.2868 117.84 70.9424ZM122.762 70.5835V70.9424C122.762 71.7171 122.83 72.4406 122.967 73.1128C123.104 73.785 123.32 74.3774 123.616 74.8901C123.924 75.3914 124.323 75.7845 124.812 76.0693C125.302 76.3542 125.901 76.4966 126.607 76.4966C127.291 76.4966 127.877 76.3542 128.367 76.0693C128.857 75.7845 129.25 75.3914 129.546 74.8901C129.843 74.3774 130.059 73.785 130.196 73.1128C130.344 72.4406 130.418 71.7171 130.418 70.9424V70.5835C130.418 69.8315 130.344 69.1252 130.196 68.4644C130.059 67.7922 129.837 67.1997 129.529 66.687C129.233 66.1629 128.84 65.7528 128.35 65.4565C127.86 65.1603 127.268 65.0122 126.573 65.0122C125.878 65.0122 125.285 65.1603 124.795 65.4565C124.317 65.7528 123.924 66.1629 123.616 66.687C123.32 67.1997 123.104 67.7922 122.967 68.4644C122.83 69.1252 122.762 69.8315 122.762 70.5835ZM149.319 75.5737V61.5088H154.241V80H149.61L149.319 75.5737ZM149.866 71.7798L151.319 71.7456C151.319 72.9761 151.176 74.1211 150.892 75.1807C150.607 76.2288 150.18 77.1403 149.61 77.915C149.04 78.6784 148.322 79.2765 147.457 79.7095C146.591 80.131 145.571 80.3418 144.397 80.3418C143.497 80.3418 142.666 80.2165 141.902 79.9658C141.15 79.7038 140.501 79.2993 139.954 78.7524C139.419 78.1942 138.997 77.4821 138.689 76.6162C138.393 75.7389 138.245 74.6851 138.245 73.4546V61.5088H143.167V73.4888C143.167 74.0356 143.23 74.4971 143.355 74.873C143.492 75.249 143.68 75.5566 143.919 75.7959C144.158 76.0352 144.437 76.2061 144.756 76.3086C145.087 76.4111 145.451 76.4624 145.85 76.4624C146.864 76.4624 147.662 76.2573 148.243 75.8472C148.835 75.437 149.251 74.8787 149.49 74.1724C149.741 73.4546 149.866 72.6571 149.866 71.7798ZM162.923 65.542V80H158.001V61.5088H162.632L162.923 65.542ZM168.494 61.3892L168.409 65.9521C168.169 65.918 167.879 65.8895 167.537 65.8667C167.207 65.8325 166.905 65.8154 166.631 65.8154C165.936 65.8154 165.333 65.9066 164.82 66.0889C164.319 66.2598 163.897 66.5161 163.555 66.8579C163.225 67.1997 162.974 67.6156 162.803 68.1055C162.644 68.5954 162.553 69.1536 162.53 69.7803L161.539 69.4727C161.539 68.2764 161.658 67.1769 161.897 66.1743C162.137 65.1603 162.484 64.2773 162.94 63.5254C163.407 62.7734 163.977 62.1924 164.649 61.7822C165.321 61.3721 166.09 61.167 166.956 61.167C167.229 61.167 167.509 61.1898 167.793 61.2354C168.078 61.2695 168.312 61.3208 168.494 61.3892ZM182.183 55.1172H186.524L192.916 73.3862L199.307 55.1172H203.648L194.659 80H191.172L182.183 55.1172ZM179.842 55.1172H184.166L184.952 72.9248V80H179.842V55.1172ZM201.666 55.1172H206.006V80H200.879V72.9248L201.666 55.1172ZM218.704 80.3418C217.269 80.3418 215.981 80.1139 214.842 79.6582C213.702 79.1911 212.734 78.5474 211.937 77.7271C211.15 76.9067 210.547 75.9554 210.125 74.873C209.703 73.7793 209.493 72.6172 209.493 71.3867V70.7031C209.493 69.3018 209.692 68.02 210.091 66.8579C210.49 65.6958 211.059 64.6875 211.8 63.833C212.552 62.9785 213.463 62.3234 214.534 61.8677C215.605 61.4006 216.813 61.167 218.157 61.167C219.467 61.167 220.63 61.3835 221.644 61.8164C222.658 62.2493 223.506 62.8646 224.19 63.6621C224.885 64.4596 225.409 65.4167 225.762 66.5332C226.115 67.6383 226.292 68.8688 226.292 70.2246V72.2754H211.595V68.9941H221.456V68.6182C221.456 67.9346 221.33 67.325 221.08 66.7896C220.84 66.2427 220.476 65.8097 219.986 65.4907C219.496 65.1717 218.869 65.0122 218.106 65.0122C217.457 65.0122 216.898 65.1546 216.431 65.4395C215.964 65.7243 215.582 66.123 215.286 66.6357C215.001 67.1484 214.785 67.7523 214.637 68.4473C214.5 69.1309 214.432 69.8828 214.432 70.7031V71.3867C214.432 72.1273 214.534 72.8109 214.739 73.4375C214.956 74.0641 215.258 74.6053 215.645 75.061C216.044 75.5168 216.522 75.87 217.081 76.1206C217.65 76.3713 218.294 76.4966 219.012 76.4966C219.9 76.4966 220.726 76.3257 221.49 75.9839C222.264 75.6307 222.931 75.1009 223.489 74.3945L225.882 76.9922C225.494 77.5505 224.965 78.0859 224.292 78.5986C223.632 79.1113 222.834 79.5329 221.9 79.8633C220.966 80.1823 219.9 80.3418 218.704 80.3418ZM239.092 74.8901C239.092 74.5369 238.99 74.2179 238.785 73.9331C238.58 73.6483 238.198 73.3862 237.64 73.147C237.093 72.8963 236.301 72.6685 235.264 72.4634C234.33 72.2583 233.458 72.002 232.649 71.6943C231.852 71.3753 231.157 70.9937 230.564 70.5493C229.983 70.105 229.528 69.5809 229.197 68.9771C228.867 68.3618 228.702 67.6611 228.702 66.875C228.702 66.1003 228.867 65.3711 229.197 64.6875C229.539 64.0039 230.023 63.4001 230.65 62.876C231.288 62.3405 232.063 61.9246 232.974 61.6284C233.897 61.3208 234.934 61.167 236.084 61.167C237.691 61.167 239.069 61.4233 240.22 61.936C241.382 62.4487 242.271 63.1551 242.886 64.0552C243.513 64.9438 243.826 65.9578 243.826 67.0972H238.904C238.904 66.6187 238.802 66.1914 238.597 65.8154C238.403 65.4281 238.095 65.1261 237.674 64.9097C237.264 64.6818 236.728 64.5679 236.067 64.5679C235.521 64.5679 235.048 64.6647 234.649 64.8584C234.25 65.0407 233.943 65.2913 233.726 65.6104C233.521 65.918 233.418 66.2598 233.418 66.6357C233.418 66.9206 233.475 67.1769 233.589 67.4048C233.715 67.6213 233.914 67.8206 234.188 68.0029C234.461 68.1852 234.814 68.3561 235.247 68.5156C235.691 68.6637 236.238 68.8005 236.888 68.9258C238.221 69.1992 239.411 69.5581 240.459 70.0024C241.508 70.4354 242.339 71.0278 242.955 71.7798C243.57 72.5203 243.877 73.4945 243.877 74.7021C243.877 75.5225 243.695 76.2744 243.331 76.958C242.966 77.6416 242.442 78.2397 241.758 78.7524C241.075 79.2537 240.254 79.6468 239.297 79.9316C238.352 80.2051 237.286 80.3418 236.102 80.3418C234.381 80.3418 232.923 80.0342 231.727 79.4189C230.542 78.8037 229.642 78.0233 229.026 77.0776C228.423 76.1206 228.121 75.1408 228.121 74.1382H232.786C232.809 74.8104 232.98 75.3516 233.299 75.7617C233.629 76.1719 234.045 76.4681 234.546 76.6504C235.059 76.8327 235.612 76.9238 236.204 76.9238C236.842 76.9238 237.372 76.8384 237.793 76.6675C238.215 76.4852 238.534 76.2459 238.75 75.9497C238.978 75.6421 239.092 75.2889 239.092 74.8901ZM257.071 74.8901C257.071 74.5369 256.968 74.2179 256.763 73.9331C256.558 73.6483 256.176 73.3862 255.618 73.147C255.071 72.8963 254.279 72.6685 253.243 72.4634C252.308 72.2583 251.437 72.002 250.628 71.6943C249.83 71.3753 249.135 70.9937 248.543 70.5493C247.962 70.105 247.506 69.5809 247.176 68.9771C246.845 68.3618 246.68 67.6611 246.68 66.875C246.68 66.1003 246.845 65.3711 247.176 64.6875C247.518 64.0039 248.002 63.4001 248.628 62.876C249.266 62.3405 250.041 61.9246 250.953 61.6284C251.875 61.3208 252.912 61.167 254.063 61.167C255.669 61.167 257.048 61.4233 258.199 61.936C259.361 62.4487 260.25 63.1551 260.865 64.0552C261.491 64.9438 261.805 65.9578 261.805 67.0972H256.883C256.883 66.6187 256.78 66.1914 256.575 65.8154C256.382 65.4281 256.074 65.1261 255.652 64.9097C255.242 64.6818 254.707 64.5679 254.046 64.5679C253.499 64.5679 253.026 64.6647 252.627 64.8584C252.229 65.0407 251.921 65.2913 251.705 65.6104C251.5 65.918 251.397 66.2598 251.397 66.6357C251.397 66.9206 251.454 67.1769 251.568 67.4048C251.693 67.6213 251.893 67.8206 252.166 68.0029C252.439 68.1852 252.793 68.3561 253.226 68.5156C253.67 68.6637 254.217 68.8005 254.866 68.9258C256.199 69.1992 257.39 69.5581 258.438 70.0024C259.486 70.4354 260.318 71.0278 260.933 71.7798C261.548 72.5203 261.856 73.4945 261.856 74.7021C261.856 75.5225 261.674 76.2744 261.309 76.958C260.944 77.6416 260.42 78.2397 259.737 78.7524C259.053 79.2537 258.233 79.6468 257.276 79.9316C256.33 80.2051 255.265 80.3418 254.08 80.3418C252.36 80.3418 250.901 80.0342 249.705 79.4189C248.52 78.8037 247.62 78.0233 247.005 77.0776C246.401 76.1206 246.099 75.1408 246.099 74.1382H250.765C250.787 74.8104 250.958 75.3516 251.277 75.7617C251.608 76.1719 252.024 76.4681 252.525 76.6504C253.038 76.8327 253.59 76.9238 254.183 76.9238C254.821 76.9238 255.35 76.8384 255.772 76.6675C256.194 76.4852 256.513 76.2459 256.729 75.9497C256.957 75.6421 257.071 75.2889 257.071 74.8901ZM270.247 53.75V80H265.308V53.75H270.247ZM279.236 65.3369V80H274.297V61.5088H278.929L279.236 65.3369ZM278.553 70.105H277.186C277.186 68.8175 277.339 67.6326 277.647 66.5503C277.966 65.4565 278.427 64.5109 279.031 63.7134C279.646 62.9045 280.404 62.2778 281.304 61.8335C282.204 61.3892 283.247 61.167 284.432 61.167C285.252 61.167 286.004 61.2923 286.688 61.543C287.371 61.7822 287.958 62.1639 288.448 62.688C288.949 63.2007 289.336 63.8729 289.61 64.7046C289.883 65.5249 290.02 66.5104 290.02 67.6611V80H285.098V68.208C285.098 67.3649 284.984 66.7155 284.756 66.2598C284.528 65.804 284.204 65.485 283.782 65.3027C283.372 65.1204 282.876 65.0293 282.295 65.0293C281.657 65.0293 281.099 65.1603 280.621 65.4224C280.153 65.6844 279.766 66.049 279.458 66.5161C279.151 66.9718 278.923 67.5073 278.775 68.1226C278.627 68.7378 278.553 69.3986 278.553 70.105ZM289.559 69.541L287.798 69.7632C287.798 68.5555 287.946 67.4333 288.243 66.3965C288.55 65.3597 289 64.4482 289.593 63.6621C290.197 62.876 290.943 62.2664 291.832 61.8335C292.72 61.3892 293.746 61.167 294.908 61.167C295.796 61.167 296.605 61.298 297.334 61.5601C298.064 61.8107 298.685 62.2152 299.197 62.7734C299.721 63.3203 300.12 64.0381 300.394 64.9268C300.678 65.8154 300.821 66.9035 300.821 68.1909V80H295.882V68.1909C295.882 67.3364 295.768 66.687 295.54 66.2427C295.324 65.7869 295.005 65.4736 294.583 65.3027C294.173 65.1204 293.683 65.0293 293.113 65.0293C292.521 65.0293 292.002 65.1489 291.558 65.3882C291.114 65.616 290.743 65.9351 290.447 66.3452C290.151 66.7554 289.929 67.2339 289.781 67.7808C289.633 68.3162 289.559 68.903 289.559 69.541ZM314.612 75.8301V67.5928C314.612 67.0003 314.515 66.4933 314.322 66.0718C314.128 65.6388 313.826 65.3027 313.416 65.0635C313.017 64.8242 312.499 64.7046 311.861 64.7046C311.314 64.7046 310.841 64.8014 310.442 64.9951C310.044 65.1774 309.736 65.4451 309.52 65.7983C309.303 66.1401 309.195 66.5446 309.195 67.0117H304.273C304.273 66.2256 304.455 65.4793 304.82 64.7729C305.184 64.0666 305.714 63.4456 306.409 62.9102C307.104 62.3633 307.93 61.936 308.887 61.6284C309.856 61.3208 310.938 61.167 312.134 61.167C313.57 61.167 314.846 61.4062 315.962 61.8848C317.079 62.3633 317.956 63.0811 318.594 64.0381C319.244 64.9951 319.568 66.1914 319.568 67.627V75.5396C319.568 76.5535 319.631 77.3853 319.756 78.0347C319.882 78.6727 320.064 79.231 320.303 79.7095V80H315.33C315.091 79.4987 314.909 78.8721 314.783 78.1201C314.669 77.3568 314.612 76.5934 314.612 75.8301ZM315.262 68.7378L315.296 71.5234H312.544C311.895 71.5234 311.331 71.5975 310.853 71.7456C310.374 71.8937 309.981 72.1045 309.673 72.3779C309.366 72.64 309.138 72.9476 308.99 73.3008C308.853 73.654 308.785 74.0413 308.785 74.4629C308.785 74.8844 308.882 75.2661 309.075 75.6079C309.269 75.9383 309.548 76.2004 309.913 76.394C310.277 76.5763 310.704 76.6675 311.194 76.6675C311.935 76.6675 312.579 76.5194 313.125 76.2231C313.672 75.9269 314.094 75.5623 314.39 75.1294C314.698 74.6965 314.857 74.2863 314.869 73.8989L316.167 75.9839C315.985 76.451 315.735 76.9352 315.416 77.4365C315.108 77.9378 314.715 78.4106 314.236 78.855C313.758 79.2879 313.182 79.6468 312.51 79.9316C311.838 80.2051 311.041 80.3418 310.118 80.3418C308.944 80.3418 307.879 80.1082 306.922 79.6411C305.976 79.1626 305.224 78.5075 304.666 77.6758C304.119 76.8327 303.846 75.8757 303.846 74.8047C303.846 73.8363 304.028 72.9761 304.393 72.2241C304.757 71.4722 305.293 70.8398 305.999 70.3271C306.717 69.8031 307.611 69.41 308.682 69.1479C309.753 68.8745 310.995 68.7378 312.408 68.7378H315.262ZM328.182 65.4565V80H323.26V61.5088H327.874L328.182 65.4565ZM327.464 70.105H326.131C326.131 68.7378 326.307 67.5073 326.661 66.4136C327.014 65.3084 327.509 64.3685 328.147 63.5938C328.785 62.8076 329.543 62.2095 330.42 61.7993C331.309 61.3778 332.3 61.167 333.394 61.167C334.26 61.167 335.052 61.2923 335.77 61.543C336.487 61.7936 337.103 62.1924 337.615 62.7393C338.139 63.2861 338.538 64.0096 338.812 64.9097C339.096 65.8097 339.239 66.9092 339.239 68.208V80H334.283V68.1909C334.283 67.3706 334.169 66.7326 333.941 66.2769C333.713 65.8211 333.377 65.5021 332.933 65.3198C332.5 65.1261 331.964 65.0293 331.326 65.0293C330.665 65.0293 330.09 65.1603 329.6 65.4224C329.122 65.6844 328.723 66.049 328.404 66.5161C328.096 66.9718 327.863 67.5073 327.703 68.1226C327.544 68.7378 327.464 69.3986 327.464 70.105ZM348.177 61.5088V80H343.238V61.5088H348.177ZM342.93 56.6895C342.93 55.9717 343.181 55.3792 343.682 54.9121C344.183 54.445 344.856 54.2114 345.699 54.2114C346.53 54.2114 347.197 54.445 347.698 54.9121C348.211 55.3792 348.467 55.9717 348.467 56.6895C348.467 57.4072 348.211 57.9997 347.698 58.4668C347.197 58.9339 346.53 59.1675 345.699 59.1675C344.856 59.1675 344.183 58.9339 343.682 58.4668C343.181 57.9997 342.93 57.4072 342.93 56.6895Z" fill="#888888"/>
<rect x="92" y="181" width="1179" height="80" rx="13.3333" fill="#CCCCCC"/>
<rect x="107" y="196.333" width="208" height="49.3333" rx="4.66667" fill="#888888" stroke="#888888" stroke-width="4"/>
<path d="M171.823 213.167H177.792C178.958 213.167 179.972 213.34 180.833 213.687C181.694 214.035 182.358 214.549 182.823 215.229C183.295 215.91 183.531 216.75 183.531 217.75C183.531 218.618 183.396 219.344 183.125 219.927C182.854 220.51 182.476 220.993 181.99 221.375C181.51 221.75 180.951 222.059 180.312 222.302L179.115 222.979H174.104L174.083 220.156H177.792C178.257 220.156 178.642 220.073 178.948 219.906C179.253 219.74 179.483 219.503 179.635 219.198C179.795 218.885 179.875 218.514 179.875 218.083C179.875 217.646 179.795 217.271 179.635 216.958C179.476 216.646 179.24 216.406 178.927 216.24C178.622 216.073 178.243 215.99 177.792 215.99H175.479V228.333H171.823V213.167ZM180.125 228.333L176.771 221.625L180.646 221.604L184.042 228.177V228.333H180.125ZM191.031 228.542C190.115 228.542 189.295 228.399 188.573 228.115C187.851 227.823 187.24 227.424 186.74 226.917C186.247 226.41 185.868 225.826 185.604 225.167C185.347 224.507 185.219 223.809 185.219 223.073V222.677C185.219 221.851 185.333 221.087 185.562 220.385C185.792 219.677 186.132 219.059 186.583 218.531C187.035 218.003 187.601 217.594 188.281 217.302C188.962 217.003 189.753 216.854 190.656 216.854C191.455 216.854 192.17 216.983 192.802 217.24C193.434 217.497 193.969 217.865 194.406 218.344C194.851 218.823 195.187 219.403 195.417 220.083C195.653 220.764 195.771 221.528 195.771 222.375V223.802H186.562V221.604H192.344V221.333C192.351 220.958 192.285 220.639 192.146 220.375C192.014 220.111 191.819 219.91 191.562 219.771C191.306 219.632 190.993 219.562 190.625 219.562C190.243 219.562 189.927 219.646 189.677 219.812C189.434 219.979 189.243 220.208 189.104 220.5C188.972 220.785 188.878 221.115 188.823 221.49C188.767 221.865 188.74 222.26 188.74 222.677V223.073C188.74 223.49 188.795 223.868 188.906 224.208C189.024 224.549 189.191 224.84 189.406 225.083C189.628 225.319 189.892 225.503 190.198 225.635C190.51 225.767 190.865 225.833 191.26 225.833C191.74 225.833 192.212 225.743 192.677 225.562C193.142 225.382 193.542 225.083 193.875 224.667L195.469 226.562C195.24 226.889 194.913 227.205 194.49 227.51C194.073 227.816 193.573 228.066 192.99 228.26C192.406 228.448 191.753 228.542 191.031 228.542ZM203.052 225.5V220.854C203.052 220.535 203.007 220.26 202.917 220.031C202.826 219.802 202.684 219.625 202.49 219.5C202.295 219.368 202.035 219.302 201.708 219.302C201.444 219.302 201.219 219.347 201.031 219.437C200.844 219.528 200.701 219.663 200.604 219.844C200.507 220.024 200.458 220.253 200.458 220.531H196.948C196.948 220.01 197.062 219.528 197.292 219.083C197.528 218.632 197.861 218.24 198.292 217.906C198.729 217.573 199.25 217.316 199.854 217.135C200.465 216.948 201.146 216.854 201.896 216.854C202.792 216.854 203.59 217.003 204.292 217.302C205 217.601 205.559 218.049 205.969 218.646C206.378 219.236 206.583 219.979 206.583 220.875V225.49C206.583 226.226 206.625 226.785 206.708 227.167C206.792 227.542 206.91 227.872 207.062 228.156V228.333H203.542C203.375 227.986 203.25 227.562 203.167 227.062C203.09 226.556 203.052 226.035 203.052 225.5ZM203.479 221.448L203.5 223.323H201.948C201.622 223.323 201.344 223.368 201.115 223.458C200.892 223.549 200.712 223.674 200.573 223.833C200.441 223.986 200.344 224.16 200.281 224.354C200.226 224.549 200.198 224.753 200.198 224.969C200.198 225.177 200.247 225.365 200.344 225.531C200.448 225.691 200.587 225.816 200.76 225.906C200.934 225.997 201.128 226.042 201.344 226.042C201.733 226.042 202.062 225.969 202.333 225.823C202.611 225.67 202.823 225.486 202.969 225.271C203.115 225.056 203.187 224.854 203.187 224.667L203.958 226.104C203.819 226.382 203.66 226.663 203.479 226.948C203.306 227.233 203.087 227.497 202.823 227.74C202.566 227.976 202.25 228.17 201.875 228.323C201.5 228.469 201.045 228.542 200.51 228.542C199.816 228.542 199.177 228.399 198.594 228.115C198.017 227.83 197.556 227.434 197.208 226.927C196.861 226.413 196.687 225.823 196.687 225.156C196.687 224.573 196.792 224.052 197 223.594C197.215 223.135 197.538 222.747 197.969 222.427C198.399 222.108 198.948 221.865 199.615 221.698C200.281 221.531 201.066 221.448 201.969 221.448H203.479ZM213.292 225.833C213.618 225.833 213.896 225.774 214.125 225.656C214.361 225.531 214.538 225.358 214.656 225.135C214.781 224.906 214.84 224.632 214.833 224.312H218.135C218.142 225.16 217.934 225.903 217.51 226.542C217.094 227.174 216.524 227.667 215.802 228.021C215.087 228.368 214.278 228.542 213.375 228.542C212.493 228.542 211.722 228.399 211.062 228.115C210.403 227.823 209.851 227.42 209.406 226.906C208.969 226.385 208.639 225.778 208.417 225.083C208.201 224.389 208.094 223.635 208.094 222.823V222.583C208.094 221.771 208.201 221.017 208.417 220.323C208.639 219.622 208.969 219.014 209.406 218.5C209.851 217.979 210.399 217.576 211.052 217.292C211.712 217 212.479 216.854 213.354 216.854C214.292 216.854 215.118 217.031 215.833 217.385C216.556 217.74 217.122 218.253 217.531 218.927C217.941 219.601 218.142 220.417 218.135 221.375H214.833C214.84 221.035 214.788 220.729 214.677 220.458C214.566 220.187 214.392 219.972 214.156 219.812C213.927 219.646 213.632 219.562 213.271 219.562C212.91 219.562 212.618 219.642 212.396 219.802C212.174 219.962 212.003 220.184 211.885 220.469C211.774 220.747 211.698 221.066 211.656 221.427C211.622 221.788 211.604 222.174 211.604 222.583V222.823C211.604 223.24 211.622 223.632 211.656 224C211.698 224.361 211.778 224.681 211.896 224.958C212.014 225.229 212.184 225.444 212.406 225.604C212.628 225.757 212.924 225.833 213.292 225.833ZM225.573 217.062V219.5H218.781V217.062H225.573ZM220.208 214.26H223.719V224.656C223.719 224.955 223.753 225.187 223.823 225.354C223.892 225.514 224.01 225.628 224.177 225.698C224.351 225.76 224.58 225.792 224.865 225.792C225.066 225.792 225.233 225.788 225.365 225.781C225.497 225.767 225.622 225.75 225.74 225.729V228.24C225.441 228.337 225.128 228.41 224.802 228.458C224.476 228.514 224.128 228.542 223.76 228.542C223.01 228.542 222.368 228.424 221.833 228.187C221.306 227.951 220.903 227.58 220.625 227.073C220.347 226.566 220.208 225.906 220.208 225.094V214.26ZM233.167 223.573V213.167H236.812V223.573C236.812 224.587 236.58 225.465 236.115 226.208C235.656 226.951 235.031 227.528 234.24 227.937C233.455 228.34 232.573 228.542 231.594 228.542C230.58 228.542 229.677 228.372 228.885 228.031C228.101 227.691 227.483 227.167 227.031 226.458C226.587 225.75 226.365 224.847 226.365 223.75H230.031C230.031 224.264 230.09 224.667 230.208 224.958C230.326 225.243 230.5 225.444 230.729 225.562C230.965 225.674 231.253 225.729 231.594 225.729C231.927 225.729 232.208 225.646 232.437 225.479C232.674 225.306 232.854 225.059 232.979 224.74C233.104 224.413 233.167 224.024 233.167 223.573ZM246.948 224.302C246.948 224.066 246.913 223.854 246.844 223.667C246.774 223.472 246.646 223.292 246.458 223.125C246.271 222.958 246 222.792 245.646 222.625C245.299 222.451 244.84 222.271 244.271 222.083C243.604 221.861 242.962 221.611 242.344 221.333C241.726 221.049 241.174 220.719 240.687 220.344C240.201 219.962 239.816 219.517 239.531 219.01C239.247 218.497 239.104 217.899 239.104 217.219C239.104 216.566 239.25 215.979 239.542 215.458C239.833 214.931 240.24 214.483 240.76 214.115C241.288 213.74 241.906 213.455 242.615 213.26C243.323 213.059 244.097 212.958 244.937 212.958C246.049 212.958 247.028 213.153 247.875 213.542C248.729 213.924 249.396 214.469 249.875 215.177C250.361 215.878 250.604 216.708 250.604 217.667H246.969C246.969 217.285 246.889 216.948 246.729 216.656C246.576 216.365 246.344 216.135 246.031 215.969C245.719 215.802 245.326 215.719 244.854 215.719C244.396 215.719 244.01 215.788 243.698 215.927C243.385 216.066 243.149 216.253 242.99 216.49C242.83 216.719 242.75 216.972 242.75 217.25C242.75 217.479 242.812 217.687 242.937 217.875C243.069 218.056 243.253 218.226 243.49 218.385C243.733 218.545 244.024 218.698 244.365 218.844C244.712 218.99 245.101 219.132 245.531 219.271C246.337 219.528 247.052 219.816 247.677 220.135C248.309 220.448 248.84 220.806 249.271 221.208C249.708 221.604 250.038 222.056 250.26 222.562C250.49 223.069 250.604 223.642 250.604 224.281C250.604 224.962 250.472 225.566 250.208 226.094C249.944 226.622 249.566 227.069 249.073 227.437C248.58 227.799 247.99 228.073 247.302 228.26C246.615 228.448 245.847 228.542 245 228.542C244.222 228.542 243.455 228.444 242.698 228.25C241.948 228.049 241.267 227.743 240.656 227.333C240.045 226.917 239.556 226.385 239.187 225.74C238.826 225.087 238.646 224.312 238.646 223.417H242.312C242.312 223.861 242.372 224.236 242.49 224.542C242.608 224.847 242.781 225.094 243.01 225.281C243.24 225.462 243.521 225.594 243.854 225.677C244.187 225.753 244.569 225.792 245 225.792C245.465 225.792 245.84 225.726 246.125 225.594C246.41 225.455 246.618 225.274 246.75 225.052C246.882 224.823 246.948 224.573 246.948 224.302Z" fill="white"/>
<rect x="339" y="196.333" width="208" height="49.3333" rx="4.66667" fill="#888888" stroke="#888888" stroke-width="4"/>
<path d="M382.833 213.167H388.802C389.969 213.167 390.983 213.34 391.844 213.687C392.705 214.035 393.368 214.549 393.833 215.229C394.306 215.91 394.542 216.75 394.542 217.75C394.542 218.618 394.406 219.344 394.135 219.927C393.865 220.51 393.486 220.993 393 221.375C392.521 221.75 391.962 222.059 391.323 222.302L390.125 222.979H385.115L385.094 220.156H388.802C389.267 220.156 389.653 220.073 389.958 219.906C390.264 219.74 390.493 219.503 390.646 219.198C390.806 218.885 390.885 218.514 390.885 218.083C390.885 217.646 390.806 217.271 390.646 216.958C390.486 216.646 390.25 216.406 389.937 216.24C389.632 216.073 389.253 215.99 388.802 215.99H386.49V228.333H382.833V213.167ZM391.135 228.333L387.781 221.625L391.656 221.604L395.052 228.177V228.333H391.135ZM402.042 228.542C401.125 228.542 400.306 228.399 399.583 228.115C398.861 227.823 398.25 227.424 397.75 226.917C397.257 226.41 396.878 225.826 396.615 225.167C396.358 224.507 396.229 223.809 396.229 223.073V222.677C396.229 221.851 396.344 221.087 396.573 220.385C396.802 219.677 397.142 219.059 397.594 218.531C398.045 218.003 398.611 217.594 399.292 217.302C399.972 217.003 400.764 216.854 401.667 216.854C402.465 216.854 403.181 216.983 403.813 217.24C404.444 217.497 404.979 217.865 405.417 218.344C405.861 218.823 406.198 219.403 406.427 220.083C406.663 220.764 406.781 221.528 406.781 222.375V223.802H397.573V221.604H403.354V221.333C403.361 220.958 403.295 220.639 403.156 220.375C403.024 220.111 402.83 219.91 402.573 219.771C402.316 219.632 402.003 219.562 401.635 219.562C401.253 219.562 400.938 219.646 400.688 219.812C400.444 219.979 400.253 220.208 400.115 220.5C399.983 220.785 399.889 221.115 399.833 221.49C399.778 221.865 399.75 222.26 399.75 222.677V223.073C399.75 223.49 399.806 223.868 399.917 224.208C400.035 224.549 400.201 224.84 400.417 225.083C400.639 225.319 400.903 225.503 401.208 225.635C401.521 225.767 401.875 225.833 402.271 225.833C402.75 225.833 403.222 225.743 403.688 225.562C404.153 225.382 404.552 225.083 404.885 224.667L406.479 226.562C406.25 226.889 405.924 227.205 405.5 227.51C405.083 227.816 404.583 228.066 404 228.26C403.417 228.448 402.764 228.542 402.042 228.542ZM414.063 225.5V220.854C414.063 220.535 414.017 220.26 413.927 220.031C413.837 219.802 413.694 219.625 413.5 219.5C413.306 219.368 413.045 219.302 412.719 219.302C412.455 219.302 412.229 219.347 412.042 219.437C411.854 219.528 411.712 219.663 411.615 219.844C411.517 220.024 411.469 220.253 411.469 220.531H407.958C407.958 220.01 408.073 219.528 408.302 219.083C408.538 218.632 408.872 218.24 409.302 217.906C409.74 217.573 410.26 217.316 410.865 217.135C411.476 216.948 412.156 216.854 412.906 216.854C413.802 216.854 414.601 217.003 415.302 217.302C416.01 217.601 416.569 218.049 416.979 218.646C417.389 219.236 417.594 219.979 417.594 220.875V225.49C417.594 226.226 417.635 226.785 417.719 227.167C417.802 227.542 417.92 227.872 418.073 228.156V228.333H414.552C414.385 227.986 414.26 227.562 414.177 227.062C414.101 226.556 414.063 226.035 414.063 225.5ZM414.49 221.448L414.51 223.323H412.958C412.632 223.323 412.354 223.368 412.125 223.458C411.903 223.549 411.722 223.674 411.583 223.833C411.451 223.986 411.354 224.16 411.292 224.354C411.236 224.549 411.208 224.753 411.208 224.969C411.208 225.177 411.257 225.365 411.354 225.531C411.458 225.691 411.597 225.816 411.771 225.906C411.944 225.997 412.139 226.042 412.354 226.042C412.743 226.042 413.073 225.969 413.344 225.823C413.622 225.67 413.833 225.486 413.979 225.271C414.125 225.056 414.198 224.854 414.198 224.667L414.969 226.104C414.83 226.382 414.67 226.663 414.49 226.948C414.316 227.233 414.097 227.497 413.833 227.74C413.576 227.976 413.26 228.17 412.885 228.323C412.51 228.469 412.056 228.542 411.521 228.542C410.826 228.542 410.188 228.399 409.604 228.115C409.028 227.83 408.566 227.434 408.219 226.927C407.872 226.413 407.698 225.823 407.698 225.156C407.698 224.573 407.802 224.052 408.01 223.594C408.226 223.135 408.549 222.747 408.979 222.427C409.41 222.108 409.958 221.865 410.625 221.698C411.292 221.531 412.076 221.448 412.979 221.448H414.49ZM424.302 225.833C424.628 225.833 424.906 225.774 425.135 225.656C425.372 225.531 425.549 225.358 425.667 225.135C425.792 224.906 425.851 224.632 425.844 224.312H429.146C429.153 225.16 428.944 225.903 428.521 226.542C428.104 227.174 427.535 227.667 426.812 228.021C426.097 228.368 425.288 228.542 424.385 228.542C423.503 228.542 422.733 228.399 422.073 228.115C421.413 227.823 420.861 227.42 420.417 226.906C419.979 226.385 419.649 225.778 419.427 225.083C419.212 224.389 419.104 223.635 419.104 222.823V222.583C419.104 221.771 419.212 221.017 419.427 220.323C419.649 219.622 419.979 219.014 420.417 218.5C420.861 217.979 421.41 217.576 422.062 217.292C422.722 217 423.49 216.854 424.365 216.854C425.302 216.854 426.128 217.031 426.844 217.385C427.566 217.74 428.132 218.253 428.542 218.927C428.951 219.601 429.153 220.417 429.146 221.375H425.844C425.851 221.035 425.799 220.729 425.687 220.458C425.576 220.187 425.403 219.972 425.167 219.812C424.937 219.646 424.642 219.562 424.281 219.562C423.92 219.562 423.628 219.642 423.406 219.802C423.184 219.962 423.014 220.184 422.896 220.469C422.785 220.747 422.708 221.066 422.667 221.427C422.632 221.788 422.615 222.174 422.615 222.583V222.823C422.615 223.24 422.632 223.632 422.667 224C422.708 224.361 422.788 224.681 422.906 224.958C423.024 225.229 423.194 225.444 423.417 225.604C423.639 225.757 423.934 225.833 424.302 225.833ZM436.583 217.062V219.5H429.792V217.062H436.583ZM431.219 214.26H434.729V224.656C434.729 224.955 434.764 225.187 434.833 225.354C434.903 225.514 435.021 225.628 435.188 225.698C435.361 225.76 435.59 225.792 435.875 225.792C436.076 225.792 436.243 225.788 436.375 225.781C436.507 225.767 436.632 225.75 436.75 225.729V228.24C436.451 228.337 436.139 228.41 435.813 228.458C435.486 228.514 435.139 228.542 434.771 228.542C434.021 228.542 433.378 228.424 432.844 228.187C432.316 227.951 431.913 227.58 431.635 227.073C431.358 226.566 431.219 225.906 431.219 225.094V214.26ZM456.125 213.167V228.333H452.479L447.115 218.896V228.333H443.458V213.167H447.115L452.479 222.604V213.167H456.125ZM464.125 225.5V220.854C464.125 220.535 464.08 220.26 463.99 220.031C463.899 219.802 463.757 219.625 463.563 219.5C463.368 219.368 463.108 219.302 462.781 219.302C462.517 219.302 462.292 219.347 462.104 219.437C461.917 219.528 461.774 219.663 461.677 219.844C461.58 220.024 461.531 220.253 461.531 220.531H458.021C458.021 220.01 458.135 219.528 458.365 219.083C458.601 218.632 458.934 218.24 459.365 217.906C459.802 217.573 460.323 217.316 460.927 217.135C461.538 216.948 462.219 216.854 462.969 216.854C463.865 216.854 464.663 217.003 465.365 217.302C466.073 217.601 466.632 218.049 467.042 218.646C467.451 219.236 467.656 219.979 467.656 220.875V225.49C467.656 226.226 467.698 226.785 467.781 227.167C467.865 227.542 467.983 227.872 468.135 228.156V228.333H464.615C464.448 227.986 464.323 227.562 464.24 227.062C464.163 226.556 464.125 226.035 464.125 225.5ZM464.552 221.448L464.573 223.323H463.021C462.694 223.323 462.417 223.368 462.188 223.458C461.965 223.549 461.785 223.674 461.646 223.833C461.514 223.986 461.417 224.16 461.354 224.354C461.299 224.549 461.271 224.753 461.271 224.969C461.271 225.177 461.319 225.365 461.417 225.531C461.521 225.691 461.66 225.816 461.833 225.906C462.007 225.997 462.201 226.042 462.417 226.042C462.806 226.042 463.135 225.969 463.406 225.823C463.684 225.67 463.896 225.486 464.042 225.271C464.188 225.056 464.26 224.854 464.26 224.667L465.031 226.104C464.892 226.382 464.733 226.663 464.552 226.948C464.378 227.233 464.16 227.497 463.896 227.74C463.639 227.976 463.323 228.17 462.948 228.323C462.573 228.469 462.118 228.542 461.583 228.542C460.889 228.542 460.25 228.399 459.667 228.115C459.09 227.83 458.628 227.434 458.281 226.927C457.934 226.413 457.76 225.823 457.76 225.156C457.76 224.573 457.865 224.052 458.073 223.594C458.288 223.135 458.611 222.747 459.042 222.427C459.472 222.108 460.021 221.865 460.688 221.698C461.354 221.531 462.139 221.448 463.042 221.448H464.552ZM475.542 217.062V219.5H468.75V217.062H475.542ZM470.177 214.26H473.687V224.656C473.687 224.955 473.722 225.187 473.792 225.354C473.861 225.514 473.979 225.628 474.146 225.698C474.319 225.76 474.549 225.792 474.833 225.792C475.035 225.792 475.201 225.788 475.333 225.781C475.465 225.767 475.59 225.75 475.708 225.729V228.24C475.41 228.337 475.097 228.41 474.771 228.458C474.444 228.514 474.097 228.542 473.729 228.542C472.979 228.542 472.337 228.424 471.802 228.187C471.274 227.951 470.872 227.58 470.594 227.073C470.316 226.566 470.177 225.906 470.177 225.094V214.26ZM480.646 217.062V228.333H477.125V217.062H480.646ZM476.917 214.156C476.917 213.656 477.097 213.247 477.458 212.927C477.819 212.608 478.288 212.448 478.865 212.448C479.441 212.448 479.91 212.608 480.271 212.927C480.632 213.247 480.813 213.656 480.813 214.156C480.813 214.656 480.632 215.066 480.271 215.385C479.91 215.705 479.441 215.865 478.865 215.865C478.288 215.865 477.819 215.705 477.458 215.385C477.097 215.066 476.917 214.656 476.917 214.156ZM486.875 225.927L489.094 217.062H492.792L489.104 228.333H486.917L486.875 225.927ZM485.563 217.062L487.75 225.927L487.729 228.333H485.531L481.854 217.062H485.563ZM499.146 228.542C498.229 228.542 497.41 228.399 496.688 228.115C495.965 227.823 495.354 227.424 494.854 226.917C494.361 226.41 493.983 225.826 493.719 225.167C493.462 224.507 493.333 223.809 493.333 223.073V222.677C493.333 221.851 493.448 221.087 493.677 220.385C493.906 219.677 494.247 219.059 494.698 218.531C495.149 218.003 495.715 217.594 496.396 217.302C497.076 217.003 497.868 216.854 498.771 216.854C499.569 216.854 500.285 216.983 500.917 217.24C501.549 217.497 502.083 217.865 502.521 218.344C502.965 218.823 503.302 219.403 503.531 220.083C503.767 220.764 503.885 221.528 503.885 222.375V223.802H494.677V221.604H500.458V221.333C500.465 220.958 500.399 220.639 500.26 220.375C500.128 220.111 499.934 219.91 499.677 219.771C499.42 219.632 499.108 219.562 498.74 219.562C498.358 219.562 498.042 219.646 497.792 219.812C497.549 219.979 497.358 220.208 497.219 220.5C497.087 220.785 496.993 221.115 496.938 221.49C496.882 221.865 496.854 222.26 496.854 222.677V223.073C496.854 223.49 496.91 223.868 497.021 224.208C497.139 224.549 497.306 224.84 497.521 225.083C497.743 225.319 498.007 225.503 498.313 225.635C498.625 225.767 498.979 225.833 499.375 225.833C499.854 225.833 500.326 225.743 500.792 225.562C501.257 225.382 501.656 225.083 501.99 224.667L503.583 226.562C503.354 226.889 503.028 227.205 502.604 227.51C502.188 227.816 501.688 228.066 501.104 228.26C500.521 228.448 499.868 228.542 499.146 228.542Z" fill="white"/>
<rect x="571" y="196.333" width="208" height="49.3333" rx="4.66667" fill="#888888" stroke="#888888" stroke-width="4"/>
<path d="M651.073 225.521V228.333H643.406V225.521H651.073ZM644.708 213.167V228.333H641.052V213.167H644.708ZM658.302 225.5V220.854C658.302 220.535 658.257 220.26 658.167 220.031C658.076 219.802 657.934 219.625 657.74 219.5C657.545 219.368 657.285 219.302 656.958 219.302C656.694 219.302 656.469 219.347 656.281 219.437C656.094 219.528 655.951 219.663 655.854 219.844C655.757 220.024 655.708 220.253 655.708 220.531H652.198C652.198 220.01 652.312 219.528 652.542 219.083C652.778 218.632 653.111 218.24 653.542 217.906C653.979 217.573 654.5 217.316 655.104 217.135C655.715 216.948 656.396 216.854 657.146 216.854C658.042 216.854 658.84 217.003 659.542 217.302C660.25 217.601 660.809 218.049 661.219 218.646C661.628 219.236 661.833 219.979 661.833 220.875V225.49C661.833 226.226 661.875 226.785 661.958 227.167C662.042 227.542 662.16 227.872 662.312 228.156V228.333H658.792C658.625 227.986 658.5 227.562 658.417 227.062C658.34 226.556 658.302 226.035 658.302 225.5ZM658.729 221.448L658.75 223.323H657.198C656.872 223.323 656.594 223.368 656.365 223.458C656.142 223.549 655.962 223.674 655.823 223.833C655.691 223.986 655.594 224.16 655.531 224.354C655.476 224.549 655.448 224.753 655.448 224.969C655.448 225.177 655.497 225.365 655.594 225.531C655.698 225.691 655.837 225.816 656.01 225.906C656.184 225.997 656.378 226.042 656.594 226.042C656.983 226.042 657.312 225.969 657.583 225.823C657.861 225.67 658.073 225.486 658.219 225.271C658.365 225.056 658.437 224.854 658.437 224.667L659.208 226.104C659.069 226.382 658.91 226.663 658.729 226.948C658.556 227.233 658.337 227.497 658.073 227.74C657.816 227.976 657.5 228.17 657.125 228.323C656.75 228.469 656.295 228.542 655.76 228.542C655.066 228.542 654.427 228.399 653.844 228.115C653.267 227.83 652.806 227.434 652.458 226.927C652.111 226.413 651.937 225.823 651.937 225.156C651.937 224.573 652.042 224.052 652.25 223.594C652.465 223.135 652.788 222.747 653.219 222.427C653.649 222.108 654.198 221.865 654.865 221.698C655.531 221.531 656.316 221.448 657.219 221.448H658.729ZM667.323 219.854V228.333H663.812V217.062H667.094L667.323 219.854ZM670.656 216.979L670.594 220.24C670.455 220.226 670.267 220.208 670.031 220.187C669.795 220.167 669.597 220.156 669.437 220.156C669.028 220.156 668.674 220.205 668.375 220.302C668.083 220.392 667.84 220.531 667.646 220.719C667.458 220.899 667.319 221.128 667.229 221.406C667.146 221.684 667.108 222.007 667.115 222.375L666.479 221.958C666.479 221.201 666.552 220.514 666.698 219.896C666.851 219.271 667.066 218.733 667.344 218.281C667.622 217.823 667.958 217.472 668.354 217.229C668.75 216.979 669.194 216.854 669.687 216.854C669.861 216.854 670.031 216.865 670.198 216.885C670.372 216.906 670.524 216.937 670.656 216.979ZM677.406 225.5V220.854C677.406 220.535 677.361 220.26 677.271 220.031C677.181 219.802 677.038 219.625 676.844 219.5C676.649 219.368 676.389 219.302 676.063 219.302C675.799 219.302 675.573 219.347 675.385 219.437C675.198 219.528 675.056 219.663 674.958 219.844C674.861 220.024 674.813 220.253 674.813 220.531H671.302C671.302 220.01 671.417 219.528 671.646 219.083C671.882 218.632 672.215 218.24 672.646 217.906C673.083 217.573 673.604 217.316 674.208 217.135C674.819 216.948 675.5 216.854 676.25 216.854C677.146 216.854 677.944 217.003 678.646 217.302C679.354 217.601 679.913 218.049 680.323 218.646C680.733 219.236 680.938 219.979 680.938 220.875V225.49C680.938 226.226 680.979 226.785 681.063 227.167C681.146 227.542 681.264 227.872 681.417 228.156V228.333H677.896C677.729 227.986 677.604 227.562 677.521 227.062C677.444 226.556 677.406 226.035 677.406 225.5ZM677.833 221.448L677.854 223.323H676.302C675.976 223.323 675.698 223.368 675.469 223.458C675.247 223.549 675.066 223.674 674.927 223.833C674.795 223.986 674.698 224.16 674.635 224.354C674.58 224.549 674.552 224.753 674.552 224.969C674.552 225.177 674.601 225.365 674.698 225.531C674.802 225.691 674.941 225.816 675.115 225.906C675.288 225.997 675.483 226.042 675.698 226.042C676.087 226.042 676.417 225.969 676.688 225.823C676.965 225.67 677.177 225.486 677.323 225.271C677.469 225.056 677.542 224.854 677.542 224.667L678.313 226.104C678.174 226.382 678.014 226.663 677.833 226.948C677.66 227.233 677.441 227.497 677.177 227.74C676.92 227.976 676.604 228.17 676.229 228.323C675.854 228.469 675.399 228.542 674.865 228.542C674.17 228.542 673.531 228.399 672.948 228.115C672.372 227.83 671.91 227.434 671.563 226.927C671.215 226.413 671.042 225.823 671.042 225.156C671.042 224.573 671.146 224.052 671.354 223.594C671.569 223.135 671.892 222.747 672.323 222.427C672.753 222.108 673.302 221.865 673.969 221.698C674.635 221.531 675.42 221.448 676.323 221.448H677.833ZM686.781 225.927L689 217.062H692.698L689.01 228.333H686.823L686.781 225.927ZM685.469 217.062L687.656 225.927L687.635 228.333H685.437L681.76 217.062H685.469ZM699.052 228.542C698.135 228.542 697.316 228.399 696.594 228.115C695.872 227.823 695.26 227.424 694.76 226.917C694.267 226.41 693.889 225.826 693.625 225.167C693.368 224.507 693.24 223.809 693.24 223.073V222.677C693.24 221.851 693.354 221.087 693.583 220.385C693.812 219.677 694.153 219.059 694.604 218.531C695.056 218.003 695.622 217.594 696.302 217.302C696.983 217.003 697.774 216.854 698.677 216.854C699.476 216.854 700.191 216.983 700.823 217.24C701.455 217.497 701.99 217.865 702.427 218.344C702.872 218.823 703.208 219.403 703.437 220.083C703.674 220.764 703.792 221.528 703.792 222.375V223.802H694.583V221.604H700.365V221.333C700.372 220.958 700.306 220.639 700.167 220.375C700.035 220.111 699.84 219.91 699.583 219.771C699.326 219.632 699.014 219.562 698.646 219.562C698.264 219.562 697.948 219.646 697.698 219.812C697.455 219.979 697.264 220.208 697.125 220.5C696.993 220.785 696.899 221.115 696.844 221.49C696.788 221.865 696.76 222.26 696.76 222.677V223.073C696.76 223.49 696.816 223.868 696.927 224.208C697.045 224.549 697.212 224.84 697.427 225.083C697.649 225.319 697.913 225.503 698.219 225.635C698.531 225.767 698.885 225.833 699.281 225.833C699.76 225.833 700.233 225.743 700.698 225.562C701.163 225.382 701.562 225.083 701.896 224.667L703.49 226.562C703.26 226.889 702.934 227.205 702.51 227.51C702.094 227.816 701.594 228.066 701.01 228.26C700.427 228.448 699.774 228.542 699.052 228.542ZM708.927 212.333V228.333H705.406V212.333H708.927Z" fill="white"/>
<rect x="803" y="196.333" width="208" height="49.3333" rx="4.66667" fill="#888888" stroke="#888888" stroke-width="4"/>
<path d="M872.604 213.167H875.583L878.969 223.719L882.354 213.167H885.333L880.177 228.333H877.76L872.604 213.167ZM870.792 213.167H873.875L874.448 224.792V228.333H870.792V213.167ZM884.062 213.167H887.156V228.333H883.49V224.792L884.062 213.167ZM892.792 227.01L895.708 217.062H899.479L894.948 230.01C894.851 230.295 894.722 230.601 894.563 230.927C894.403 231.26 894.184 231.576 893.906 231.875C893.628 232.174 893.271 232.417 892.833 232.604C892.403 232.792 891.868 232.885 891.229 232.885C890.889 232.885 890.639 232.868 890.479 232.833C890.326 232.806 890.09 232.753 889.771 232.677V230.167C889.861 230.167 889.938 230.167 890 230.167C890.069 230.167 890.146 230.167 890.229 230.167C890.604 230.167 890.903 230.128 891.125 230.052C891.354 229.976 891.528 229.865 891.646 229.719C891.771 229.573 891.868 229.396 891.938 229.187L892.792 227.01ZM892.052 217.062L894.271 224.948L894.656 228.667H892.302L888.292 217.062H892.052ZM913.688 224.302C913.688 224.066 913.653 223.854 913.583 223.667C913.514 223.472 913.385 223.292 913.198 223.125C913.01 222.958 912.74 222.792 912.385 222.625C912.038 222.451 911.58 222.271 911.01 222.083C910.344 221.861 909.701 221.611 909.083 221.333C908.465 221.049 907.913 220.719 907.427 220.344C906.941 219.962 906.556 219.517 906.271 219.01C905.986 218.497 905.844 217.899 905.844 217.219C905.844 216.566 905.99 215.979 906.281 215.458C906.573 214.931 906.979 214.483 907.5 214.115C908.028 213.74 908.646 213.455 909.354 213.26C910.063 213.059 910.837 212.958 911.677 212.958C912.788 212.958 913.767 213.153 914.615 213.542C915.469 213.924 916.135 214.469 916.615 215.177C917.101 215.878 917.344 216.708 917.344 217.667H913.708C913.708 217.285 913.628 216.948 913.469 216.656C913.316 216.365 913.083 216.135 912.771 215.969C912.458 215.802 912.066 215.719 911.594 215.719C911.135 215.719 910.75 215.788 910.438 215.927C910.125 216.066 909.889 216.253 909.729 216.49C909.569 216.719 909.49 216.972 909.49 217.25C909.49 217.479 909.552 217.687 909.677 217.875C909.809 218.056 909.993 218.226 910.229 218.385C910.472 218.545 910.764 218.698 911.104 218.844C911.451 218.99 911.84 219.132 912.271 219.271C913.076 219.528 913.792 219.816 914.417 220.135C915.049 220.448 915.58 220.806 916.01 221.208C916.448 221.604 916.778 222.056 917 222.562C917.229 223.069 917.344 223.642 917.344 224.281C917.344 224.962 917.212 225.566 916.948 226.094C916.684 226.622 916.306 227.069 915.813 227.437C915.319 227.799 914.729 228.073 914.042 228.26C913.354 228.448 912.587 228.542 911.74 228.542C910.962 228.542 910.194 228.444 909.438 228.25C908.688 228.049 908.007 227.743 907.396 227.333C906.785 226.917 906.295 226.385 905.927 225.74C905.566 225.087 905.385 224.312 905.385 223.417H909.052C909.052 223.861 909.111 224.236 909.229 224.542C909.347 224.847 909.521 225.094 909.75 225.281C909.979 225.462 910.26 225.594 910.594 225.677C910.927 225.753 911.309 225.792 911.74 225.792C912.205 225.792 912.58 225.726 912.865 225.594C913.149 225.455 913.358 225.274 913.49 225.052C913.622 224.823 913.688 224.573 913.688 224.302ZM927.687 225.833L931.917 229.187L929.646 231.104L925.49 227.75L927.687 225.833ZM932.094 220.448V221.062C932.094 222.222 931.931 223.264 931.604 224.187C931.285 225.104 930.826 225.889 930.229 226.542C929.639 227.187 928.941 227.684 928.135 228.031C927.33 228.372 926.441 228.542 925.469 228.542C924.49 228.542 923.594 228.372 922.781 228.031C921.976 227.684 921.274 227.187 920.677 226.542C920.087 225.889 919.628 225.104 919.302 224.187C918.983 223.264 918.823 222.222 918.823 221.062V220.448C918.823 219.288 918.983 218.247 919.302 217.323C919.628 216.399 920.083 215.615 920.667 214.969C921.257 214.316 921.955 213.819 922.76 213.479C923.573 213.132 924.469 212.958 925.448 212.958C926.42 212.958 927.309 213.132 928.115 213.479C928.927 213.819 929.628 214.316 930.219 214.969C930.816 215.615 931.278 216.399 931.604 217.323C931.931 218.247 932.094 219.288 932.094 220.448ZM928.375 221.062V220.427C928.375 219.677 928.309 219.017 928.177 218.448C928.052 217.872 927.865 217.389 927.615 217C927.365 216.611 927.056 216.319 926.687 216.125C926.326 215.924 925.913 215.823 925.448 215.823C924.962 215.823 924.538 215.924 924.177 216.125C923.816 216.319 923.514 216.611 923.271 217C923.028 217.389 922.844 217.872 922.719 218.448C922.601 219.017 922.542 219.677 922.542 220.427V221.062C922.542 221.806 922.601 222.465 922.719 223.042C922.844 223.611 923.028 224.094 923.271 224.49C923.521 224.885 923.826 225.184 924.187 225.385C924.556 225.587 924.983 225.687 925.469 225.687C925.934 225.687 926.347 225.587 926.708 225.385C927.069 225.184 927.372 224.885 927.615 224.49C927.865 224.094 928.052 223.611 928.177 223.042C928.309 222.465 928.375 221.806 928.375 221.062ZM943.979 225.521V228.333H936.312V225.521H943.979ZM937.615 213.167V228.333H933.958V213.167H937.615Z" fill="white"/>
</svg>
