<svg width="1363" height="167" viewBox="0 0 1363 167" fill="none" xmlns="http://www.w3.org/2000/svg">
<rect width="1363" height="167" rx="15" fill="#F0F0F0"/>
<path d="M0 15C0 6.71573 6.71573 0 15 0H37V167H15C6.71573 167 0 160.284 0 152V15Z" fill="#424241"/>
<path d="M100.906 54.9219L93.3945 52.2383V49.0859L103.602 53.375V55.6367L100.906 54.9219ZM93.3945 57.1719L100.918 54.4297L103.602 53.7852V56.0352L93.3945 60.3242V57.1719ZM113.504 44.9375H116.48L120.863 57.4648L125.246 44.9375H128.223L122.059 62H119.668L113.504 44.9375ZM111.898 44.9375H114.863L115.402 57.1484V62H111.898V44.9375ZM126.863 44.9375H129.84V62H126.324V57.1484L126.863 44.9375ZM138.547 62.2344C137.562 62.2344 136.68 62.0781 135.898 61.7656C135.117 61.4453 134.453 61.0039 133.906 60.4414C133.367 59.8789 132.953 59.2266 132.664 58.4844C132.375 57.7344 132.23 56.9375 132.23 56.0938V55.625C132.23 54.6641 132.367 53.7852 132.641 52.9883C132.914 52.1914 133.305 51.5 133.812 50.9141C134.328 50.3281 134.953 49.8789 135.688 49.5664C136.422 49.2461 137.25 49.0859 138.172 49.0859C139.07 49.0859 139.867 49.2344 140.562 49.5312C141.258 49.8281 141.84 50.25 142.309 50.7969C142.785 51.3438 143.145 52 143.387 52.7656C143.629 53.5234 143.75 54.3672 143.75 55.2969V56.7031H133.672V54.4531H140.434V54.1953C140.434 53.7266 140.348 53.3086 140.176 52.9414C140.012 52.5664 139.762 52.2695 139.426 52.0508C139.09 51.832 138.66 51.7227 138.137 51.7227C137.691 51.7227 137.309 51.8203 136.988 52.0156C136.668 52.2109 136.406 52.4844 136.203 52.8359C136.008 53.1875 135.859 53.6016 135.758 54.0781C135.664 54.5469 135.617 55.0625 135.617 55.625V56.0938C135.617 56.6016 135.688 57.0703 135.828 57.5C135.977 57.9297 136.184 58.3008 136.449 58.6133C136.723 58.9258 137.051 59.168 137.434 59.3398C137.824 59.5117 138.266 59.5977 138.758 59.5977C139.367 59.5977 139.934 59.4805 140.457 59.2461C140.988 59.0039 141.445 58.6406 141.828 58.1562L143.469 59.9375C143.203 60.3203 142.84 60.6875 142.379 61.0391C141.926 61.3906 141.379 61.6797 140.738 61.9062C140.098 62.125 139.367 62.2344 138.547 62.2344ZM151.508 62.2344C150.523 62.2344 149.641 62.0781 148.859 61.7656C148.078 61.4453 147.414 61.0039 146.867 60.4414C146.328 59.8789 145.914 59.2266 145.625 58.4844C145.336 57.7344 145.191 56.9375 145.191 56.0938V55.625C145.191 54.6641 145.328 53.7852 145.602 52.9883C145.875 52.1914 146.266 51.5 146.773 50.9141C147.289 50.3281 147.914 49.8789 148.648 49.5664C149.383 49.2461 150.211 49.0859 151.133 49.0859C152.031 49.0859 152.828 49.2344 153.523 49.5312C154.219 49.8281 154.801 50.25 155.27 50.7969C155.746 51.3438 156.105 52 156.348 52.7656C156.59 53.5234 156.711 54.3672 156.711 55.2969V56.7031H146.633V54.4531H153.395V54.1953C153.395 53.7266 153.309 53.3086 153.137 52.9414C152.973 52.5664 152.723 52.2695 152.387 52.0508C152.051 51.832 151.621 51.7227 151.098 51.7227C150.652 51.7227 150.27 51.8203 149.949 52.0156C149.629 52.2109 149.367 52.4844 149.164 52.8359C148.969 53.1875 148.82 53.6016 148.719 54.0781C148.625 54.5469 148.578 55.0625 148.578 55.625V56.0938C148.578 56.6016 148.648 57.0703 148.789 57.5C148.938 57.9297 149.145 58.3008 149.41 58.6133C149.684 58.9258 150.012 59.168 150.395 59.3398C150.785 59.5117 151.227 59.5977 151.719 59.5977C152.328 59.5977 152.895 59.4805 153.418 59.2461C153.949 59.0039 154.406 58.6406 154.789 58.1562L156.43 59.9375C156.164 60.3203 155.801 60.6875 155.34 61.0391C154.887 61.3906 154.34 61.6797 153.699 61.9062C153.059 62.125 152.328 62.2344 151.508 62.2344ZM164.844 49.3203V51.7109H157.461V49.3203H164.844ZM159.289 46.1914H162.664V58.1797C162.664 58.5469 162.711 58.8281 162.805 59.0234C162.906 59.2188 163.055 59.3555 163.25 59.4336C163.445 59.5039 163.691 59.5391 163.988 59.5391C164.199 59.5391 164.387 59.5312 164.551 59.5156C164.723 59.4922 164.867 59.4688 164.984 59.4453L164.996 61.9297C164.707 62.0234 164.395 62.0977 164.059 62.1523C163.723 62.207 163.352 62.2344 162.945 62.2344C162.203 62.2344 161.555 62.1133 161 61.8711C160.453 61.6211 160.031 61.2227 159.734 60.6758C159.438 60.1289 159.289 59.4102 159.289 58.5195V46.1914ZM179.891 47.8555L175.25 62H171.512L177.852 44.9375H180.23L179.891 47.8555ZM183.746 62L179.094 47.8555L178.719 44.9375H181.121L187.496 62H183.746ZM183.535 55.6484V58.4023H174.523V55.6484H183.535ZM206.023 59.2578V62H197.434V59.2578H206.023ZM198.57 44.9375V62H195.055V44.9375H198.57ZM207.289 55.7891V55.543C207.289 54.6133 207.422 53.7578 207.688 52.9766C207.953 52.1875 208.34 51.5039 208.848 50.9258C209.355 50.3477 209.98 49.8984 210.723 49.5781C211.465 49.25 212.316 49.0859 213.277 49.0859C214.238 49.0859 215.094 49.25 215.844 49.5781C216.594 49.8984 217.223 50.3477 217.73 50.9258C218.246 51.5039 218.637 52.1875 218.902 52.9766C219.168 53.7578 219.301 54.6133 219.301 55.543V55.7891C219.301 56.7109 219.168 57.5664 218.902 58.3555C218.637 59.1367 218.246 59.8203 217.73 60.4062C217.223 60.9844 216.598 61.4336 215.855 61.7539C215.113 62.0742 214.262 62.2344 213.301 62.2344C212.34 62.2344 211.484 62.0742 210.734 61.7539C209.992 61.4336 209.363 60.9844 208.848 60.4062C208.34 59.8203 207.953 59.1367 207.688 58.3555C207.422 57.5664 207.289 56.7109 207.289 55.7891ZM210.664 55.543V55.7891C210.664 56.3203 210.711 56.8164 210.805 57.2773C210.898 57.7383 211.047 58.1445 211.25 58.4961C211.461 58.8398 211.734 59.1094 212.07 59.3047C212.406 59.5 212.816 59.5977 213.301 59.5977C213.77 59.5977 214.172 59.5 214.508 59.3047C214.844 59.1094 215.113 58.8398 215.316 58.4961C215.52 58.1445 215.668 57.7383 215.762 57.2773C215.863 56.8164 215.914 56.3203 215.914 55.7891V55.543C215.914 55.0273 215.863 54.543 215.762 54.0898C215.668 53.6289 215.516 53.2227 215.305 52.8711C215.102 52.5117 214.832 52.2305 214.496 52.0273C214.16 51.8242 213.754 51.7227 213.277 51.7227C212.801 51.7227 212.395 51.8242 212.059 52.0273C211.73 52.2305 211.461 52.5117 211.25 52.8711C211.047 53.2227 210.898 53.6289 210.805 54.0898C210.711 54.543 210.664 55.0273 210.664 55.543ZM226.613 59.5977C227.027 59.5977 227.395 59.5195 227.715 59.3633C228.035 59.1992 228.285 58.9727 228.465 58.6836C228.652 58.3867 228.75 58.0391 228.758 57.6406H231.934C231.926 58.5312 231.688 59.3242 231.219 60.0195C230.75 60.707 230.121 61.25 229.332 61.6484C228.543 62.0391 227.66 62.2344 226.684 62.2344C225.699 62.2344 224.84 62.0703 224.105 61.7422C223.379 61.4141 222.773 60.9609 222.289 60.3828C221.805 59.7969 221.441 59.1172 221.199 58.3438C220.957 57.5625 220.836 56.7266 220.836 55.8359V55.4961C220.836 54.5977 220.957 53.7617 221.199 52.9883C221.441 52.207 221.805 51.5273 222.289 50.9492C222.773 50.3633 223.379 49.9062 224.105 49.5781C224.832 49.25 225.684 49.0859 226.66 49.0859C227.699 49.0859 228.609 49.2852 229.391 49.6836C230.18 50.082 230.797 50.6523 231.242 51.3945C231.695 52.1289 231.926 53 231.934 54.0078H228.758C228.75 53.5859 228.66 53.2031 228.488 52.8594C228.324 52.5156 228.082 52.2422 227.762 52.0391C227.449 51.8281 227.062 51.7227 226.602 51.7227C226.109 51.7227 225.707 51.8281 225.395 52.0391C225.082 52.2422 224.84 52.5234 224.668 52.8828C224.496 53.2344 224.375 53.6367 224.305 54.0898C224.242 54.5352 224.211 55.0039 224.211 55.4961V55.8359C224.211 56.3281 224.242 56.8008 224.305 57.2539C224.367 57.707 224.484 58.1094 224.656 58.4609C224.836 58.8125 225.082 59.0898 225.395 59.293C225.707 59.4961 226.113 59.5977 226.613 59.5977ZM240.734 59.1406V53.4922C240.734 53.0859 240.668 52.7383 240.535 52.4492C240.402 52.1523 240.195 51.9219 239.914 51.7578C239.641 51.5938 239.285 51.5117 238.848 51.5117C238.473 51.5117 238.148 51.5781 237.875 51.7109C237.602 51.8359 237.391 52.0195 237.242 52.2617C237.094 52.4961 237.02 52.7734 237.02 53.0938H233.645C233.645 52.5547 233.77 52.043 234.02 51.5586C234.27 51.0742 234.633 50.6484 235.109 50.2812C235.586 49.9062 236.152 49.6133 236.809 49.4023C237.473 49.1914 238.215 49.0859 239.035 49.0859C240.02 49.0859 240.895 49.25 241.66 49.5781C242.426 49.9062 243.027 50.3984 243.465 51.0547C243.91 51.7109 244.133 52.5312 244.133 53.5156V58.9414C244.133 59.6367 244.176 60.207 244.262 60.6523C244.348 61.0898 244.473 61.4727 244.637 61.8008V62H241.227C241.062 61.6562 240.938 61.2266 240.852 60.7109C240.773 60.1875 240.734 59.6641 240.734 59.1406ZM241.18 54.2773L241.203 56.1875H239.316C238.871 56.1875 238.484 56.2383 238.156 56.3398C237.828 56.4414 237.559 56.5859 237.348 56.7734C237.137 56.9531 236.98 57.1641 236.879 57.4062C236.785 57.6484 236.738 57.9141 236.738 58.2031C236.738 58.4922 236.805 58.7539 236.938 58.9883C237.07 59.2148 237.262 59.3945 237.512 59.5273C237.762 59.6523 238.055 59.7148 238.391 59.7148C238.898 59.7148 239.34 59.6133 239.715 59.4102C240.09 59.207 240.379 58.957 240.582 58.6602C240.793 58.3633 240.902 58.082 240.91 57.8164L241.801 59.2461C241.676 59.5664 241.504 59.8984 241.285 60.2422C241.074 60.5859 240.805 60.9102 240.477 61.2148C240.148 61.5117 239.754 61.7578 239.293 61.9531C238.832 62.1406 238.285 62.2344 237.652 62.2344C236.848 62.2344 236.117 62.0742 235.461 61.7539C234.812 61.4258 234.297 60.9766 233.914 60.4062C233.539 59.8281 233.352 59.1719 233.352 58.4375C233.352 57.7734 233.477 57.1836 233.727 56.668C233.977 56.1523 234.344 55.7188 234.828 55.3672C235.32 55.0078 235.934 54.7383 236.668 54.5586C237.402 54.3711 238.254 54.2773 239.223 54.2773H241.18ZM250.297 44V62H246.91V44H250.297Z" fill="#888888"/>
<path d="M109.93 86.0078V118H102.217V86.0078H109.93ZM119.554 86.0078V91.9624H92.813V86.0078H119.554ZM132.012 118.439C130.079 118.439 128.35 118.139 126.827 117.539C125.303 116.923 124.014 116.081 122.959 115.012C121.919 113.942 121.121 112.712 120.564 111.32C120.022 109.929 119.751 108.457 119.751 106.904V106.069C119.751 104.326 119.993 102.714 120.477 101.235C120.96 99.7407 121.678 98.437 122.63 97.3237C123.582 96.2104 124.776 95.3462 126.211 94.731C127.647 94.1011 129.317 93.7861 131.221 93.7861C132.906 93.7861 134.415 94.0571 135.748 94.5991C137.081 95.1411 138.208 95.9175 139.131 96.9282C140.069 97.939 140.779 99.1621 141.263 100.598C141.761 102.033 142.01 103.645 142.01 105.432V108.442H122.586V103.806H134.781V103.234C134.795 102.443 134.656 101.77 134.363 101.213C134.085 100.656 133.675 100.231 133.133 99.9385C132.591 99.6455 131.932 99.499 131.155 99.499C130.35 99.499 129.683 99.6748 129.156 100.026C128.643 100.378 128.24 100.861 127.947 101.477C127.669 102.077 127.471 102.773 127.354 103.564C127.237 104.355 127.178 105.19 127.178 106.069V106.904C127.178 107.783 127.295 108.581 127.53 109.299C127.779 110.017 128.13 110.632 128.584 111.145C129.053 111.643 129.61 112.031 130.254 112.309C130.914 112.587 131.661 112.727 132.496 112.727C133.506 112.727 134.502 112.536 135.484 112.155C136.465 111.774 137.308 111.145 138.011 110.266L141.373 114.265C140.889 114.953 140.201 115.62 139.307 116.264C138.428 116.909 137.374 117.436 136.143 117.846C134.913 118.242 133.536 118.439 132.012 118.439ZM155.062 112.727C155.75 112.727 156.336 112.602 156.819 112.353C157.317 112.089 157.691 111.723 157.94 111.254C158.204 110.771 158.328 110.192 158.313 109.519H165.279C165.293 111.306 164.854 112.873 163.96 114.221C163.082 115.554 161.88 116.594 160.357 117.341C158.848 118.073 157.142 118.439 155.237 118.439C153.377 118.439 151.751 118.139 150.359 117.539C148.968 116.923 147.803 116.074 146.866 114.99C145.943 113.891 145.247 112.609 144.778 111.145C144.324 109.68 144.097 108.09 144.097 106.376V105.871C144.097 104.157 144.324 102.568 144.778 101.103C145.247 99.6235 145.943 98.3418 146.866 97.2578C147.803 96.1592 148.96 95.3096 150.337 94.709C151.729 94.0938 153.348 93.7861 155.193 93.7861C157.171 93.7861 158.914 94.1597 160.423 94.9067C161.946 95.6538 163.14 96.7378 164.004 98.1587C164.869 99.5796 165.293 101.301 165.279 103.322H158.313C158.328 102.604 158.218 101.96 157.984 101.389C157.75 100.817 157.383 100.363 156.885 100.026C156.402 99.6748 155.779 99.499 155.018 99.499C154.256 99.499 153.641 99.6675 153.172 100.004C152.703 100.341 152.344 100.81 152.095 101.411C151.861 101.997 151.7 102.67 151.612 103.432C151.539 104.194 151.502 105.007 151.502 105.871V106.376C151.502 107.255 151.539 108.083 151.612 108.859C151.7 109.621 151.868 110.295 152.117 110.881C152.366 111.452 152.725 111.906 153.194 112.243C153.663 112.565 154.285 112.727 155.062 112.727ZM175.694 84.25V118H168.289V84.25H175.694ZM174.815 105.3L173.079 105.344C173.079 103.674 173.284 102.136 173.694 100.729C174.104 99.3232 174.69 98.1001 175.452 97.0601C176.214 96.02 177.129 95.2144 178.199 94.6431C179.268 94.0718 180.455 93.7861 181.758 93.7861C182.93 93.7861 184 93.9546 184.966 94.2915C185.948 94.6284 186.79 95.1704 187.493 95.9175C188.211 96.6646 188.76 97.6387 189.141 98.8398C189.537 100.041 189.734 101.506 189.734 103.234V118H182.286V103.19C182.286 102.224 182.146 101.477 181.868 100.949C181.604 100.407 181.224 100.034 180.726 99.8286C180.228 99.6089 179.62 99.499 178.902 99.499C178.038 99.499 177.334 99.6455 176.792 99.9385C176.25 100.231 175.833 100.642 175.54 101.169C175.262 101.682 175.071 102.29 174.969 102.993C174.866 103.696 174.815 104.465 174.815 105.3ZM221.88 109.497C221.88 108.999 221.807 108.552 221.661 108.156C221.514 107.746 221.243 107.365 220.848 107.014C220.452 106.662 219.881 106.311 219.134 105.959C218.401 105.593 217.435 105.212 216.233 104.816C214.827 104.348 213.472 103.82 212.168 103.234C210.865 102.634 209.7 101.938 208.675 101.147C207.649 100.341 206.836 99.4038 206.236 98.3345C205.635 97.2505 205.335 95.9907 205.335 94.5552C205.335 93.1782 205.643 91.9404 206.258 90.8418C206.873 89.7285 207.73 88.7837 208.829 88.0073C209.942 87.2163 211.246 86.6157 212.74 86.2056C214.234 85.7808 215.867 85.5684 217.64 85.5684C219.983 85.5684 222.049 85.9785 223.836 86.7988C225.638 87.6045 227.044 88.7544 228.055 90.2485C229.08 91.728 229.593 93.4785 229.593 95.5H221.924C221.924 94.6943 221.756 93.9839 221.419 93.3687C221.097 92.7534 220.606 92.27 219.947 91.9185C219.288 91.5669 218.46 91.3911 217.464 91.3911C216.497 91.3911 215.684 91.5376 215.025 91.8306C214.366 92.1235 213.868 92.519 213.531 93.0171C213.194 93.5005 213.025 94.0352 213.025 94.6211C213.025 95.1045 213.157 95.5439 213.421 95.9395C213.699 96.3203 214.087 96.6792 214.585 97.0161C215.098 97.353 215.713 97.6753 216.431 97.9829C217.164 98.2905 217.984 98.5908 218.892 98.8838C220.591 99.4258 222.1 100.034 223.418 100.708C224.751 101.367 225.872 102.121 226.78 102.971C227.703 103.806 228.399 104.758 228.868 105.827C229.351 106.896 229.593 108.105 229.593 109.453C229.593 110.888 229.314 112.163 228.758 113.276C228.201 114.389 227.403 115.334 226.363 116.11C225.323 116.872 224.078 117.451 222.627 117.846C221.177 118.242 219.559 118.439 217.771 118.439C216.131 118.439 214.512 118.234 212.916 117.824C211.333 117.399 209.898 116.755 208.609 115.891C207.32 115.012 206.287 113.891 205.511 112.529C204.749 111.152 204.368 109.519 204.368 107.629H212.103C212.103 108.566 212.227 109.357 212.476 110.002C212.725 110.646 213.091 111.167 213.575 111.562C214.058 111.943 214.651 112.221 215.354 112.397C216.058 112.558 216.863 112.639 217.771 112.639C218.753 112.639 219.544 112.5 220.145 112.221C220.745 111.928 221.185 111.547 221.463 111.079C221.741 110.595 221.88 110.068 221.88 109.497ZM245.743 94.2256V99.3672H231.417V94.2256H245.743ZM234.427 88.3149H241.832V110.244C241.832 110.874 241.905 111.364 242.051 111.716C242.198 112.053 242.447 112.294 242.798 112.441C243.165 112.573 243.648 112.639 244.249 112.639C244.673 112.639 245.025 112.631 245.303 112.617C245.582 112.587 245.845 112.551 246.094 112.507V117.802C245.464 118.007 244.805 118.161 244.117 118.264C243.428 118.381 242.696 118.439 241.919 118.439C240.337 118.439 238.982 118.19 237.854 117.692C236.741 117.194 235.892 116.411 235.306 115.341C234.72 114.272 234.427 112.88 234.427 111.167V88.3149ZM261.036 112.023V102.224C261.036 101.55 260.94 100.971 260.75 100.488C260.56 100.004 260.259 99.6309 259.849 99.3672C259.439 99.0889 258.89 98.9497 258.201 98.9497C257.645 98.9497 257.168 99.0449 256.773 99.2354C256.377 99.4258 256.077 99.7114 255.872 100.092C255.667 100.473 255.564 100.957 255.564 101.542H248.16C248.16 100.444 248.401 99.4258 248.885 98.4883C249.383 97.5361 250.086 96.7085 250.994 96.0054C251.917 95.3022 253.016 94.7603 254.29 94.3794C255.579 93.9839 257.015 93.7861 258.597 93.7861C260.486 93.7861 262.171 94.1011 263.65 94.731C265.145 95.3608 266.324 96.3057 267.188 97.5654C268.052 98.8105 268.484 100.378 268.484 102.268V112.001C268.484 113.554 268.572 114.733 268.748 115.539C268.924 116.33 269.173 117.026 269.495 117.626V118H262.068C261.717 117.268 261.453 116.374 261.277 115.319C261.116 114.25 261.036 113.151 261.036 112.023ZM261.937 103.476L261.98 107.431H258.707C258.018 107.431 257.432 107.526 256.949 107.717C256.48 107.907 256.099 108.171 255.806 108.508C255.528 108.83 255.323 109.196 255.191 109.606C255.074 110.017 255.015 110.449 255.015 110.903C255.015 111.342 255.118 111.738 255.323 112.089C255.542 112.426 255.835 112.69 256.202 112.88C256.568 113.071 256.978 113.166 257.432 113.166C258.252 113.166 258.948 113.012 259.52 112.705C260.105 112.382 260.552 111.994 260.86 111.54C261.167 111.086 261.321 110.661 261.321 110.266L262.947 113.298C262.654 113.884 262.317 114.477 261.937 115.078C261.57 115.678 261.109 116.235 260.552 116.748C260.01 117.246 259.344 117.656 258.553 117.978C257.762 118.286 256.802 118.439 255.674 118.439C254.209 118.439 252.862 118.139 251.631 117.539C250.416 116.938 249.441 116.103 248.709 115.034C247.977 113.95 247.61 112.705 247.61 111.298C247.61 110.068 247.83 108.969 248.27 108.002C248.724 107.036 249.405 106.215 250.313 105.542C251.221 104.868 252.378 104.355 253.785 104.003C255.191 103.652 256.846 103.476 258.75 103.476H261.937ZM282.635 112.727C283.323 112.727 283.909 112.602 284.393 112.353C284.891 112.089 285.264 111.723 285.513 111.254C285.777 110.771 285.901 110.192 285.887 109.519H292.852C292.867 111.306 292.427 112.873 291.534 114.221C290.655 115.554 289.454 116.594 287.93 117.341C286.421 118.073 284.715 118.439 282.811 118.439C280.95 118.439 279.324 118.139 277.933 117.539C276.541 116.923 275.376 116.074 274.439 114.99C273.516 113.891 272.82 112.609 272.352 111.145C271.897 109.68 271.67 108.09 271.67 106.376V105.871C271.67 104.157 271.897 102.568 272.352 101.103C272.82 99.6235 273.516 98.3418 274.439 97.2578C275.376 96.1592 276.534 95.3096 277.911 94.709C279.302 94.0938 280.921 93.7861 282.767 93.7861C284.744 93.7861 286.487 94.1597 287.996 94.9067C289.52 95.6538 290.713 96.7378 291.578 98.1587C292.442 99.5796 292.867 101.301 292.852 103.322H285.887C285.901 102.604 285.792 101.96 285.557 101.389C285.323 100.817 284.957 100.363 284.458 100.026C283.975 99.6748 283.353 99.499 282.591 99.499C281.829 99.499 281.214 99.6675 280.745 100.004C280.276 100.341 279.917 100.81 279.668 101.411C279.434 101.997 279.273 102.67 279.185 103.432C279.112 104.194 279.075 105.007 279.075 105.871V106.376C279.075 107.255 279.112 108.083 279.185 108.859C279.273 109.621 279.441 110.295 279.69 110.881C279.939 111.452 280.298 111.906 280.767 112.243C281.236 112.565 281.858 112.727 282.635 112.727ZM303.487 84.228V118H296.082V84.228H303.487ZM318.692 94.2256L308.365 106.333L302.959 111.738L299.729 107.036L304.234 101.169L309.815 94.2256H318.692ZM310.76 118L304.41 107.167L309.881 103.278L319.241 118H310.76Z" fill="#424241"/>
<path d="M1363 15C1363 6.71573 1356.28 0 1348 0H1134V167H1348C1356.28 167 1363 160.284 1363 152V15Z" fill="#8C57BA" fill-opacity="0.54"/>
<path fill-rule="evenodd" clip-rule="evenodd" d="M1218.5 55C1218.37 55 1218.24 55.0527 1218.15 55.1464C1218.05 55.2402 1218 55.3674 1218 55.5V111.5C1218 111.633 1218.05 111.76 1218.15 111.854C1218.24 111.947 1218.37 112 1218.5 112H1278C1278.13 112 1278.26 111.947 1278.35 111.854C1278.45 111.76 1278.5 111.633 1278.5 111.5V66C1278.5 65.8674 1278.45 65.7402 1278.35 65.6464C1278.26 65.5527 1278.13 65.5 1278 65.5H1248.25C1247.36 65.5 1246.52 65.1045 1245.95 64.4206L1238.09 55H1218.5ZM1213.9 50.9038C1215.12 49.6848 1216.78 49 1218.5 49H1239.5C1240.39 49 1241.23 49.3955 1241.8 50.0794L1249.66 59.5H1278C1279.72 59.5 1281.38 60.1848 1282.6 61.4038C1283.82 62.6228 1284.5 64.2761 1284.5 66V111.5C1284.5 113.224 1283.82 114.877 1282.6 116.096C1281.38 117.315 1279.72 118 1278 118H1218.5C1216.78 118 1215.12 117.315 1213.9 116.096C1212.68 114.877 1212 113.224 1212 111.5V55.5C1212 53.7761 1212.68 52.1228 1213.9 50.9038Z" fill="white"/>
<path fill-rule="evenodd" clip-rule="evenodd" d="M1243.72 77.5251C1245.09 78.892 1245.09 81.108 1243.72 82.4749L1237.45 88.75L1243.72 95.0251C1245.09 96.392 1245.09 98.608 1243.72 99.9749C1242.36 101.342 1240.14 101.342 1238.78 99.9749L1230.03 91.2249C1228.66 89.858 1228.66 87.642 1230.03 86.2751L1238.78 77.5251C1240.14 76.1583 1242.36 76.1583 1243.72 77.5251Z" fill="white"/>
<path fill-rule="evenodd" clip-rule="evenodd" d="M1252.03 99.9749C1250.66 98.608 1250.66 96.392 1252.03 95.0251L1258.3 88.75L1252.03 82.4749C1250.66 81.108 1250.66 78.892 1252.03 77.5251C1253.39 76.1583 1255.61 76.1583 1256.97 77.5251L1265.72 86.2751C1267.09 87.642 1267.09 89.858 1265.72 91.2249L1256.97 99.9749C1255.61 101.342 1253.39 101.342 1252.03 99.9749Z" fill="white"/>
</svg>
